<?xml version="1.0" encoding="UTF-8" standalone="no"?>
<svg
   version="1.1"
   viewBox="-5 -10 89.998131 89.115852"
   id="svg2"
   sodipodi:docname="noun-galaxy-star-7137012.svg"
   width="89.998131"
   height="89.115852"
   inkscape:version="1.3.2 (091e20e, 2023-11-25)"
   xmlns:inkscape="http://www.inkscape.org/namespaces/inkscape"
   xmlns:sodipodi="http://sodipodi.sourceforge.net/DTD/sodipodi-0.dtd"
   xmlns="http://www.w3.org/2000/svg"
   xmlns:svg="http://www.w3.org/2000/svg">
  <defs
     id="defs2" />
  <sodipodi:namedview
     id="namedview2"
     pagecolor="#ffffff"
     bordercolor="#000000"
     borderopacity="0.25"
     inkscape:showpageshadow="2"
     inkscape:pageopacity="0.0"
     inkscape:pagecheckerboard="0"
     inkscape:deskcolor="#d1d1d1"
     inkscape:zoom="1.7481481"
     inkscape:cx="45.476695"
     inkscape:cy="52.055085"
     inkscape:window-width="1312"
     inkscape:window-height="449"
     inkscape:window-x="0"
     inkscape:window-y="37"
     inkscape:window-maximized="0"
     inkscape:current-layer="svg2" />
  <path
     d="m 83.81452,33.275968 -22.566,-1.7734 21.152,-8.0625 c 0.64453,-0.24609 0.96875,-0.90234 0.77344,-1.5625 -0.19531,-0.66016 -0.82031,-1.0352 -1.4961,-0.89453 l -22.152,4.6562 18.027,-13.695 c 0.54687,-0.41406 0.67578,-1.1406 0.30469,-1.7188 -0.37109,-0.5781998 -1.082,-0.7617198 -1.6875,-0.4374998 l -19.949,10.7109998 13.438,-18.2189998 c 0.40625,-0.55469 0.32812,-1.28120002 -0.19141,-1.73440002 -0.51953,-0.44922 -1.2539,-0.42578 -1.7422,0.05469 l -16.121,15.89499982 7.7617,-21.2659998 c 0.23437,-0.64453 -0.04688,-1.3242 -0.67188,-1.6094 -0.625004,-0.2852 -1.3242,-0.058594 -1.6562,0.54688 l -10.992,19.7929998 1.457,-22.5899998 c 0.04297,-0.6875 -0.41797,-1.2578 -1.0977,-1.3555 -0.68359,-0.097656 -1.2852,0.31641 -1.4375,0.98828 l -4.9688,22.0859998 -4.9688,-22.0819998 c -0.15234,-0.67188 -0.75781,-1.0859002 -1.4375,-0.98828 -0.67969,0.097656 -1.1445,0.66797 -1.0977,1.3555 l 1.457,22.5899998 -10.988,-19.7969998 c -0.33594,-0.60156 -1.0312,-0.83203 -1.6562,-0.54688 -0.625,0.28515 -0.91016,0.96484 -0.67188,1.6094 l 7.7617,21.2659998 -16.121,-15.89499982 c -0.48828,-0.48438 -1.2227,-0.50781 -1.7422,-0.05469 -0.51953,0.44922 -0.60156,1.17970002 -0.19141,1.73440002 L 23.78107,20.498938 3.83207,9.7919382 c -0.60547,-0.32422 -1.3164,-0.14062 -1.6875,0.4374998 -0.37109,0.57812 -0.24219,1.3008 0.30469,1.7188 l 18.027,13.695 -22.156,-4.6602 c -0.67187,-0.14062 -1.3047,0.23438 -1.4961,0.89453 -0.19531,0.66016 0.13281,1.3164 0.77344,1.5625 l 21.152,8.0625 -22.566,1.7734 C -4.5039,33.330658 -5,33.869718 -5,34.557168 c 0,0.68745 0.49609,1.2266 1.1836,1.2812 l 22.566,1.7734 -21.152,8.0586 c -0.64453,0.24609 -0.96875,0.90234 -0.77344,1.5625 0.19531,0.66016 0.82422,1.0352 1.4961,0.89453 l 22.152,-4.6562 -18.027,13.695 c -0.54687,0.41406 -0.67578,1.1406 -0.30469,1.7188 0.37109,0.5782 1.082,0.76172 1.6875,0.4375 l 19.945,-10.707 -13.434,18.215 c -0.41016,0.55469 -0.32812,1.2812 0.19141,1.7344 0.51953,0.44922 1.2539,0.42578 1.7422,-0.05469 l 16.121,-15.895 -7.7617,21.266 c -0.23437,0.64453 0.04688,1.3242 0.67188,1.6094 0.625004,0.2852 1.3242,0.05859 1.6562,-0.54688 l 10.988,-19.789 -1.457,22.59 c -0.04297,0.6875 0.41797,1.2578 1.0977,1.3555 0.68359,0.09766 1.2852,-0.31641 1.4375,-0.98828 l 4.9727,-22.086 4.9688,22.086 c 0.13672,0.60547 0.64062,1.0039 1.2383,1.0039 0.06641,0 0.12891,-0.0039 0.19531,-0.01563 0.67969,-0.09766 1.1445,-0.66797 1.0977,-1.3555 l -1.457,-22.59 10.988,19.789 c 0.33594,0.60156 1.0312,0.83203 1.6562,0.54688 0.625,-0.28515 0.91016,-0.96484 0.67188,-1.6094 l -7.7617,-21.266 16.121,15.895 c 0.48828,0.48438 1.2227,0.50781 1.7422,0.05469 0.51953,-0.44922 0.60156,-1.1797 0.19141,-1.7344 l -13.43,-18.215 19.945,10.711 c 0.60547,0.32422 1.3164,0.14062 1.6875,-0.4375 0.37109,-0.57812 0.24219,-1.3008 -0.30469,-1.7188 l -18.023,-13.695 22.152,4.6562 c 0.67578,0.14062 1.3047,-0.23438 1.4961,-0.89453 0.19531,-0.66016 -0.13281,-1.3164 -0.77344,-1.5625 l -21.152,-8.0625 22.566,-1.7734 c 0.6875,-0.05469 1.1836,-0.59375 1.1836,-1.2812 0,-0.68745 -0.49609,-1.2266 -1.1836,-1.2812 z"
     id="path1" />
  <text
     x="-10.00148"
     y="102.05697"
     font-size="5px"
     font-weight="bold"
     font-family="'Arbeit Regular', Helvetica, Arial-Unicode, Arial, Sans-serif"
     fill="#000000"
     id="text1">Created by Oksana Latysheva</text>
  <text
     x="-10.00148"
     y="107.05697"
     font-size="5px"
     font-weight="bold"
     font-family="'Arbeit Regular', Helvetica, Arial-Unicode, Arial, Sans-serif"
     fill="#000000"
     id="text2">from Noun Project</text>
</svg>
