<svg xmlns="http://www.w3.org/2000/svg" version="1.1" viewBox="-5.0 -10.0 110.0 135.0">
 <path d="m67.723 61.684c-0.011718-0.058594-0.027344-0.11719-0.050781-0.17578-0.72266-1.8125-1.168-3.7227-1.3164-5.668-0.046875-0.48438-0.070313-0.99609-0.070313-1.5625l0.003906-5.5547c0-7.4648-4.168-14.027-10.453-16.648h-0.003907c0.035157-0.26172 0.054688-0.52344 0.054688-0.78516 0.003906-1.6328-0.67188-3.1953-1.8633-4.3086-1.1914-1.1172-2.793-1.6875-4.4219-1.5742-1.6289 0.10938-3.1367 0.89062-4.168 2.1562-1.0312 1.2695-1.4883 2.9062-1.2656 4.5234-6.2891 2.6289-10.457 9.1836-10.457 16.637v5.5547c0 0.57031-0.023438 1.082-0.070313 1.582-0.14453 1.9375-0.58594 3.8398-1.3086 5.6445-0.023437 0.058594-0.042969 0.11719-0.054687 0.17969l-0.99219 4.9023c-0.058594 0.29297 0.015625 0.59766 0.20703 0.83203 0.19141 0.23047 0.47266 0.36719 0.77344 0.36719h9.9961c0.49609 3.8945 3.8125 6.8125 7.7383 6.8125s7.2422-2.918 7.7383-6.8125h9.9961c0.30078 0 0.58203-0.13672 0.77344-0.36719 0.19141-0.23438 0.26563-0.53906 0.20703-0.83203zm-17.723-34.281c2.1445 0 3.8828 1.7383 3.8867 3.8867v0.10938c-2.5469-0.67578-5.2266-0.67188-7.7734 0.011718v-0.125 0.003906c0.003907-2.1484 1.7422-3.8867 3.8867-3.8867zm0.007812 45.195c-2.8242-0.003906-5.2383-2.0312-5.7305-4.8125h11.445c-0.48438 2.7773-2.8945 4.8086-5.7148 4.8125zm6.8164-6.8125-0.015625-0.003906h-13.617l-0.015625 0.003906h-9.6875l0.73047-3.6133v-0.003906c0.78125-1.9609 1.2578-4.0312 1.4141-6.1367 0.054688-0.54688 0.078126-1.1211 0.078126-1.7578l0.003906-5.5508c0-6.9492 4.0156-13.016 9.9922-15.098 0.21094-0.074219 0.42188-0.12891 0.63281-0.19141v-0.003906c2.4141-0.62891 4.9492-0.62891 7.3633 0.003906 0.19922 0.058594 0.39844 0.11328 0.58984 0.17969 5.9766 2.082 9.9922 8.1523 9.9922 15.109v5.5547c0 0.63281 0.027344 1.207 0.078125 1.7383v-0.003906c0.16406 2.1133 0.64062 4.1875 1.418 6.1562l0.73047 3.6172z"/>
<text x="0.0" y="117.5" font-size="5.0" font-weight="bold" font-family="Arbeit Regular, Helvetica, Arial-Unicode, Arial, Sans-serif" fill="#000000">Created by ennbe</text><text x="0.0" y="122.5" font-size="5.0" font-weight="bold" font-family="Arbeit Regular, Helvetica, Arial-Unicode, Arial, Sans-serif" fill="#000000">from Noun Project</text></svg>