<?xml version="1.0" encoding="UTF-8" standalone="no"?>
<svg
   viewBox="0 0 84.715042 83.999962"
   fill="none"
   x="0px"
   y="0px"
   version="1.1"
   id="svg2"
   sodipodi:docname="noun-pencil-5897073.svg"
   width="84.715042"
   height="83.999962"
   inkscape:version="1.3.2 (091e20e, 2023-11-25)"
   xmlns:inkscape="http://www.inkscape.org/namespaces/inkscape"
   xmlns:sodipodi="http://sodipodi.sourceforge.net/DTD/sodipodi-0.dtd"
   xmlns="http://www.w3.org/2000/svg"
   xmlns:svg="http://www.w3.org/2000/svg">
  <defs
     id="defs2" />
  <sodipodi:namedview
     id="namedview2"
     pagecolor="#ffffff"
     bordercolor="#000000"
     borderopacity="0.25"
     inkscape:showpageshadow="2"
     inkscape:pageopacity="0.0"
     inkscape:pagecheckerboard="0"
     inkscape:deskcolor="#d1d1d1"
     inkscape:zoom="1.888"
     inkscape:cx="39.459746"
     inkscape:cy="54.555085"
     inkscape:window-width="1312"
     inkscape:window-height="449"
     inkscape:window-x="0"
     inkscape:window-y="37"
     inkscape:window-maximized="0"
     inkscape:current-layer="svg2" />
  <path
     fill-rule="evenodd"
     clip-rule="evenodd"
     d="m 16.332696,70.207887 -13.8092,12.8887 c -0.6056,0.5652 -1.55479997,0.5325 -2.12009997,-0.0731 -0.5652,-0.6056 -0.5325,-1.5548 0.0731,-2.1201 l 14.34069997,-13.3846 5.4084,-12.2369 1.2927,-2.8235 12.4167,-12.4167 -33.51089997,-34.4965 c -0.5772,-0.5942 -0.5635,-1.5439 0.0307,-2.1211 0.59419997,-0.5773 1.54389997,-0.5635 2.12109997,0.0307 l 33.4806,34.4654 36.8829,-36.8829 c 2.6981,-1.66373996 6.2806,-1.32608996 8.6197,1.013 l 1.1057,1.1057 c 2.3618,2.3618 2.6831,5.9915 0.9638,8.6982 l -37.0765,37.0765 32.5086,32.5086 c 0.5858,0.5858 0.5858,1.5356 0,2.1214 -0.5858,0.5857 -1.5356,0.5857 -2.1214,0 l -32.5086,-32.5086 -12.1198,12.1198 -14.9712,6.8545 c -0.3406,0.156 -0.6833,0.2094 -1.007,0.1815 z m 53.4658,-62.0539 -45.3104,45.3104 0.3143,0.6283 c 0.6156,1.2308 1.4417,2.3309 2.4313,3.2561 l 45.2132,-45.2132 c -0.8893,-0.9142 -1.6403,-1.966 -2.2196,-3.1244 z m -39.1575,51.4 c -0.9544,-0.4001 -1.8429,-0.924 -2.6455,-1.5528 l 45.177,-45.1771 c 0.9961,0.8722 2.1321,1.5873 3.3706,2.1104 l -44.9984,44.9984 z m 39.9028,-52.1453 0.5778,1.1552 c 1.2305,2.4601 3.3019,4.3977 5.8386,5.4613 l 0.3469,0.1454 3.2364,-3.2365 c 1.5621,-1.5621 1.5621,-4.0947 0,-5.6568 l -1.1057,-1.1057 c -1.5621,-1.5621 -4.0948,-1.5621 -5.6569,0 z m -51.0229,56.6188 4.3645,-9.5327 0.0226,0.0453 c 1.3375,2.674 3.589,4.7801 6.3463,5.9361 l 0.3852,0.1615 -9.9519,4.5564 z"
     fill="#000000"
     id="path1" />
  <text
     x="-10.500004"
     y="106.99998"
     fill="#000000"
     font-size="5px"
     font-weight="bold"
     font-family="'Helvetica Neue', Helvetica, Arial-Unicode, Arial, Sans-serif"
     id="text1">Created by charles lee</text>
  <text
     x="-10.500004"
     y="111.99998"
     fill="#000000"
     font-size="5px"
     font-weight="bold"
     font-family="'Helvetica Neue', Helvetica, Arial-Unicode, Arial, Sans-serif"
     id="text2">from the Noun Project</text>
</svg>
