<svg xmlns:inkscape="http://www.inkscape.org/namespaces/inkscape" xmlns:sodipodi="http://sodipodi.sourceforge.net/DTD/sodipodi-0.dtd" xmlns="http://www.w3.org/2000/svg" xmlns:svg="http://www.w3.org/2000/svg" viewBox="0 0 25.134769 31.41846125" version="1.1" x="0px" y="0px"><g transform="translate(-112.67358,-139.51093)"><path style="color:#000000;paint-order:stroke fill markers;" d="m 118.44727,144.80273 a 0.39691468,0.39691468 0 0 0 -0.39844,0.39649 v 5.68555 a 0.39691468,0.39691468 0 0 0 0.39844,0.39648 h 5.68554 a 0.39691468,0.39691468 0 0 0 0.39649,-0.39648 v -5.68555 a 0.39691468,0.39691468 0 0 0 -0.39649,-0.39649 z m 0.39648,0.79297 h 4.89258 v 4.89258 h -4.89258 z" fill="#000000" stroke-linecap="round" stroke-linejoin="round" stroke-dashoffset="2.7"/><path style="color:#000000;paint-order:stroke fill markers;" d="m 126.40039,144.80273 a 0.39691468,0.39691468 0 0 0 -0.39648,0.39649 v 5.68555 a 0.39691468,0.39691468 0 0 0 0.39648,0.39648 h 5.6875 a 0.39691468,0.39691468 0 0 0 0.39648,-0.39648 v -5.68555 a 0.39691468,0.39691468 0 0 0 -0.39648,-0.39649 z m 0.39649,0.79297 h 4.89453 v 4.89258 h -4.89453 z" fill="#000000" stroke-linecap="round" stroke-linejoin="round" stroke-dashoffset="2.7"/><path style="color:#000000;paint-order:stroke fill markers;" d="m 129.24414,152.875 c -1.78817,0 -3.24023,1.45209 -3.24023,3.24023 0,1.78815 1.45206,3.24024 3.24023,3.24024 1.78817,0 3.24023,-1.45209 3.24023,-3.24024 0,-1.78814 -1.45206,-3.24023 -3.24023,-3.24023 z m 0,0.79297 c 1.36218,0 2.44727,1.08513 2.44727,2.44726 0,1.36214 -1.08509,2.44532 -2.44727,2.44532 -1.36217,0 -2.44726,-1.08318 -2.44726,-2.44532 0,-1.36213 1.08509,-2.44726 2.44726,-2.44726 z" fill="#000000" stroke-linecap="round" stroke-linejoin="round" stroke-dashoffset="2.7"/><path style="color:#000000;paint-order:stroke fill markers;" d="m 118.39453,152.875 a 0.39691468,0.39691468 0 0 0 -0.39648,0.39648 v 5.68555 a 0.39691468,0.39691468 0 0 0 0.39648,0.39844 h 5.6875 a 0.39691468,0.39691468 0 0 0 0.39649,-0.39844 v -5.68555 a 0.39691468,0.39691468 0 0 0 -0.39649,-0.39648 z m 0.39649,0.79297 h 4.89257 v 4.89258 h -4.89257 z" fill="#000000" stroke-linecap="round" stroke-linejoin="round" stroke-dashoffset="2.7"/></g><text x="0" y="40.134769" fill="#000000" font-size="5px" font-weight="bold" font-family="'Helvetica Neue', Helvetica, Arial-Unicode, Arial, Sans-serif">Created by Meko</text><text x="0" y="45.134769" fill="#000000" font-size="5px" font-weight="bold" font-family="'Helvetica Neue', Helvetica, Arial-Unicode, Arial, Sans-serif">from the Noun Project</text></svg>