<?xml version="1.0" encoding="UTF-8" standalone="no"?>
<svg
   version="1.1"
   x="0px"
   y="0px"
   viewBox="0 0 76.40889 61.785416"
   xml:space="preserve"
   id="svg2"
   sodipodi:docname="noun-correction-tape-6358011.svg"
   width="76.40889"
   height="61.785416"
   inkscape:version="1.3.2 (091e20e, 2023-11-25)"
   xmlns:inkscape="http://www.inkscape.org/namespaces/inkscape"
   xmlns:sodipodi="http://sodipodi.sourceforge.net/DTD/sodipodi-0.dtd"
   xmlns="http://www.w3.org/2000/svg"
   xmlns:svg="http://www.w3.org/2000/svg"><defs
     id="defs2" /><sodipodi:namedview
     id="namedview2"
     pagecolor="#ffffff"
     bordercolor="#000000"
     borderopacity="0.25"
     inkscape:showpageshadow="2"
     inkscape:pageopacity="0.0"
     inkscape:pagecheckerboard="0"
     inkscape:deskcolor="#d1d1d1"
     inkscape:zoom="1.888"
     inkscape:cx="38.400424"
     inkscape:cy="43.432203"
     inkscape:window-width="1312"
     inkscape:window-height="449"
     inkscape:window-x="0"
     inkscape:window-y="37"
     inkscape:window-maximized="0"
     inkscape:current-layer="svg2" /><path
     d="m 73.66,10.375417 c -2.66,-4.77 -7.03,-8.19 -12.31,-9.64000001 -5.27,-1.45 -10.77,-0.74 -15.49,1.99000001 -3.91,2.25 -6.98,5.8 -8.66,9.99 l -18.84,46.91 H 1.08 c -0.59,0 -1.08,0.48 -1.08,1.08 0,0.6 0.48,1.08 1.08,1.08 h 24.27 c 0.19,0 0.37,-0.05 0.54,-0.14 l 40.25,-23.26 c 4.75,-2.74 8.14,-7.16 9.56,-12.46 1.42,-5.3 0.69,-10.81 -2.04,-15.55 z m -48.59,49.25 h -4.39 l 3.86,-9.61 4.29,7.44 z m 20.39,-14.57 c 0,2.67 -2.17,4.84 -4.84,4.84 -2.67,0 -4.84,-2.17 -4.84,-4.84 0,-2.67 2.17,-4.84 4.84,-4.84 2.67,0 4.84,2.17 4.84,4.84 z m 28.17,-19.68 c -1.27,4.74 -4.31,8.7 -8.56,11.15 l -17.57,10.14 v -19.69 c 1.93,2.54 4.96,4.18 8.39,4.18 5.81,0 10.54,-4.73 10.54,-10.54 0,-5.81 -4.73,-10.53 -10.54,-10.53 -5.81,0 -10.54,4.73 -10.54,10.54 v 19.3 c -1.25,-1.15 -2.91,-1.86 -4.73,-1.86 -3.85,0 -6.99,3.14 -6.99,6.99 0,3.18 2.14,5.87 5.05,6.71 l -7.99,4.61 -5.14,-8.9 13.64,-33.97 c 1.5,-3.74 4.25,-6.91 7.75,-8.93 4.22,-2.44 9.13,-3.07 13.84,-1.77 4.71,1.3 8.62,4.36 11.01,8.63 2.45,4.25 3.11,9.2 1.84,13.94 z m -26.13,-4.75 c 0,-4.62 3.76,-8.39 8.39,-8.39 4.62,0 8.39,3.76 8.39,8.39 0,4.62 -3.76,8.39 -8.39,8.39 -4.63,-0.01 -8.39,-3.77 -8.39,-8.39 z"
     id="path1" /><text
     x="-11.79"
     y="95.885414"
     fill="#000000"
     font-size="5px"
     font-weight="bold"
     font-family="'Helvetica Neue', Helvetica, Arial-Unicode, Arial, Sans-serif"
     id="text1">Created by Pronto Illustration</text><text
     x="-11.79"
     y="100.88541"
     fill="#000000"
     font-size="5px"
     font-weight="bold"
     font-family="'Helvetica Neue', Helvetica, Arial-Unicode, Arial, Sans-serif"
     id="text2">from the Noun Project</text></svg>
