<svg xmlns="http://www.w3.org/2000/svg" xmlns:xlink="http://www.w3.org/1999/xlink" version="1.1" x="0px" y="0px" viewBox="0 0 90 112.5" enable-background="new 0 0 90 90" xml:space="preserve"><path fill="#000000" d="M49.348,63l25.697-29.059L45.987,59.64c-1.461-0.337-3.056,0.052-4.193,1.189  c-1.758,1.759-1.757,4.606,0,6.364c1.758,1.758,4.606,1.758,6.364,0C49.296,66.056,49.686,64.461,49.348,63z"/><path fill="#000000" d="M77.758,36.912l-4.722,5.339c4.672,6.011,7.464,13.552,7.464,21.737h7  C87.5,53.698,83.843,44.265,77.758,36.912z"/><path fill="#000000" d="M66.735,35.95l5.339-4.722c-7.353-6.083-16.786-9.74-27.074-9.74c-23.473,0-42.5,19.027-42.5,42.5h7  c0-19.574,15.925-35.5,35.5-35.5C53.185,28.488,60.725,31.28,66.735,35.95z"/><text x="0" y="105" fill="#000000" font-size="5px" font-weight="bold" font-family="'Helvetica Neue', Helvetica, Arial-Unicode, Arial, Sans-serif">Created by José Manuel de Laá</text><text x="0" y="110" fill="#000000" font-size="5px" font-weight="bold" font-family="'Helvetica Neue', Helvetica, Arial-Unicode, Arial, Sans-serif">from the Noun Project</text></svg>