<?xml version="1.0" encoding="UTF-8" standalone="no"?>
<svg
   version="1.1"
   x="0px"
   y="0px"
   viewBox="0 0 63.599998 86.400002"
   xml:space="preserve"
   id="svg3"
   sodipodi:docname="noun-basket-6315185.svg"
   width="63.599998"
   height="86.400002"
   inkscape:version="1.3.2 (091e20e, 2023-11-25)"
   xmlns:inkscape="http://www.inkscape.org/namespaces/inkscape"
   xmlns:sodipodi="http://sodipodi.sourceforge.net/DTD/sodipodi-0.dtd"
   xmlns="http://www.w3.org/2000/svg"
   xmlns:svg="http://www.w3.org/2000/svg"><defs
     id="defs3" /><sodipodi:namedview
     id="namedview3"
     pagecolor="#ffffff"
     bordercolor="#000000"
     borderopacity="0.25"
     inkscape:showpageshadow="2"
     inkscape:pageopacity="0.0"
     inkscape:pagecheckerboard="0"
     inkscape:deskcolor="#d1d1d1"
     inkscape:zoom="1.888"
     inkscape:cx="29.925847"
     inkscape:cy="55.614407"
     inkscape:window-width="1312"
     inkscape:window-height="449"
     inkscape:window-x="0"
     inkscape:window-y="37"
     inkscape:window-maximized="0"
     inkscape:current-layer="svg3" />
     <title>delete</title><g
     id="g2"
     transform="translate(-20.2,-6.9)"><path
       d="M 83.8,19.1 C 83.8,12.3 69.8,6.9 52,6.9 c -17.8,0 -31.8,5.4 -31.8,12.2 0,2.3 1.6,4.4 4.4,6.2 -0.3,1.1 -0.3,1.9 0,3 -0.2,1.1 -0.2,1.8 0,2.6 -0.1,0.4 -0.1,0.9 0,1.3 -0.2,1.2 -0.2,2.4 0,3.3 -0.1,0.3 -0.1,0.8 0,1.2 -0.2,1.2 -0.2,2.6 0,3.5 0,0.2 -0.1,0.7 0,1.1 -0.1,0.9 -0.1,2.1 0,3.2 -0.1,0.6 -0.1,1.4 0,2 -0.1,0.6 -0.2,1.6 0,2.3 -0.1,0.3 -0.1,0.9 0,1.3 -0.2,1 -0.2,2.7 0,3.6 0,0.1 0,0.2 0,0.3 -0.2,1.1 -0.2,3 0,4.1 0,0.1 0,0.3 0,0.4 -0.2,1.1 -0.2,2.7 0,3.8 0,0.1 0,0.2 0,0.3 -0.1,0.9 -0.2,3 0,3.8 0,0.2 0,0.3 0,0.4 -0.2,1.2 -0.2,2.8 0,3.7 0,0.2 0,0.4 0,0.6 -0.1,0.7 -0.2,2.5 0,3.5 -0.6,1.2 -0.9,2.5 -0.9,3.8 0,8.2 12.7,14.9 28.3,14.9 15.6,0 28.3,-6.7 28.3,-14.9 0,-1.5 -0.4,-2.9 -1.2,-4.3 0,-0.3 0.1,-0.7 -0.1,-1.2 0.1,-0.4 0.1,-1.1 0,-1.8 0.2,-0.7 0.1,-1.6 0,-2.6 0.2,-0.5 0.1,-1.4 0,-2.1 0.1,-0.6 0.2,-1.5 0,-2.4 0.2,-0.6 0.2,-1.5 0,-2.4 0.1,-0.4 0.1,-1 0,-1.6 0.2,-0.6 0.2,-1.5 0,-2.6 0.1,-0.6 0.1,-1.4 0,-2.3 0.2,-0.6 0.1,-1.4 0,-2 0.2,-0.7 0.1,-1.9 0,-2.4 0.2,-0.5 0.1,-1.2 0,-1.9 v -0.2 c 0.1,-0.6 0.2,-1.5 0,-2.3 0.2,-0.6 0.1,-1.5 0,-2.1 0.1,-0.5 0.2,-1.5 0,-2.3 0.2,-0.6 0.1,-1.5 0,-2.2 0.1,-0.5 0.1,-1.3 0,-2.1 0.2,-0.7 0.1,-1.7 0,-2.6 0.1,-0.4 0.1,-0.9 0,-1.6 0.2,-0.6 0.1,-1.5 0,-2.3 0.1,-0.6 0.2,-1.6 0.1,-2.7 0.2,-0.7 0.1,-1.7 -0.1,-2.5 0,-0.2 0,-0.3 0,-0.5 3.1,-1.7 4.8,-3.9 4.8,-6.3 z m -58.4,7.5 c 0.2,0.4 0.4,0.7 0.6,1.1 0.2,0.4 0.5,0.9 0.7,1.4 0,0 -0.1,0.1 -0.1,0.1 -0.1,0.1 -0.2,0.2 -0.3,0.2 -0.2,-0.4 -0.4,-0.8 -0.6,-1.3 -0.3,-0.5 -0.3,-1 -0.3,-1.5 z m 49.9,0.9 c 0.5,0.2 0.9,0.4 1.2,0.5 -0.7,0.9 -1.3,1.8 -2,2.6 -0.6,-0.3 -1.2,-0.6 -1.9,-0.8 0.5,-0.6 1,-1.2 1.5,-1.8 0.3,-0.1 0.5,-0.3 0.8,-0.4 0.1,0 0.3,-0.1 0.4,-0.1 z m 2.2,4.7 C 77.4,32.1 77.2,32 77.1,32 c 0.4,-0.6 0.7,-1.2 1.1,-1.9 0,0.4 0,0.7 -0.1,0.9 -0.2,0.5 -0.4,0.8 -0.6,1.2 z m -1.3,48.6 c -0.3,-0.1 -0.6,-0.1 -0.9,-0.2 0.5,-0.9 1.1,-1.9 1.6,-3 0.2,0.1 0.4,0.1 0.7,0.2 -0.5,1 -0.9,2.1 -1.4,3 z m -1.9,-0.5 c -0.5,-0.1 -0.9,-0.2 -1.4,-0.3 0.7,-0.9 1.3,-1.9 2,-3 0.3,0.1 0.7,0.2 1,0.3 -0.5,1.1 -1,2.1 -1.6,3 z M 33,84.6 c -0.6,-0.7 -1.2,-1.3 -1.7,-1.9 0.6,-0.1 1.2,-0.3 1.8,-0.4 0.9,0.9 1.9,1.9 3,2.9 -0.6,0.2 -1.3,0.5 -2,0.7 z M 26.2,73.9 c 0.2,-0.3 0.4,-0.5 0.6,-0.7 0.2,0.3 0.3,0.7 0.5,1 -0.3,0.1 -0.6,0.2 -0.9,0.4 0,-0.3 -0.1,-0.5 -0.2,-0.7 z m 3.2,-40.4 c 0.7,0.9 1.5,1.9 2.4,2.9 -0.4,0.2 -0.8,0.4 -1.2,0.6 -0.7,-1 -1.3,-2 -1.9,-3 0.2,-0.3 0.5,-0.4 0.7,-0.5 z M 28.2,33 c -0.5,-0.9 -1,-1.7 -1.5,-2.7 0.1,-0.1 0.3,-0.2 0.4,-0.4 0.5,0.8 1,1.7 1.7,2.7 -0.2,0.2 -0.4,0.3 -0.6,0.4 z m 33.9,-1.6 c 0.7,0.2 1.5,0.5 2.2,0.8 -1,0.8 -2.1,1.7 -3.3,2.6 -0.9,-0.4 -1.8,-0.8 -2.8,-1.2 1.1,-0.7 2.1,-1.4 3,-2 0.2,-0.1 0.5,-0.1 0.9,-0.2 z M 71,30.2 c -0.8,0.9 -1.6,1.7 -2.4,2.5 -0.8,-0.3 -1.6,-0.6 -2.4,-0.9 0.6,-0.5 1.2,-1 1.7,-1.6 0.6,-0.2 1.2,-0.3 1.7,-0.5 0.5,0.2 0.9,0.3 1.4,0.5 z m 0.2,-1 c 0.3,-0.1 0.6,-0.2 0.8,-0.3 -0.1,0.2 -0.3,0.3 -0.4,0.5 -0.1,-0.1 -0.2,-0.1 -0.4,-0.2 z m 0.6,10.7 c 0.5,0.2 0.9,0.3 1.3,0.5 -0.7,1 -1.3,2 -2,3 -0.6,-0.2 -1.2,-0.4 -1.7,-0.6 0.8,-1 1.6,-2 2.4,-2.9 -0.1,0 0,0 0,0 z M 78,61.6 v 0 c -0.2,0.6 -0.3,1.1 -0.5,1.7 -0.1,0 -0.2,-0.1 -0.3,-0.1 0.3,-0.8 0.6,-1.6 0.8,-2.3 0.1,0.2 0.1,0.5 0,0.7 z m -0.8,2.6 c -0.3,1.1 -0.7,2 -1.1,3 C 76,67.1 75.7,67 75.5,67 c 0.5,-1 1,-1.9 1.4,-2.9 0.1,0 0.2,0.1 0.3,0.1 z M 32.6,37.1 c 0.8,0.8 1.6,1.6 2.6,2.4 -0.7,0.3 -1.3,0.6 -2,0.9 -0.7,-0.8 -1.4,-1.7 -2,-2.6 0.5,-0.3 0.9,-0.5 1.4,-0.7 z m 19.4,-5 c 0.1,0 0.2,0 0.3,0 1.2,0.6 2.4,1.1 3.6,1.6 -1,0.6 -2.1,1.2 -3.3,1.9 -1.1,-0.6 -2.3,-1.2 -3.6,-1.9 1.1,-0.5 2.1,-1.1 3,-1.6 -0.1,0 0,0 0,0 z m 14.3,28.3 c 0.7,0.2 1.4,0.5 2.1,0.7 -0.8,0.9 -1.7,1.8 -2.6,2.6 -0.9,-0.3 -1.9,-0.6 -2.8,-0.9 1.1,-0.8 2.1,-1.6 3.1,-2.5 0.1,0.1 0.1,0.1 0.2,0.1 z m 8,10.9 C 73.9,71.2 73.5,71.1 73,71 c 0.2,-0.3 0.4,-0.6 0.6,-0.9 0.3,0.2 0.7,0.4 1,0.7 -0.1,0.2 -0.2,0.3 -0.3,0.5 z m 1.1,0.1 c 0.1,0.1 0.2,0.2 0.4,0.3 -0.2,0 -0.3,-0.1 -0.5,-0.1 0,-0.1 0.1,-0.2 0.1,-0.2 z m -41.8,1.3 c 0.7,-0.3 1.5,-0.6 2.2,-0.9 1.2,1.1 2.3,2.1 3.6,3.1 -0.9,0.3 -1.8,0.6 -2.6,0.9 -1.2,-1 -2.2,-2.1 -3.2,-3.1 z m 2,3.5 c -0.7,0.2 -1.5,0.4 -2.2,0.7 -0.8,-1 -1.6,-2 -2.4,-3.1 0.5,-0.2 1.1,-0.4 1.6,-0.6 1,0.9 2,2 3,3 z m -10,-23.3 c 0,0 -0.1,0 -0.1,0 0,-0.1 0,-0.2 0,-0.3 0,0.1 0.1,0.2 0.1,0.3 z M 65,50.4 c -0.9,-0.3 -1.8,-0.7 -2.7,-1 1.1,-0.9 2.2,-1.8 3.3,-2.8 0.7,0.3 1.5,0.5 2.2,0.8 -0.9,1 -1.9,2 -2.8,3 z M 33.7,68.2 c 0.6,-0.3 1.2,-0.5 1.8,-0.8 0.2,-0.1 0.4,-0.1 0.5,-0.2 0.8,0.8 1.7,1.5 2.7,2.3 -0.1,0 -0.1,0 -0.2,0.1 -0.8,0.3 -1.7,0.7 -2.6,1 -0.6,-0.7 -1.4,-1.5 -2.2,-2.4 z M 33,55.5 c 0.7,0.7 1.4,1.5 2.2,2.2 -0.8,0.3 -1.5,0.6 -2.3,0.9 -0.7,-0.8 -1.3,-1.5 -1.9,-2.3 0.6,-0.2 1.2,-0.5 1.9,-0.7 0,-0.1 0,-0.1 0.1,-0.1 z m 18.6,-9.8 c -0.3,0.2 -0.5,0.3 -0.8,0.5 -0.6,0.4 -1.2,0.7 -1.8,1 -1.3,-0.7 -2.5,-1.4 -3.7,-2 0.9,-0.4 1.8,-0.9 2.7,-1.4 1.2,0.7 2.4,1.3 3.6,1.9 z m -2.5,-2.4 c 0.7,-0.4 1.4,-0.8 2.1,-1.2 0.5,-0.3 0.9,-0.5 1.4,-0.8 1.1,0.5 2.3,1 3.5,1.6 -1.1,0.8 -2.3,1.5 -3.5,2.3 -1.2,-0.7 -2.3,-1.3 -3.5,-1.9 z m 2.3,3.8 c 0.4,-0.3 0.9,-0.5 1.3,-0.8 1,0.5 2.1,1 3.2,1.5 -0.9,0.6 -1.8,1.1 -2.6,1.6 -0.4,-0.2 -0.8,-0.4 -1.2,-0.6 -0.7,-0.3 -1.3,-0.7 -1.9,-1 0.3,-0.2 0.8,-0.5 1.2,-0.7 z m 2,20.7 -0.8,0.5 C 52.2,68.1 51.8,68 51.5,67.8 50.7,67.4 49.9,67 49.1,66.5 c 0.9,-0.4 1.8,-0.8 2.6,-1.2 0.3,-0.1 0.6,-0.3 0.9,-0.4 1,0.5 2.1,1 3.2,1.5 -0.8,0.5 -1.6,1 -2.4,1.4 z m 3.5,-0.9 c 1.2,0.5 2.4,0.9 3.6,1.4 -1,0.7 -2,1.4 -3,2.1 -1.3,-0.5 -2.5,-1 -3.8,-1.6 l 0.2,-0.1 c 1,-0.6 2,-1.2 3,-1.8 z M 43.2,59.4 c -1.1,0.4 -2.1,0.8 -3.1,1.2 C 39,59.8 38,58.9 37,58 c 0.9,-0.3 1.8,-0.7 2.7,-1.1 1.1,0.8 2.2,1.6 3.5,2.5 z m -2.4,-2.9 c 1,-0.4 2.1,-0.8 3.1,-1.3 1.2,0.8 2.4,1.5 3.7,2.2 -1.1,0.5 -2.2,1.1 -3.3,1.5 C 43,58.1 41.9,57.3 40.8,56.5 Z M 39.9,65 c -1,-0.7 -1.9,-1.5 -2.8,-2.3 0.9,-0.3 1.8,-0.6 2.8,-1 1,0.8 2,1.5 3.1,2.2 -1,0.4 -2.1,0.7 -3.1,1.1 z m 5.9,-1 c 1,-0.4 2,-0.8 2.9,-1.2 0.5,0.3 1,0.6 1.5,0.9 -1.5,0 -3,0.1 -4.4,0.3 z m 5,0.7 c -0.9,0.4 -1.9,0.8 -2.8,1.2 -0.5,-0.3 -1.1,-0.6 -1.6,-0.9 1.4,-0.2 2.9,-0.3 4.4,-0.3 z M 44.1,63.5 C 43,62.8 42,62.1 41,61.3 c 1,-0.4 2.1,-0.8 3.2,-1.3 1.1,0.7 2.2,1.4 3.4,2.1 -1.1,0.5 -2.3,1 -3.5,1.4 z M 38.9,61 c -0.9,0.3 -1.8,0.6 -2.7,1 -0.9,-0.8 -1.8,-1.7 -2.6,-2.6 0.8,-0.3 1.6,-0.6 2.3,-0.9 1,0.8 2,1.7 3,2.5 z m -3.7,1.3 c -0.6,0.2 -1.3,0.4 -1.9,0.7 -0.8,-0.9 -1.5,-1.7 -2.2,-2.6 0.5,-0.2 1,-0.4 1.5,-0.6 0.8,0.8 1.7,1.7 2.6,2.5 z m 0.4,0.9 c 0.2,-0.1 0.3,-0.1 0.5,-0.2 0.9,0.8 1.8,1.5 2.7,2.3 -0.8,0.2 -1.7,0.5 -2.4,0.8 -0.8,-0.8 -1.6,-1.5 -2.3,-2.3 0.4,-0.2 0.9,-0.4 1.5,-0.6 z m 3.6,3.1 c 0.2,-0.1 0.4,-0.1 0.6,-0.1 0.9,0.7 1.8,1.3 2.8,2 -0.9,0.3 -1.8,0.7 -2.7,1.1 -0.9,-0.7 -1.8,-1.5 -2.7,-2.2 0.7,-0.4 1.3,-0.6 2,-0.8 z M 41,65.8 c 1.2,-0.3 2.4,-0.5 3.7,-0.7 0.7,0.4 1.4,0.8 2,1.2 -1,0.4 -2.1,0.8 -3.1,1.3 -0.8,-0.5 -1.7,-1.2 -2.6,-1.8 z m 6.9,1.2 c 1.1,0.6 2.1,1.1 3.2,1.7 0.2,0.1 0.4,0.2 0.5,0.2 h -0.1 c -1,0.6 -2,1.1 -3,1.7 -1.3,-0.8 -2.6,-1.5 -3.9,-2.3 1.2,-0.4 2.3,-0.8 3.3,-1.3 z m 4.3,-3.4 C 52,63.5 51.9,63.4 51.7,63.3 51,62.9 50.4,62.6 49.8,62.2 c 0.7,-0.3 1.3,-0.7 2,-1 0.6,-0.3 1.2,-0.7 1.7,-1 1.1,0.5 2.1,0.9 3.3,1.3 -1.2,0.7 -2.5,1.4 -3.7,2 -0.4,0.1 -0.6,0.1 -0.9,0.1 z m -0.9,-3.2 c -0.8,0.5 -1.7,0.9 -2.5,1.3 -1.2,-0.7 -2.3,-1.4 -3.4,-2.1 1.1,-0.5 2.2,-1 3.4,-1.6 0.9,0.5 1.8,0.9 2.8,1.4 0.3,0.1 0.6,0.3 0.9,0.4 -0.5,0.2 -0.8,0.4 -1.2,0.6 z m 0.6,-1.9 c -0.7,-0.3 -1.4,-0.7 -2.1,-1 0.6,-0.3 1.3,-0.7 1.9,-1 0.5,-0.3 1,-0.5 1.4,-0.8 1.2,0.5 2.3,1 3.6,1.5 -1.1,0.7 -2.2,1.4 -3.3,2.1 -0.5,-0.4 -1,-0.6 -1.5,-0.8 z m -0.7,-3 c -0.9,0.5 -1.7,0.9 -2.5,1.3 -1.3,-0.7 -2.5,-1.4 -3.7,-2.1 1.1,-0.5 2.2,-1 3.3,-1.5 1,0.5 2.1,1.1 3.2,1.6 0.2,0.1 0.4,0.2 0.6,0.3 -0.3,0.1 -0.6,0.3 -0.9,0.4 z m 0.6,-1.6 c -0.9,-0.4 -1.7,-0.8 -2.5,-1.2 0.7,-0.4 1.5,-0.8 2.2,-1.2 0.6,-0.3 1.2,-0.7 1.8,-1 1.1,0.5 2.3,1.1 3.6,1.6 -1.2,0.8 -2.5,1.6 -3.8,2.4 -0.4,-0.2 -0.8,-0.4 -1.3,-0.6 z m 2.6,-4 c 0.9,-0.5 1.7,-1.1 2.6,-1.6 1.1,0.5 2.2,0.9 3.3,1.4 -0.8,0.6 -1.6,1.2 -2.4,1.8 -1.2,-0.6 -2.4,-1.1 -3.5,-1.6 z m -2.8,-0.2 c 0.2,0.1 0.4,0.2 0.6,0.3 -0.4,0.2 -0.8,0.4 -1.1,0.7 -0.9,0.5 -1.8,1 -2.8,1.5 -1.1,-0.6 -2.1,-1.1 -3.1,-1.7 1.3,-0.6 2.6,-1.3 3.9,-2 0.8,0.3 1.6,0.7 2.5,1.2 z m -4.4,2.9 c -1,0.5 -2.1,1 -3.2,1.4 -1,-0.6 -1.9,-1.3 -2.8,-1.9 1,-0.4 1.9,-0.9 2.9,-1.3 1,0.7 2,1.3 3.1,1.8 z m -4.3,2 c -1,0.4 -2,0.8 -3,1.2 -0.9,-0.7 -1.7,-1.3 -2.5,-2 0.9,-0.4 1.9,-0.8 2.8,-1.2 0.8,0.7 1.7,1.3 2.7,2 z m -4.2,1.6 c -0.7,0.3 -1.4,0.6 -2.1,0.8 -0.1,0.1 -0.3,0.1 -0.4,0.2 -0.8,-0.7 -1.5,-1.4 -2.2,-2.2 0.7,-0.3 1.5,-0.6 2.2,-0.9 0.8,0.8 1.6,1.5 2.5,2.1 z M 31.9,59 c -0.5,0.2 -0.9,0.4 -1.4,0.6 -0.6,-0.8 -1.1,-1.6 -1.6,-2.4 0.4,-0.1 0.7,-0.3 1.1,-0.4 0.6,0.7 1.2,1.4 1.9,2.2 z m -2.4,1 c -0.4,0.2 -0.7,0.3 -1.1,0.5 -0.4,-0.8 -0.9,-1.7 -1.3,-2.6 0.2,-0.1 0.5,-0.2 0.7,-0.3 0.6,0.7 1.1,1.5 1.7,2.4 z m 0.7,0.8 c 0.6,0.8 1.3,1.7 2.1,2.5 -0.6,0.2 -1.1,0.4 -1.7,0.6 C 30,63.1 29.5,62.2 29,61.3 29.3,61.2 29.7,61 30.2,60.8 Z m 2.8,3.4 c 0.7,0.8 1.5,1.6 2.3,2.3 0,0 -0.1,0 -0.1,0 -0.7,0.2 -1.5,0.5 -2.2,0.7 -0.6,-0.8 -1.2,-1.6 -1.8,-2.4 0.5,-0.2 1.1,-0.4 1.8,-0.6 z m 6,6.4 c 0.2,-0.1 0.5,-0.2 0.7,-0.3 1.2,0.9 2.5,1.9 3.9,2.8 -1,0.5 -2.1,0.9 -3.2,1.3 -1.2,-0.9 -2.4,-1.9 -3.6,-3 0.8,-0.3 1.5,-0.6 2.2,-0.8 z m 1.8,-0.7 c 0.9,-0.4 1.9,-0.7 2.8,-1.1 1.3,0.8 2.6,1.6 4,2.4 -0.9,0.5 -1.9,1 -2.8,1.4 -1.5,-0.9 -2.8,-1.8 -4,-2.7 z m 7.8,1.9 c 0.8,0.4 1.6,0.9 2.4,1.3 0.4,0.2 0.9,0.4 1.3,0.6 -1,0.6 -2,1.1 -3.1,1.6 -1.2,-0.7 -2.4,-1.4 -3.5,-2.1 0.9,-0.4 1.9,-0.9 2.9,-1.4 z m 2.8,0.4 c -0.6,-0.3 -1.2,-0.6 -1.8,-1 0.8,-0.5 1.6,-0.9 2.4,-1.4 l 0.7,-0.4 c 1.3,0.6 2.6,1.1 3.8,1.7 -1.1,0.7 -2.2,1.4 -3.3,2 -0.6,-0.3 -1.2,-0.6 -1.8,-0.9 z m 6.3,-0.7 c 1.1,0.4 2.1,0.8 3.2,1.2 -1.1,0.8 -2.2,1.5 -3.4,2.3 -1.1,-0.4 -2.1,-0.9 -3.1,-1.4 1.1,-0.6 2.2,-1.3 3.3,-2.1 z m 1,-0.6 c 1,-0.7 2,-1.4 3,-2.2 1,0.3 2,0.7 3.1,1 -0.9,0.8 -1.9,1.6 -2.9,2.4 -1.2,-0.5 -2.2,-0.8 -3.2,-1.2 z M 65.8,70 c 0.7,0.2 1.5,0.4 2.2,0.7 -0.8,0.9 -1.7,1.7 -2.7,2.6 -0.8,-0.3 -1.6,-0.5 -2.5,-0.8 1.1,-0.9 2.1,-1.7 3,-2.5 z m 0.9,-0.8 c 0.6,-0.6 1.2,-1.1 1.8,-1.7 0.6,0.2 1.2,0.5 1.8,0.7 -0.5,0.5 -0.9,1.1 -1.4,1.6 -0.8,-0.2 -1.5,-0.4 -2.2,-0.6 z m -1.1,-0.3 c -1,-0.3 -2,-0.6 -3,-0.9 0.7,-0.6 1.3,-1.1 2,-1.7 1,0.3 1.9,0.5 2.8,0.9 -0.6,0.5 -1.2,1.1 -1.8,1.7 z m -4.1,-1.4 c -1.2,-0.4 -2.4,-0.8 -3.5,-1.3 0.6,-0.3 1.1,-0.7 1.6,-1 1.3,0.2 2.6,0.4 3.8,0.7 -0.6,0.6 -1.3,1.1 -1.9,1.6 z m -4.7,-1.7 c -0.8,-0.3 -1.6,-0.7 -2.4,-1.1 1.2,0.1 2.5,0.2 3.7,0.3 -0.5,0.3 -0.9,0.5 -1.3,0.8 z M 55,63.7 c 1,-0.5 2,-1.1 2.9,-1.7 1,0.4 2,0.7 3,1.1 -0.5,0.3 -1,0.7 -1.5,1 C 58,63.9 56.5,63.8 55,63.7 Z m 4,-2.3 c 1.1,-0.7 2.2,-1.5 3.3,-2.3 0.9,0.3 1.8,0.6 2.7,0.9 -1,0.9 -2,1.7 -3.1,2.4 -1,-0.3 -1.9,-0.7 -2.9,-1 z m -1.2,-0.5 c -1.1,-0.4 -2.2,-0.9 -3.3,-1.3 1.2,-0.7 2.3,-1.4 3.3,-2.2 1.1,0.4 2.2,0.8 3.3,1.2 -1,0.9 -2.1,1.6 -3.3,2.3 z m 1.1,-4.1 c 1.1,-0.8 2.2,-1.7 3.3,-2.6 1,0.4 2,0.8 3,1.2 -1,0.9 -2,1.7 -3,2.6 -1.2,-0.5 -2.3,-0.8 -3.3,-1.2 z m -1.1,-0.4 c -1.2,-0.5 -2.4,-0.9 -3.5,-1.4 1.3,-0.8 2.6,-1.6 3.8,-2.4 1,0.4 2,0.8 3.1,1.2 -1.2,0.9 -2.3,1.7 -3.4,2.6 z M 59,51.9 c 0.8,-0.6 1.6,-1.2 2.4,-1.8 0.9,0.4 1.8,0.7 2.8,1 -0.7,0.7 -1.4,1.3 -2.2,1.9 -1,-0.3 -2,-0.7 -3,-1.1 z M 61.2,49 c -1.1,-0.4 -2.2,-0.9 -3.3,-1.3 1.2,-0.8 2.4,-1.6 3.6,-2.6 0.9,0.4 1.9,0.7 2.9,1.1 -0.9,0.9 -2,1.9 -3.2,2.8 z m -4.3,-1.9 c -1.1,-0.5 -2.1,-1 -3.2,-1.5 1.2,-0.8 2.4,-1.5 3.6,-2.3 1,0.4 2.1,0.8 3.2,1.3 -1.2,0.9 -2.4,1.7 -3.6,2.5 z m 1.4,-4.5 c 0.9,-0.7 1.9,-1.3 2.8,-2 1,0.4 2,0.8 3,1.2 -0.9,0.7 -1.7,1.4 -2.6,2.1 -1.2,-0.4 -2.3,-0.9 -3.2,-1.3 z m -1.1,-0.4 c -1.2,-0.5 -2.4,-1 -3.5,-1.5 1.1,-0.6 2.1,-1.3 3.1,-1.9 1.1,0.5 2.1,1 3.2,1.4 -1,0.6 -1.9,1.3 -2.8,2 z m -4.6,-2 c -1.2,-0.6 -2.2,-1.1 -3.3,-1.7 0.7,-0.3 1.3,-0.7 2,-1 0.4,-0.2 0.9,-0.5 1.3,-0.7 1.1,0.5 2.1,1 3.1,1.5 -1,0.6 -2,1.2 -3.1,1.9 z m -1.1,0.6 c -0.3,0.2 -0.5,0.3 -0.8,0.5 -0.9,0.5 -1.8,1 -2.7,1.5 -1.1,-0.7 -2.2,-1.3 -3.3,-2 1.2,-0.5 2.3,-1.1 3.4,-1.7 1.2,0.5 2.3,1.1 3.4,1.7 z M 43.8,40 c -1,-0.7 -2,-1.4 -3,-2.1 1,-0.5 2.1,-1 3.1,-1.5 1.1,0.7 2.2,1.4 3.3,2 -1.1,0.6 -2.3,1.1 -3.4,1.6 z m -1.1,0.5 c -0.9,0.4 -1.8,0.9 -2.8,1.3 -1,-0.7 -2,-1.4 -2.9,-2.1 0.9,-0.4 1.8,-0.8 2.7,-1.3 1,0.7 2,1.4 3,2.1 z m 1,0.7 c 1.1,0.7 2.2,1.4 3.3,2.1 -0.9,0.5 -1.8,0.9 -2.7,1.4 -1.2,-0.7 -2.3,-1.4 -3.4,-2.1 1,-0.6 1.9,-1 2.8,-1.4 z m -0.5,3.9 c -1.1,0.5 -2.3,1.1 -3.4,1.6 -1,-0.8 -2,-1.6 -2.9,-2.5 1,-0.4 1.9,-0.9 2.9,-1.3 1.1,0.8 2.2,1.5 3.4,2.2 z m 1.1,0.7 c 1.2,0.7 2.4,1.4 3.7,2.1 -1.3,0.7 -2.5,1.3 -3.8,1.9 -1.2,-0.8 -2.3,-1.5 -3.4,-2.3 1.1,-0.6 2.3,-1.2 3.5,-1.7 z m -1.2,4.4 c -1,0.4 -1.9,0.9 -2.8,1.3 -1.1,-0.8 -2.1,-1.6 -3.1,-2.5 0.8,-0.4 1.7,-0.7 2.5,-1.1 1.1,0.8 2.2,1.6 3.4,2.3 z m -3.9,1.7 c -0.9,0.4 -1.8,0.8 -2.7,1.1 -1,-0.9 -1.9,-1.7 -2.7,-2.6 0.8,-0.3 1.6,-0.7 2.4,-1 0.9,0.9 1.9,1.7 3,2.5 z m -3.8,1.6 c -0.7,0.3 -1.4,0.6 -2.1,0.8 -0.8,-0.9 -1.6,-1.8 -2.3,-2.7 0.6,-0.2 1.1,-0.5 1.7,-0.7 0.8,0.9 1.7,1.7 2.7,2.6 z m -3.2,1.2 c -0.7,0.3 -1.3,0.5 -1.9,0.8 -0.7,-0.9 -1.3,-1.8 -1.8,-2.8 0.5,-0.2 1,-0.4 1.6,-0.7 0.6,1 1.4,1.8 2.1,2.7 z m -2.9,1.2 c -0.3,0.1 -0.7,0.3 -1,0.4 -0.6,-1 -1,-1.9 -1.4,-2.8 0.2,-0.1 0.4,-0.2 0.7,-0.3 0.5,0.8 1.1,1.8 1.7,2.7 z m -1.9,0.7 C 27.2,56.7 27,56.8 26.8,56.9 26.4,56 26,55 25.6,54 c 0.1,-0.1 0.2,-0.1 0.4,-0.2 0.4,0.9 0.9,1.9 1.4,2.8 z m -2,-0.4 c 0.1,0.4 0.3,0.7 0.4,1.1 -0.1,0.1 -0.2,0.1 -0.4,0.2 0,-0.4 0,-0.8 0,-1.3 z m 0.1,5 c 0.1,0.2 0.2,0.4 0.2,0.6 -0.1,0 -0.1,0.1 -0.2,0.1 0,-0.2 0,-0.5 0,-0.7 z m 0.1,-2.7 c 0.2,-0.1 0.4,-0.2 0.6,-0.3 0.4,0.9 0.8,1.8 1.3,2.6 -0.3,0.2 -0.6,0.3 -1,0.5 -0.3,-0.9 -0.6,-1.9 -0.9,-2.8 z m 2.4,3.2 c 0.5,0.9 1,1.8 1.6,2.6 -0.5,0.2 -0.9,0.4 -1.4,0.6 -0.4,-0.9 -0.8,-1.7 -1.2,-2.6 0.3,-0.2 0.7,-0.4 1,-0.6 z m 2.2,3.5 c 0.6,0.8 1.2,1.6 1.8,2.4 -0.6,0.2 -1.2,0.4 -1.8,0.6 -0.5,-0.8 -1,-1.6 -1.5,-2.4 0.5,-0.2 1,-0.4 1.5,-0.6 z m 2.6,3.5 c 0.7,0.8 1.5,1.6 2.2,2.4 -0.7,0.3 -1.4,0.6 -2.1,0.8 -0.6,-0.7 -1.2,-1.5 -1.8,-2.3 0.5,-0.3 1.1,-0.6 1.7,-0.9 z m 7.5,6.9 c 1.1,0.8 2.2,1.6 3.3,2.3 -1,0.4 -2,0.8 -3,1.1 -1,-0.8 -2,-1.6 -3,-2.4 0.9,-0.3 1.8,-0.7 2.7,-1 z m 1.1,-0.5 c 1.1,-0.4 2.1,-0.9 3.2,-1.4 1.1,0.7 2.2,1.4 3.5,2.1 -1.1,0.5 -2.2,1 -3.3,1.5 -1.2,-0.6 -2.3,-1.4 -3.4,-2.2 z m 7.7,1.4 c 0.6,0.3 1.2,0.7 1.8,1 0.4,0.2 0.8,0.4 1.3,0.7 -1.1,0.6 -2.1,1.1 -3.3,1.7 -1,-0.6 -2.1,-1.1 -3.1,-1.8 1.1,-0.6 2.2,-1.1 3.3,-1.6 z m 2.2,0.1 c -0.4,-0.2 -0.8,-0.4 -1.2,-0.6 1.1,-0.5 2.1,-1.1 3.1,-1.7 1,0.5 2.1,1 3.1,1.4 -1,0.6 -2.1,1.3 -3.2,1.9 -0.5,-0.4 -1.1,-0.7 -1.8,-1 z m 6.3,-0.5 c 0.9,0.4 1.9,0.8 2.9,1.1 -1,0.7 -2,1.5 -3.1,2.2 -1,-0.4 -2,-0.9 -3,-1.4 1,-0.6 2.1,-1.2 3.2,-1.9 z m 1,-0.6 c 1.2,-0.8 2.3,-1.5 3.4,-2.3 0.9,0.3 1.7,0.6 2.6,0.9 -1,0.9 -2,1.7 -3.1,2.6 -1.1,-0.5 -2,-0.9 -2.9,-1.2 z m 7,-1.2 c 0.9,0.3 1.8,0.6 2.7,0.8 -0.9,0.9 -1.8,1.8 -2.8,2.8 -1,-0.3 -2,-0.7 -3,-1 1.1,-0.8 2.1,-1.7 3.1,-2.6 z m 0.9,-0.7 c 0.9,-0.9 1.8,-1.7 2.7,-2.6 0.7,0.2 1.5,0.4 2.3,0.6 -0.7,0.9 -1.5,1.9 -2.3,2.8 -1,-0.3 -1.8,-0.6 -2.7,-0.8 z m 5.9,-1.8 c 0.5,0.1 0.9,0.3 1.4,0.4 -0.6,1 -1.2,2 -1.9,3 -0.6,-0.2 -1.2,-0.3 -1.8,-0.5 0.9,-1 1.7,-1.9 2.3,-2.9 z M 72,70.7 c -0.7,-0.2 -1.4,-0.4 -2.1,-0.6 0.4,-0.5 0.9,-1 1.3,-1.5 0.6,0.3 1.1,0.6 1.6,0.9 -0.2,0.4 -0.5,0.8 -0.8,1.2 z m -0.2,-2.8 c 0.2,-0.3 0.5,-0.6 0.7,-0.9 0.5,0.2 1,0.4 1.5,0.5 -0.2,0.4 -0.5,0.8 -0.7,1.2 -0.4,-0.3 -0.9,-0.6 -1.5,-0.8 z m -0.9,-0.5 c -0.5,-0.3 -1.1,-0.5 -1.7,-0.7 0.2,-0.2 0.4,-0.4 0.6,-0.6 0.6,0.2 1.2,0.4 1.8,0.6 -0.3,0.2 -0.5,0.5 -0.7,0.7 z m -2.7,-1.1 c -0.9,-0.3 -1.8,-0.6 -2.7,-0.9 0.2,-0.2 0.4,-0.4 0.6,-0.6 0.3,0.1 0.6,0.2 0.9,0.3 0.6,0.2 1.1,0.4 1.7,0.6 -0.2,0.2 -0.3,0.4 -0.5,0.6 z m -3.8,-1.2 c -1.1,-0.3 -2.3,-0.5 -3.5,-0.7 0.4,-0.3 0.8,-0.6 1.2,-0.8 1,0.3 1.9,0.7 2.9,1 -0.2,0.1 -0.4,0.3 -0.6,0.5 z m 1.5,-5.9 c -0.9,-0.3 -1.8,-0.6 -2.6,-0.9 1,-0.8 2,-1.7 2.9,-2.5 0.8,0.3 1.5,0.6 2.3,0.9 -0.9,0.9 -1.7,1.7 -2.6,2.5 z m 0,-4.6 c -1,-0.4 -2,-0.8 -2.9,-1.1 0.7,-0.6 1.4,-1.3 2.1,-2 0.9,0.3 1.9,0.7 2.8,1 -0.6,0.7 -1.3,1.4 -2,2.1 z M 66,50.7 c 1,-1 1.9,-2 2.8,-3 0.8,0.3 1.6,0.6 2.4,0.9 -0.8,1.1 -1.6,2.1 -2.4,3.1 -1,-0.3 -1.9,-0.6 -2.8,-1 z m 3.5,-3.8 c 0.7,-0.8 1.3,-1.6 1.9,-2.5 0.7,0.2 1.3,0.5 2,0.7 -0.5,0.9 -1.1,1.7 -1.7,2.6 -0.8,-0.2 -1.5,-0.5 -2.2,-0.8 z m -1,-0.3 c -0.7,-0.3 -1.4,-0.5 -2.1,-0.8 0.8,-0.7 1.5,-1.5 2.2,-2.3 0.6,0.2 1.2,0.4 1.8,0.6 -0.6,0.9 -1.2,1.7 -1.9,2.5 z m -3.2,-1.2 c -1,-0.4 -1.9,-0.7 -2.8,-1.1 0.9,-0.7 1.7,-1.4 2.6,-2.1 0.8,0.3 1.7,0.6 2.5,0.9 -0.8,0.8 -1.5,1.6 -2.3,2.3 z m 0.6,-4 c 0.9,-0.8 1.9,-1.7 2.8,-2.7 0.7,0.3 1.4,0.5 2,0.7 -0.8,1 -1.6,1.9 -2.4,2.8 C 67.5,42 66.7,41.7 65.9,41.4 Z M 64.8,41 c -1,-0.4 -2,-0.8 -2.9,-1.1 1,-0.8 2,-1.6 3,-2.5 1,0.4 1.9,0.7 2.7,1 -0.9,1 -1.8,1.8 -2.8,2.6 z m 1,-4.3 c 1,-0.9 2,-1.8 3,-2.8 0.8,0.3 1.5,0.6 2.3,0.9 -0.9,1 -1.8,1.9 -2.6,2.8 -0.9,-0.3 -1.8,-0.6 -2.7,-0.9 z m -1,-0.4 C 63.9,36 63,35.6 62,35.2 c 1.2,-0.9 2.3,-1.8 3.4,-2.6 0.8,0.3 1.6,0.6 2.4,0.9 -1,0.9 -2,1.9 -3,2.8 z M 63.9,37 c -1,0.8 -2,1.6 -3,2.5 -1,-0.4 -2.1,-0.9 -3.1,-1.4 1.1,-0.7 2.2,-1.5 3.3,-2.2 0.9,0.4 1.9,0.8 2.8,1.1 z m -7.2,0.6 c -1,-0.5 -2,-0.9 -3,-1.5 1.1,-0.6 2.3,-1.3 3.4,-1.9 1,0.4 2,0.8 2.9,1.2 -1.1,0.7 -2.2,1.5 -3.3,2.2 z m -5.2,-1.4 c -0.2,0.1 -0.5,0.2 -0.7,0.4 -0.8,0.4 -1.7,0.9 -2.6,1.3 -1.1,-0.6 -2.2,-1.3 -3.3,-2 1,-0.5 2.1,-1 3,-1.6 1.3,0.7 2.5,1.3 3.6,1.9 z m -7.5,-1 c -0.9,-0.6 -1.9,-1.3 -2.9,-2 0.9,-0.4 1.8,-0.9 2.6,-1.3 1.1,0.6 2.2,1.2 3.2,1.8 -0.9,0.5 -1.9,1 -2.9,1.5 z m -1.1,0.5 c -1,0.5 -2,1 -3.1,1.5 -0.9,-0.7 -1.8,-1.5 -2.7,-2.2 1,-0.4 1.9,-0.9 2.9,-1.3 1.1,0.7 2,1.4 2.9,2 z m -4,2 c -0.9,0.4 -1.8,0.9 -2.7,1.3 -1,-0.8 -1.9,-1.6 -2.6,-2.4 0.2,-0.1 0.4,-0.2 0.6,-0.3 0.6,-0.3 1.3,-0.6 1.9,-0.9 0.9,0.9 1.8,1.6 2.8,2.3 z m -3,2.6 c 0.1,0 0.1,-0.1 0.2,-0.1 0.9,0.7 1.8,1.4 2.8,2.1 -0.9,0.4 -1.8,0.8 -2.7,1.2 -0.8,-0.8 -1.5,-1.5 -2.2,-2.4 0.6,-0.2 1.2,-0.5 1.9,-0.8 z m -0.7,3.6 c -0.7,0.3 -1.4,0.6 -2.1,0.9 -0.7,-0.8 -1.4,-1.6 -2,-2.5 0.6,-0.3 1.3,-0.5 1.9,-0.8 0.7,0.9 1.4,1.7 2.2,2.4 z m 0.7,0.8 c 0.9,0.9 1.9,1.7 2.8,2.5 -0.8,0.4 -1.6,0.7 -2.4,1.1 -0.9,-0.8 -1.8,-1.7 -2.6,-2.6 0.8,-0.4 1.5,-0.7 2.2,-1 z m -0.5,4 c -0.8,0.3 -1.6,0.7 -2.4,1 -0.8,-0.9 -1.6,-1.8 -2.2,-2.7 0.2,-0.1 0.5,-0.2 0.7,-0.3 0.4,-0.2 0.9,-0.4 1.3,-0.6 0.8,0.9 1.7,1.7 2.6,2.6 z M 32,50.1 c -0.5,0.2 -1.1,0.5 -1.6,0.7 -0.7,-0.9 -1.3,-1.9 -1.9,-2.9 0.4,-0.2 0.9,-0.4 1.3,-0.6 0.7,1 1.4,1.9 2.2,2.8 z m -2.6,1.1 c -0.5,0.2 -1,0.4 -1.5,0.6 -0.6,-1 -1,-2 -1.5,-3 0.3,-0.2 0.7,-0.3 1,-0.5 0.7,1 1.3,2 2,2.9 z M 27,52.3 c -0.2,0.1 -0.4,0.2 -0.5,0.2 -0.3,-0.8 -0.6,-1.7 -0.9,-2.4 v 0 L 25.5,50 c 0,-0.1 -0.1,-0.3 0,-0.7 0,0 0,0 0,0 0.5,0.9 1,2 1.5,3 z m -1.5,13.8 c 0,-0.2 -0.1,-0.6 -0.1,-1.1 0.1,0.3 0.2,0.6 0.4,0.9 -0.1,0.1 -0.2,0.1 -0.3,0.2 z m 0.3,-3.3 c 0.1,0 0.2,-0.1 0.3,-0.1 0.4,0.9 0.8,1.7 1.2,2.6 -0.2,0.1 -0.4,0.2 -0.5,0.2 -0.4,-0.8 -0.7,-1.7 -1,-2.7 z m 1.9,3.4 c 0.4,0.8 0.9,1.6 1.4,2.4 -0.3,0.1 -0.6,0.2 -0.9,0.3 -0.4,-0.8 -0.7,-1.6 -1.1,-2.4 0.2,-0.1 0.4,-0.2 0.6,-0.3 z m 1.7,3.3 c -0.2,0.1 -0.4,0.3 -0.6,0.5 0,-0.1 -0.1,-0.1 -0.1,-0.2 0.2,-0.1 0.4,-0.2 0.7,-0.3 z m 0.8,0.6 c 0.5,0.7 1.1,1.4 1.7,2.1 -0.5,0.2 -1,0.4 -1.4,0.6 -0.4,-0.6 -0.8,-1.3 -1.2,-2 0.3,-0.2 0.6,-0.4 0.9,-0.7 z m -0.7,3.1 c -0.4,0.2 -0.9,0.4 -1.3,0.5 -0.2,-0.5 -0.5,-1 -0.7,-1.4 0.3,-0.3 0.6,-0.6 0.9,-0.9 0.4,0.7 0.7,1.3 1.1,1.8 z m 0.6,0.9 c 0.7,1.1 1.5,2.1 2.3,3.1 -0.6,0.2 -1.2,0.3 -1.9,0.5 -0.7,-1 -1.4,-2 -1.9,-2.9 0.5,-0.3 1,-0.5 1.5,-0.7 z m 3,3.9 c 0.8,0.9 1.6,1.8 2.5,2.6 -0.7,0.2 -1.4,0.4 -2.1,0.6 -0.8,-0.9 -1.6,-1.8 -2.3,-2.6 0.6,-0.3 1.3,-0.4 1.9,-0.6 z m 1.1,-0.3 c 0.8,-0.2 1.5,-0.5 2.3,-0.7 0.9,0.8 1.9,1.6 2.9,2.4 -0.9,0.3 -1.8,0.6 -2.7,0.9 -0.9,-0.9 -1.7,-1.7 -2.5,-2.6 z m 6.2,2.4 c 1,0.7 2,1.4 3.1,2.1 -0.9,0.4 -1.9,0.8 -2.9,1.2 -1,-0.8 -2,-1.6 -3,-2.4 0.9,-0.3 1.8,-0.6 2.8,-0.9 z m 1.1,-0.4 c 1,-0.4 2.1,-0.8 3.1,-1.2 1.1,0.6 2.1,1.2 3.1,1.8 -1,0.5 -2.1,1 -3.2,1.4 -1,-0.6 -2,-1.3 -3,-2 z m 7.3,1.2 c 0.7,0.4 1.4,0.7 2.1,1.1 0.4,0.2 0.9,0.4 1.3,0.6 -1,0.6 -2.1,1.2 -3.2,1.8 -1.2,-0.7 -2.3,-1.3 -3.4,-2 1.1,-0.5 2.2,-1 3.2,-1.5 z m 2.6,0.2 c -0.5,-0.2 -0.9,-0.5 -1.4,-0.7 1.1,-0.6 2.2,-1.1 3.3,-1.7 1,0.5 2.1,1 3.1,1.5 -1,0.6 -2,1.3 -3.1,1.9 -0.7,-0.4 -1.3,-0.7 -1.9,-1 z m 6,-0.5 c 1.1,0.5 2.2,0.9 3.3,1.3 -0.9,0.7 -1.9,1.4 -3,2.1 -1.1,-0.5 -2.3,-1 -3.4,-1.5 1.1,-0.6 2.1,-1.3 3.1,-1.9 z m 1,-0.7 c 1.1,-0.7 2.1,-1.5 3.1,-2.3 1,0.4 2.1,0.7 3.1,1.1 -0.9,0.8 -2,1.7 -3,2.5 -1,-0.4 -2.1,-0.8 -3.2,-1.3 z m 7.4,-0.8 c 0.7,0.2 1.5,0.5 2.3,0.7 -0.9,0.9 -1.9,1.8 -2.9,2.7 -0.8,-0.3 -1.6,-0.6 -2.4,-0.8 1,-0.9 2,-1.8 3,-2.6 z m 0.8,-0.8 c 1,-0.9 1.9,-1.9 2.8,-2.8 0.6,0.2 1.3,0.4 1.9,0.6 -0.8,1 -1.6,2 -2.5,2.9 -0.7,-0.3 -1.4,-0.5 -2.2,-0.7 z m 5.7,-2 c 0.5,0.1 1,0.3 1.5,0.4 -0.6,1 -1.3,2 -2,3 -0.7,-0.2 -1.3,-0.3 -2,-0.5 1,-0.9 1.8,-1.9 2.5,-2.9 z M 73,75.5 c 0.7,-0.9 1.3,-1.9 1.9,-3 0.4,0.1 0.7,0.2 1.1,0.3 -0.5,1.1 -1,2.1 -1.5,3.1 -0.6,-0.2 -1.1,-0.3 -1.5,-0.4 z m 3.6,-4.4 c -0.2,-0.2 -0.5,-0.4 -0.8,-0.7 0.3,-0.6 0.6,-1.3 0.9,-2 0.2,0.1 0.4,0.2 0.7,0.2 -0.2,0.9 -0.5,1.8 -0.8,2.5 z m -1.5,-1.2 c -0.3,-0.2 -0.6,-0.4 -0.9,-0.6 0.3,-0.5 0.6,-0.9 0.8,-1.4 0.3,0.1 0.5,0.2 0.8,0.3 -0.2,0.5 -0.5,1.1 -0.7,1.7 z m -0.5,-3.3 c -0.5,-0.2 -1,-0.3 -1.4,-0.5 0.7,-0.9 1.3,-1.8 1.8,-2.8 0.3,0.1 0.7,0.2 1,0.4 -0.4,1 -0.9,1.9 -1.4,2.9 z m -2.4,-0.8 c -0.6,-0.2 -1.1,-0.4 -1.7,-0.6 0.8,-0.9 1.5,-1.8 2.1,-2.7 0.5,0.2 0.9,0.3 1.4,0.5 -0.5,1 -1.2,1.9 -1.8,2.8 z m -2.7,-0.9 c -0.7,-0.2 -1.4,-0.5 -2.1,-0.7 -0.1,0 -0.3,-0.1 -0.4,-0.1 0.9,-0.9 1.7,-1.7 2.5,-2.6 0.7,0.2 1.4,0.5 2.2,0.8 -0.8,0.8 -1.5,1.7 -2.2,2.6 z m 0.6,-4.3 c 0.7,-0.8 1.4,-1.7 2,-2.5 0.6,0.2 1.1,0.5 1.7,0.7 -0.5,0.9 -1.1,1.7 -1.6,2.6 -0.7,-0.3 -1.4,-0.5 -2.1,-0.8 z m -1,-0.3 c -0.7,-0.2 -1.4,-0.5 -2.1,-0.7 0.8,-0.8 1.7,-1.6 2.5,-2.5 0.6,0.2 1.2,0.5 1.7,0.7 -0.6,0.8 -1.3,1.7 -2.1,2.5 z m 1.1,-4.1 c 0.6,-0.8 1.3,-1.6 1.9,-2.4 0.5,0.2 1,0.3 1.6,0.5 -0.6,0.9 -1.1,1.8 -1.8,2.6 -0.6,-0.2 -1.2,-0.4 -1.7,-0.7 z m -1,-0.3 c -0.7,-0.3 -1.5,-0.6 -2.2,-0.8 0.7,-0.7 1.4,-1.4 2,-2.2 0.7,0.2 1.3,0.4 2,0.7 -0.6,0.7 -1.2,1.5 -1.8,2.3 z M 69.7,52 c 0.8,-1 1.6,-2 2.4,-3.1 0.5,0.2 1,0.4 1.5,0.5 -0.6,1.1 -1.3,2.2 -2,3.1 C 71,52.4 70.3,52.2 69.7,52 Z m 3,-3.9 c 0.6,-0.9 1.1,-1.7 1.7,-2.6 0.4,0.1 0.7,0.2 1.1,0.4 -0.5,1 -0.9,1.9 -1.4,2.7 -0.5,-0.2 -0.9,-0.3 -1.4,-0.5 z m 2.2,-3.5 c 0.6,-1 1.1,-2 1.6,-3 0.3,0.1 0.5,0.2 0.7,0.3 -0.4,1.1 -0.9,2.1 -1.3,3.1 -0.4,-0.2 -0.7,-0.3 -1,-0.4 z m -1,-0.3 c -0.7,-0.2 -1.3,-0.4 -1.9,-0.7 0.7,-1 1.4,-2 2,-3 0.5,0.2 1,0.4 1.5,0.5 -0.5,1.2 -1,2.2 -1.6,3.2 z m -2.5,-5.6 c -0.6,-0.2 -1.2,-0.4 -1.9,-0.7 0.8,-0.9 1.7,-1.8 2.6,-2.8 0.5,0.2 1,0.4 1.4,0.6 -0.7,1 -1.4,2 -2.1,2.9 z m 1.3,-4.3 c 0.7,-0.8 1.4,-1.7 2.1,-2.6 0.3,0.2 0.6,0.3 0.9,0.5 -0.6,0.9 -1.1,1.8 -1.7,2.7 -0.4,-0.2 -0.8,-0.4 -1.3,-0.6 z m -1,-0.4 c -0.7,-0.3 -1.4,-0.6 -2.2,-0.9 0.8,-0.8 1.6,-1.7 2.4,-2.6 0.7,0.3 1.3,0.6 1.9,0.8 -0.6,1 -1.3,1.9 -2.1,2.7 z m -6.6,-2.6 c -0.3,-0.1 -0.6,-0.2 -1,-0.4 0.6,-0.1 1.2,-0.2 1.8,-0.4 -0.2,0.4 -0.5,0.6 -0.8,0.8 z m -8.2,1.7 c -0.8,-0.3 -1.5,-0.7 -2.3,-1 1.5,-0.1 2.9,-0.1 4.4,-0.3 -0.6,0.4 -1.3,0.8 -2.1,1.3 z M 48,33.2 c -0.8,-0.4 -1.6,-0.9 -2.4,-1.4 1.4,0.1 2.9,0.2 4.4,0.3 -0.7,0.3 -1.3,0.7 -2,1.1 z m -5.6,-1.7 c -0.7,0.4 -1.5,0.7 -2.2,1.1 -0.9,-0.6 -1.8,-1.3 -2.7,-2 1.5,0.3 3.1,0.6 4.9,0.9 z m -7.8,-1.7 c -0.7,0.3 -1.4,0.6 -2,0.9 -0.8,-0.8 -1.5,-1.6 -2.2,-2.4 1.3,0.6 2.7,1.1 4.2,1.5 z m 1,0.7 c 1.2,0.9 2.4,1.8 3.5,2.5 -0.9,0.4 -1.8,0.8 -2.8,1.3 -1,-0.9 -2,-1.9 -3,-2.8 0.8,-0.3 1.5,-0.7 2.3,-1 z m -0.3,4.3 c -0.5,0.2 -1,0.5 -1.5,0.7 -0.3,0.1 -0.7,0.3 -1,0.4 -1,-1 -1.8,-2 -2.5,-2.9 0.6,-0.3 1.3,-0.7 2.1,-1 0.9,0.9 1.9,1.9 2.9,2.8 z m -5.6,2.5 c -0.5,0.2 -1,0.5 -1.5,0.7 -0.5,-1 -1,-2 -1.5,-3 0.3,-0.2 0.7,-0.4 1,-0.6 0.7,1 1.3,2 2,2.9 z m 0.6,0.8 c 0.7,0.9 1.3,1.8 2,2.6 -0.6,0.3 -1.2,0.5 -1.8,0.8 -0.6,-0.9 -1.2,-1.8 -1.7,-2.7 0.4,-0.2 0.9,-0.4 1.5,-0.7 z M 29.5,42 c -0.5,0.2 -1,0.4 -1.4,0.6 -0.5,-0.9 -0.9,-1.8 -1.3,-2.8 0.3,-0.2 0.7,-0.3 1,-0.5 0.6,0.9 1.1,1.8 1.7,2.7 z m 0.6,0.8 c 0.6,0.8 1.3,1.7 2,2.5 -0.3,0.1 -0.7,0.3 -1,0.4 -0.3,0.1 -0.6,0.3 -0.9,0.4 -0.6,-0.9 -1.1,-1.7 -1.6,-2.6 0.5,-0.2 1,-0.5 1.5,-0.7 z m -0.9,3.7 c -0.4,0.2 -0.8,0.4 -1.2,0.5 -0.5,-0.9 -0.9,-1.8 -1.3,-2.7 0.3,-0.2 0.6,-0.3 1,-0.5 0.4,1 0.9,1.9 1.5,2.7 z m -2.2,1 c -0.3,0.1 -0.6,0.3 -0.9,0.4 -0.2,-0.5 -0.4,-1 -0.5,-1.5 -0.1,-0.3 -0.1,-1 0,-1.5 0.1,0 0.1,-0.1 0.2,-0.1 0.3,0.9 0.8,1.8 1.2,2.7 z m -1.5,22.4 c 0,-0.1 0,-0.1 0,-0.2 0,0.1 0,0.1 0,0.2 z m 0.3,-2.8 c 0.1,-0.1 0.3,-0.1 0.4,-0.2 0.3,0.8 0.7,1.6 1.1,2.4 -0.3,0.1 -0.5,0.2 -0.8,0.3 -0.3,-0.9 -0.5,-1.7 -0.7,-2.5 z m 1.9,3 c 0.1,0.2 0.2,0.3 0.2,0.5 -0.3,0.2 -0.6,0.5 -0.8,0.7 -0.1,-0.3 -0.2,-0.6 -0.3,-0.9 0.3,-0.1 0.6,-0.2 0.9,-0.3 z m 0,5 c 0.5,0.9 1.1,1.9 1.7,2.8 -0.5,0.1 -1,0.2 -1.5,0.3 -0.5,-0.9 -0.9,-1.7 -1.3,-2.7 0.5,-0.2 0.8,-0.3 1.1,-0.4 z m 2.4,3.7 c 0.6,0.9 1.4,1.7 2.2,2.6 -0.6,0.1 -1.1,0.3 -1.7,0.4 -0.8,-1 -1.5,-1.8 -2,-2.7 0.5,-0.1 1,-0.2 1.5,-0.3 z m 4.1,3.1 c 0.7,-0.2 1.5,-0.4 2.2,-0.6 1,0.9 2,1.7 3,2.5 -0.8,0.3 -1.5,0.6 -2.3,0.9 -1,-0.9 -2,-1.9 -2.9,-2.8 z m 6.2,2.7 c 1.2,0.8 2.3,1.6 3.5,2.4 -0.9,0.4 -1.8,0.8 -2.7,1.2 -1.2,-1 -2.2,-1.8 -3.2,-2.7 0.8,-0.3 1.6,-0.6 2.4,-0.9 z m 1.1,-0.5 c 1,-0.4 2,-0.8 3,-1.3 1.1,0.7 2.3,1.4 3.5,2.1 -1,0.5 -2,1 -3,1.5 -1.2,-0.7 -2.4,-1.4 -3.5,-2.3 z m 7.5,1.4 c 1.1,0.6 2.3,1.2 3.4,1.8 -1,0.6 -2.1,1.2 -3.2,1.8 C 48.1,88.5 47,87.8 45.9,87.1 47,86.6 48,86 49,85.5 Z m 1.1,-0.6 c 1.1,-0.6 2.2,-1.2 3.2,-1.8 1.1,0.5 2.3,1.1 3.4,1.5 -1,0.7 -2.1,1.3 -3.2,2 -1.2,-0.5 -2.3,-1.1 -3.4,-1.7 z m 7.7,0.2 c 0.9,0.4 1.8,0.7 2.7,1.1 -0.9,0.7 -1.9,1.5 -3,2.3 -1,-0.4 -2,-0.9 -3,-1.3 1.2,-0.7 2.3,-1.4 3.3,-2.1 z m 1,-0.6 c 1.1,-0.7 2,-1.4 3,-2.1 0.8,0.3 1.6,0.6 2.4,0.9 -0.9,0.8 -1.8,1.5 -2.8,2.3 -0.8,-0.4 -1.7,-0.8 -2.6,-1.1 z m 6.6,-0.9 c 0.8,0.3 1.7,0.6 2.6,0.8 -0.9,0.9 -1.8,1.8 -2.6,2.6 -0.9,-0.3 -1.9,-0.7 -2.8,-1 0.9,-0.9 1.9,-1.6 2.8,-2.4 z m 0.8,-0.8 c 1,-0.9 2,-1.8 2.9,-2.8 0.7,0.2 1.4,0.4 2.1,0.5 -0.8,1.1 -1.7,2 -2.5,3 -0.8,-0.2 -1.7,-0.4 -2.5,-0.7 z m 6.1,-1.9 c 0.5,0.1 1,0.2 1.5,0.4 -0.8,1.2 -1.5,2.3 -2.2,3.2 -0.6,-0.2 -1.2,-0.3 -1.8,-0.5 0.8,-1.1 1.7,-2.1 2.5,-3.1 z m 3.1,-4.8 c 0.6,-1 1.1,-2 1.5,-3.1 0.1,0 0.1,0 0.2,0.1 0.1,0.1 0.2,0.2 0.3,0.3 -0.3,1 -0.7,2 -1.1,2.9 -0.3,0 -0.6,-0.1 -0.9,-0.2 z M 78,71 c 0,0 0,0 0,0 v 0.1 0 c -0.1,0.4 -0.2,0.7 -0.2,1.1 0,0 0,0 -0.1,0 -0.1,-0.1 -0.2,-0.2 -0.3,-0.3 0.3,-0.7 0.5,-1.4 0.7,-2.1 0.1,0.4 0.1,0.9 -0.1,1.2 z m 0,-4.7 c -0.1,0.5 -0.2,0.9 -0.3,1.4 -0.2,-0.1 -0.4,-0.1 -0.6,-0.2 0.3,-0.9 0.7,-1.8 1,-2.7 0,0.6 0,1.2 -0.1,1.5 z M 76.3,62.8 C 76,62.7 75.7,62.6 75.5,62.5 76,61.7 76.4,60.8 76.8,60 c 0.2,0.1 0.3,0.1 0.5,0.2 -0.3,0.8 -0.6,1.7 -1,2.6 z m -1.8,-0.6 c -0.4,-0.2 -0.9,-0.3 -1.3,-0.5 0.6,-0.8 1.1,-1.7 1.6,-2.5 0.4,0.1 0.7,0.3 1.1,0.4 -0.4,0.9 -0.9,1.7 -1.4,2.6 z m 0.8,-3.9 c 0.5,-1 1,-2 1.5,-3.1 0.2,0.1 0.4,0.1 0.6,0.2 -0.3,1.1 -0.7,2.2 -1.2,3.3 -0.3,-0.1 -0.6,-0.3 -0.9,-0.4 z m -1,-0.4 c -0.5,-0.2 -1,-0.4 -1.6,-0.6 0.6,-0.9 1.2,-1.8 1.8,-2.7 0.4,0.1 0.8,0.2 1.2,0.4 -0.3,1 -0.8,1.9 -1.4,2.9 z m 0.8,-4.2 c 0.6,-1 1.1,-2 1.6,-3.1 0.2,0.1 0.4,0.1 0.6,0.2 C 77,51.9 76.6,53 76.2,54 75.8,53.9 75.5,53.8 75.1,53.7 Z m -1,-0.3 c -0.5,-0.2 -1,-0.3 -1.5,-0.5 0.7,-1 1.3,-2 1.9,-3.1 0.4,0.1 0.8,0.3 1.2,0.4 -0.4,1.1 -1,2.2 -1.6,3.2 z M 75,49 c 0.5,-0.9 0.9,-1.8 1.4,-2.8 0.3,0.1 0.6,0.2 0.9,0.3 -0.3,1 -0.7,1.9 -1.1,2.9 C 75.8,49.2 75.4,49.1 75,49 Z m 2.6,-3.4 c -0.3,-0.1 -0.5,-0.2 -0.8,-0.3 0.4,-0.9 0.8,-1.9 1.2,-2.9 0.1,0.6 0,1.5 0,1.8 v 0 c -0.1,0.4 -0.2,0.9 -0.4,1.4 z M 78,38 c 0.1,0.7 0.1,1.4 0,1.7 v 0 c -0.2,0.5 -0.3,0.9 -0.5,1.3 -0.2,-0.1 -0.4,-0.2 -0.7,-0.3 0.5,-0.9 0.9,-1.8 1.2,-2.7 z m -2.1,2.3 C 75.5,40.1 75,40 74.5,39.8 75,38.9 75.6,38 76.1,37.1 c 0.4,0.2 0.7,0.3 1,0.5 -0.3,0.9 -0.7,1.8 -1.2,2.7 z m -2.3,-0.8 c -0.4,-0.1 -0.8,-0.3 -1.2,-0.4 0.7,-0.9 1.3,-1.8 2,-2.8 0.3,0.1 0.6,0.3 0.9,0.4 -0.6,0.9 -1.1,1.8 -1.7,2.8 z m 1.3,-4.1 c 0.6,-0.8 1.1,-1.7 1.6,-2.6 0.2,0.1 0.3,0.2 0.5,0.3 -0.4,0.9 -0.9,1.8 -1.3,2.6 -0.2,0 -0.5,-0.2 -0.8,-0.3 z m 1.3,-3.9 c -0.2,-0.1 -0.5,-0.3 -0.8,-0.4 0.7,-0.8 1.3,-1.7 2,-2.6 0.2,0.1 0.3,0.2 0.4,0.2 -0.5,0.9 -1.1,1.9 -1.6,2.8 z M 31.7,31.2 c -0.7,0.3 -1.4,0.7 -1.9,1 -0.7,-1 -1.3,-2 -1.8,-2.9 0.4,-0.3 0.8,-0.6 1.2,-1 0.7,1 1.6,2 2.5,2.9 z m -6.2,0.7 c 0,-0.1 -0.1,-0.3 0,-0.7 0.1,-0.1 0.2,-0.2 0.4,-0.3 0.5,0.9 0.9,1.7 1.4,2.5 -0.3,0.2 -0.7,0.4 -0.9,0.6 -0.3,-0.7 -0.5,-1.3 -0.7,-2 v 0 0 c -0.1,0 -0.1,0 -0.2,-0.1 z m 0,2.8 c 0,-0.1 0,-0.1 0,0 0,-0.1 0,-0.1 0,0 0,-0.1 0,0 0,0 z m 0.1,1.7 c 0,-0.1 -0.1,-0.3 0,-0.6 0.1,-0.1 0.2,-0.2 0.4,-0.3 0.4,1 0.9,1.9 1.4,2.9 -0.3,0.2 -0.6,0.3 -0.9,0.4 -0.3,-0.7 -0.6,-1.5 -0.8,-2.3 v 0 l -0.1,-0.1 c 0,0.1 0,0.1 0,0 z m -0.1,3 c 0,-0.1 0,-0.2 0,-0.3 0,0.1 0,0.2 0,0.3 z m 0.1,1.7 c 0,-0.1 -0.1,-0.3 0,-0.6 0.1,-0.1 0.3,-0.2 0.4,-0.2 0.4,0.9 0.8,1.8 1.2,2.7 -0.3,0.1 -0.6,0.3 -0.9,0.4 C 26,42.7 25.8,42 25.6,41.2 v 0 -0.1 c 0,0.1 0,0.1 0,0 z m 0,29.8 c 0.1,0 0.2,-0.1 0.3,-0.1 0.2,0.4 0.3,0.9 0.5,1.3 -0.2,0.2 -0.3,0.3 -0.4,0.5 -0.1,-0.5 -0.2,-1 -0.3,-1.6 v 0 c -0.1,0 -0.1,-0.1 -0.1,-0.1 z m 0.2,5 c 0.3,0.9 0.7,1.7 1.2,2.5 -0.3,0.1 -0.7,0.1 -1,0.2 -0.3,-0.8 -0.5,-1.7 -0.5,-2.6 0.1,0 0.2,-0.1 0.3,-0.1 z m 1.7,3.4 c 0.6,0.9 1.2,1.7 2,2.7 -0.4,0.1 -0.7,0.1 -1.1,0.2 -0.8,-0.8 -1.5,-1.7 -2,-2.7 0.4,0 0.7,-0.1 1.1,-0.2 z m 2.7,3.6 c 0.5,0.6 1.1,1.3 1.7,2 -1,-0.6 -1.8,-1.2 -2.6,-1.8 0.3,-0.1 0.6,-0.2 0.9,-0.2 z m 6.7,3 c 0.7,0.7 1.5,1.3 2.4,2 -1.4,-0.4 -2.8,-0.9 -4.1,-1.4 0.6,-0.2 1.2,-0.4 1.7,-0.6 z m 8,1.7 c 1,0.6 2.1,1.3 3.1,1.8 -1.9,-0.1 -3.7,-0.4 -5.4,-0.7 0.7,-0.4 1.5,-0.7 2.3,-1.1 z m 8.7,0.2 c 1,0.5 2,0.9 3.1,1.4 -0.1,0.1 -0.2,0.1 -0.3,0.2 -1.4,0.1 -2.9,0.2 -4.4,0.2 -0.5,0 -1.1,0 -1.6,0 1.1,-0.6 2.1,-1.2 3.2,-1.8 z m 5.4,1.3 c -0.1,0 -0.2,-0.1 -0.3,-0.1 1,-0.8 2,-1.6 3,-2.3 1,0.4 1.9,0.7 2.9,1.1 -0.1,0.1 -0.2,0.2 -0.3,0.3 -1.8,0.4 -3.5,0.7 -5.3,1 z m 7.4,-1.7 c 0,0 0,0 0,0 0.8,-0.8 1.7,-1.7 2.6,-2.7 0.6,0.2 1.2,0.3 1.8,0.5 -0.2,0.2 -0.3,0.4 -0.5,0.5 -1.2,0.7 -2.5,1.2 -3.9,1.7 z m 8.4,-5.9 c 0.3,0.1 0.7,0.1 1,0.2 -0.1,0.2 -0.2,0.4 -0.3,0.6 -0.8,0.7 -1.7,1.4 -2.7,2.1 0.6,-0.9 1.3,-1.8 2,-2.9 z m 3.5,-6.6 c -0.1,0.6 -0.3,1.3 -0.5,1.9 -0.2,0 -0.4,-0.1 -0.6,-0.2 0.3,-0.7 0.6,-1.4 0.8,-2.2 0.2,0.2 0.3,0.3 0.3,0.5 z M 78,57.3 v 0 c -0.2,0.6 -0.3,1.2 -0.5,1.9 -0.1,0 -0.2,-0.1 -0.4,-0.1 0.4,-0.8 0.7,-1.7 0.9,-2.5 0.1,0.3 0.1,0.6 0,0.7 z M 78,53 c 0,0 0,0 0,0 v 0 0.1 c -0.1,0.4 -0.2,0.9 -0.3,1.3 -0.2,0 -0.3,-0.1 -0.5,-0.2 0.3,-0.8 0.7,-1.7 0.9,-2.6 0.1,0.8 0,1.2 -0.1,1.4 z m 0,-4.5 c -0.1,0.5 -0.2,0.9 -0.4,1.4 -0.2,-0.1 -0.3,-0.1 -0.5,-0.2 0.4,-0.8 0.7,-1.6 1,-2.4 0,0.5 0,0.9 -0.1,1.2 z M 78,35 c -0.2,0.5 -0.4,1.1 -0.6,1.6 -0.2,-0.1 -0.5,-0.2 -0.8,-0.4 0.4,-0.8 0.9,-1.6 1.3,-2.5 0,0 0.1,0.1 0.1,0.1 0.1,0.6 0.1,1 0,1.2 z m 0.2,-7.3 c -0.1,0 -0.1,-0.1 -0.2,-0.1 0.1,-0.1 0.1,-0.2 0.2,-0.3 0,0.2 0,0.3 0,0.4 z m -1.1,-0.6 c -0.2,-0.1 -0.3,-0.2 -0.5,-0.2 0.4,-0.2 0.7,-0.3 1.1,-0.5 -0.3,0.2 -0.4,0.5 -0.6,0.7 z m -48.8,0.2 c 0.1,0.1 0.2,0.2 0.2,0.3 -0.4,0.3 -0.7,0.6 -1.1,0.8 -0.2,-0.4 -0.4,-0.8 -0.6,-1.2 -0.1,-0.3 -0.3,-0.6 -0.4,-0.8 0.6,0.3 1.2,0.6 1.9,0.9 z m 23.7,65 c -15.1,0 -27.3,-6.2 -27.3,-13.8 0,-0.1 0,-0.2 0,-0.4 2,7.1 13.5,12.5 27.3,12.5 13.8,0 25.2,-5.4 27.3,-12.5 0,0.1 0,0.2 0,0.4 0,7.6 -12.3,13.8 -27.3,13.8 z m 0,-62 C 35.3,30.3 21.2,25.2 21.2,19.1 21.2,13 35.3,7.9 52,7.9 68.7,7.9 82.8,13 82.8,19.1 82.8,25.2 68.7,30.3 52,30.3 Z"
       id="path1" /><path
       d="M 52,8.4 C 36.4,8.4 24.2,13 24.2,18.9 24.2,24.8 36.4,29.3 52,29.3 67.6,29.3 79.8,24.7 79.8,18.8 79.8,12.9 67.6,8.4 52,8.4 Z M 25.6,20.7 c 0.2,-0.5 0.5,-0.9 0.8,-1.4 0.2,0.1 0.4,0.1 0.6,0.2 -0.3,0.7 -0.5,1.5 -0.7,2.2 -0.3,-0.4 -0.6,-0.7 -0.7,-1 z m 39.5,-7.1 c 0.6,0.6 1.5,1.3 2.4,2.3 -1,0.3 -2.1,0.8 -3.3,1.2 -1,-0.9 -2,-1.7 -2.9,-2.5 1.2,-0.5 2.3,-0.9 3.2,-1.2 0.3,0.2 0.5,0.2 0.6,0.2 z m 6.3,1.8 c 0.6,0.7 1.3,1.8 2,2.9 -0.7,0.2 -1.5,0.5 -2.3,0.8 -0.9,-1 -1.8,-2 -2.6,-2.9 0.9,-0.3 1.8,-0.6 2.6,-0.9 0,0 0.2,0.1 0.3,0.1 z m -0.9,3.8 c -0.9,0.3 -1.9,0.7 -2.9,1 -1,-0.9 -2,-1.8 -3,-2.7 1.1,-0.4 2.2,-0.9 3.2,-1.2 1,0.9 1.9,1.9 2.7,2.9 z m -2.6,5.3 c -0.9,-0.8 -1.9,-1.7 -3,-2.6 0.9,-0.4 1.8,-0.7 2.7,-1 1.1,1 2,1.9 2.8,2.8 -0.9,0.2 -1.7,0.5 -2.5,0.8 z M 41.5,21.3 c 1.1,0.5 2.1,1 3.2,1.5 -1.1,0.7 -2.2,1.4 -3.3,2.2 -1,-0.5 -1.9,-0.9 -2.9,-1.3 1,-0.8 2,-1.6 3,-2.4 z m -3.4,2.2 c -0.9,-0.4 -1.8,-0.8 -2.7,-1.2 0.8,-0.8 1.7,-1.7 2.7,-2.6 1,0.4 2,0.9 3,1.3 -1.1,0.9 -2.1,1.7 -3,2.5 z M 41.9,21 c 1.1,-0.8 2.1,-1.6 3.2,-2.3 1.1,0.6 2.3,1.1 3.5,1.8 -1.1,0.7 -2.3,1.4 -3.4,2.1 C 44.1,22 43,21.5 41.9,21 Z m 3.3,2.1 c 1.1,0.6 2.2,1.1 3.3,1.7 -1.2,0.7 -2.3,1.4 -3.5,2.1 -1,-0.5 -2,-1.1 -3.1,-1.6 1.1,-0.7 2.2,-1.5 3.3,-2.2 z m 0.5,-0.3 c 1.2,-0.7 2.3,-1.5 3.4,-2.1 1.1,0.6 2.3,1.2 3.4,1.9 -1.1,0.6 -2.3,1.3 -3.5,1.9 -1,-0.6 -2.2,-1.1 -3.3,-1.7 z m 4,-2.4 c 1.1,-0.7 2.3,-1.3 3.3,-1.8 1.1,0.7 2.3,1.4 3.4,2.1 -1.1,0.5 -2.2,1.1 -3.3,1.7 -1.1,-0.7 -2.3,-1.4 -3.4,-2 z m 7.2,0.6 c 1.2,0.8 2.3,1.5 3.3,2.3 -1.1,0.5 -2.2,0.9 -3.3,1.4 -1.1,-0.7 -2.2,-1.4 -3.3,-2.1 1.1,-0.5 2.2,-1.1 3.3,-1.6 z m 7,0.7 c -1.1,0.4 -2.1,0.9 -3.2,1.3 -1,-0.7 -2.1,-1.5 -3.3,-2.3 1.1,-0.5 2.2,-1 3.3,-1.5 1.1,0.8 2.2,1.7 3.2,2.5 z M 61.2,19 c 1,-0.4 2,-0.8 2.9,-1.2 1,0.9 2,1.8 3,2.7 -0.9,0.3 -1.8,0.7 -2.7,1 -0.9,-0.8 -2,-1.7 -3.2,-2.5 z m -0.6,4.6 c 1.2,0.9 2.3,1.7 3.2,2.5 -1,0.4 -2.1,0.9 -3.1,1.3 -1.1,-0.8 -2.2,-1.6 -3.3,-2.4 1.1,-0.5 2.2,-1 3.2,-1.4 z m 0.6,-0.2 c 1.1,-0.5 2.1,-0.9 3.2,-1.3 1.1,0.9 2.1,1.8 3,2.6 -1,0.4 -2,0.8 -3,1.2 -1,-0.8 -2,-1.7 -3.2,-2.5 z m 6.9,-2.8 c 1,-0.4 1.9,-0.7 2.8,-1 0.8,1 1.6,2 2.3,3 -0.8,0.2 -1.6,0.5 -2.3,0.8 -0.8,-0.8 -1.7,-1.8 -2.8,-2.8 z m -4.4,-3.2 c -0.9,0.4 -1.9,0.8 -3,1.2 -1.1,-0.8 -2.2,-1.5 -3.3,-2.3 1.2,-0.5 2.3,-1 3.3,-1.4 1,0.8 2,1.6 3,2.5 z m -3.5,1.5 c -1.1,0.5 -2.2,1 -3.3,1.5 -1.1,-0.7 -2.2,-1.4 -3.4,-2.1 1.2,-0.6 2.3,-1.2 3.4,-1.7 1.2,0.7 2.3,1.5 3.3,2.3 z M 53,18 c -1.2,-0.7 -2.4,-1.4 -3.5,-2 1.1,-0.7 2.3,-1.3 3.5,-1.9 1.1,0.7 2.3,1.4 3.5,2.2 -1.1,0.5 -2.3,1.1 -3.5,1.7 z m -0.5,0.3 c -1.1,0.6 -2.2,1.2 -3.4,1.9 -1.2,-0.6 -2.3,-1.2 -3.5,-1.8 1.1,-0.7 2.2,-1.4 3.3,-2.1 1.3,0.6 2.4,1.3 3.6,2 z M 45.1,18.1 C 44,17.5 42.9,17 41.8,16.5 c 1.1,-0.8 2.1,-1.6 3.2,-2.3 1.1,0.5 2.3,1.1 3.5,1.8 -1.2,0.6 -2.3,1.3 -3.4,2.1 z m -0.4,0.3 c -1.1,0.7 -2.2,1.5 -3.2,2.4 -1,-0.5 -2,-0.9 -3,-1.4 1,-0.9 2,-1.7 3,-2.5 0.9,0.4 2,1 3.2,1.5 z m -6.8,0.8 C 37,18.8 36,18.4 35.2,18 c 0.9,-0.9 1.8,-1.9 2.7,-2.7 0.9,0.4 1.9,0.8 3,1.3 -1,0.8 -2,1.7 -3,2.6 z m -0.4,0.3 c -0.9,0.9 -1.8,1.7 -2.7,2.6 -0.8,-0.3 -1.6,-0.7 -2.3,-1 0.7,-0.9 1.5,-1.8 2.3,-2.7 0.9,0.4 1.8,0.7 2.7,1.1 z m -5.4,1.4 c -0.7,-0.3 -1.4,-0.6 -2.1,-0.8 0.6,-0.9 1.3,-1.9 1.9,-2.9 0.7,0.3 1.6,0.6 2.5,1 -0.9,0.9 -1.6,1.8 -2.3,2.7 z m -0.4,0.4 c -0.8,1 -1.5,2 -2,2.8 -0.6,-0.3 -1.1,-0.6 -1.5,-0.9 0.3,-0.7 0.9,-1.7 1.5,-2.7 0.6,0.3 1.3,0.5 2,0.8 z m 0.5,0.2 c 0.7,0.3 1.5,0.6 2.3,1 -0.9,0.9 -1.7,1.9 -2.5,2.7 -0.7,-0.3 -1.3,-0.5 -1.9,-0.8 0.6,-0.9 1.3,-1.8 2.1,-2.9 z m 2.8,1.2 c 0.9,0.4 1.8,0.8 2.7,1.2 -0.9,0.8 -1.7,1.5 -2.6,2.4 -0.9,-0.3 -1.8,-0.5 -2.6,-0.8 0.7,-1 1.6,-1.9 2.5,-2.8 z m 3.1,1.4 c 0.9,0.4 1.9,0.9 2.8,1.3 -0.8,0.5 -1.5,1.1 -2.3,1.7 -1.1,-0.2 -2.1,-0.5 -3,-0.7 0.9,-0.8 1.7,-1.6 2.5,-2.3 z m 3.4,1.6 c 1,0.5 2.1,1 3.1,1.6 -0.4,0.2 -0.7,0.5 -1.1,0.7 -1.4,-0.2 -2.8,-0.4 -4.2,-0.7 0.7,-0.6 1.5,-1.1 2.2,-1.6 z m 3.6,1.8 c 0.4,0.2 0.9,0.5 1.3,0.7 -0.7,-0.1 -1.4,-0.1 -2.1,-0.2 0.2,-0.2 0.5,-0.3 0.8,-0.5 z m 0.5,-0.3 c 1.2,-0.7 2.3,-1.4 3.5,-2.1 1.1,0.6 2.2,1.2 3.2,1.8 -1,0.5 -1.9,1 -2.8,1.5 -0.7,0 -1.3,-0.1 -1.9,-0.1 -0.7,-0.4 -1.4,-0.8 -2,-1.1 z m 4,-2.4 c 1.2,-0.7 2.3,-1.3 3.5,-1.9 1.1,0.7 2.2,1.3 3.3,2 -1.2,0.6 -2.4,1.1 -3.6,1.7 -1,-0.6 -2.1,-1.2 -3.2,-1.8 z m 7.3,0.4 c 1.2,0.8 2.3,1.6 3.4,2.4 -0.3,0.1 -0.6,0.3 -0.9,0.4 -1.2,0.1 -2.5,0.2 -3.7,0.3 -0.7,-0.5 -1.5,-0.9 -2.2,-1.4 1,-0.5 2.2,-1.1 3.4,-1.7 z m 4.3,2.5 c 1,-0.4 2.1,-0.9 3.1,-1.3 0.3,0.3 0.6,0.5 0.8,0.7 -1.3,0.3 -2.5,0.5 -3.9,0.6 0,0.1 0,0.1 0,0 z m 3.6,-1.5 c 1,-0.4 2,-0.8 3,-1.2 0.4,0.4 0.8,0.8 1.1,1.2 -1,0.3 -2.1,0.6 -3.2,0.8 -0.3,-0.2 -0.6,-0.5 -0.9,-0.8 z m 3.5,-1.3 c 0.8,-0.3 1.6,-0.6 2.4,-0.9 0.4,0.5 0.8,0.9 1,1.3 -0.7,0.3 -1.5,0.6 -2.4,0.8 -0.2,-0.4 -0.6,-0.8 -1,-1.2 z m 2.9,-1.1 c 0.8,-0.3 1.5,-0.5 2.3,-0.7 0.2,0.4 0.5,0.7 0.7,1.1 -0.6,0.3 -1.2,0.6 -1.9,0.9 C 72,24.7 71.6,24.3 71.2,23.8 Z M 74,22.9 c 0.6,-0.2 1.2,-0.4 1.8,-0.5 0.1,0.2 0.2,0.4 0.3,0.6 -0.5,0.3 -1,0.6 -1.5,0.9 -0.2,-0.3 -0.4,-0.6 -0.6,-1 z m -0.3,-0.4 c -0.7,-1 -1.5,-2 -2.3,-3 0.8,-0.3 1.5,-0.5 2.2,-0.7 0.7,1.1 1.4,2.3 1.9,3.2 -0.5,0.1 -1.2,0.3 -1.8,0.5 z m 0.4,-3.9 c 0.7,-0.2 1.3,-0.4 1.9,-0.6 0.6,1.1 1.1,2.5 1.4,3.4 -0.5,0.1 -0.9,0.3 -1.4,0.4 -0.5,-0.9 -1.1,-2.1 -1.9,-3.2 z m 3.9,2.7 c 0,0 0,0 0,0 -0.3,-0.7 -0.7,-1.8 -1.2,-2.8 0.8,0.7 1.3,1.4 1.6,2.2 -0.1,0.2 -0.2,0.4 -0.4,0.6 z m -2.3,-3.7 c -0.6,0.2 -1.2,0.3 -1.8,0.5 -0.6,-0.9 -1.1,-1.7 -1.6,-2.4 1.3,0.6 2.4,1.2 3.4,1.9 z M 68,15.8 c -0.7,-0.7 -1.4,-1.4 -1.9,-1.9 1.5,0.3 2.9,0.7 4.2,1.2 -0.6,0.1 -1.4,0.4 -2.3,0.7 z m -7.1,-1.4 c -0.8,-0.6 -1.5,-1.2 -2.1,-1.7 1.7,0.2 3.3,0.4 4.8,0.6 -0.8,0.3 -1.7,0.7 -2.7,1.1 z m -3.1,-1.8 c 0.7,0.5 1.6,1.2 2.6,2 -1,0.4 -2.1,0.9 -3.3,1.4 -1.2,-0.8 -2.4,-1.6 -3.5,-2.2 0.9,-0.4 1.8,-0.9 2.8,-1.3 0.4,0 0.9,0.1 1.4,0.1 z M 53,13.5 c -0.7,-0.4 -1.3,-0.8 -1.9,-1.1 0.3,0 0.6,0 0.9,0 1.1,0 2.2,0 3.2,0.1 -0.7,0.3 -1.5,0.6 -2.2,1 z m -2.9,-1.1 c 0.8,0.4 1.6,0.8 2.4,1.3 -1.2,0.6 -2.4,1.2 -3.5,1.9 -1.2,-0.7 -2.4,-1.3 -3.5,-1.8 0.7,-0.5 1.5,-0.9 2.2,-1.3 0.7,0 1.6,-0.1 2.4,-0.1 z m -5.2,1.2 c -0.5,-0.2 -1,-0.5 -1.5,-0.7 1,-0.1 2,-0.2 3.1,-0.3 -0.5,0.3 -1,0.6 -1.6,1 z M 42.5,13 c 0.6,0.3 1.3,0.6 2,0.9 -1,0.7 -2.1,1.5 -3.1,2.3 -1.1,-0.5 -2.1,-0.9 -3,-1.3 0.6,-0.5 1.2,-1 1.7,-1.5 0.7,-0.1 1.5,-0.3 2.4,-0.4 z m -4.7,1.7 c -0.4,-0.2 -0.9,-0.4 -1.3,-0.5 0.8,-0.2 1.6,-0.4 2.5,-0.6 -0.4,0.4 -0.8,0.7 -1.2,1.1 z m -2.1,-0.3 c 0.5,0.2 1.1,0.4 1.7,0.7 -0.9,0.9 -1.8,1.8 -2.7,2.7 -0.9,-0.4 -1.8,-0.7 -2.5,-1 0.4,-0.6 0.9,-1.2 1.2,-1.7 0.8,-0.3 1.5,-0.5 2.3,-0.7 z m -4,2.2 c -0.4,-0.1 -0.7,-0.3 -1,-0.4 0.6,-0.3 1.2,-0.6 1.9,-0.8 -0.3,0.4 -0.6,0.8 -0.9,1.2 z m -1.6,-0.1 c 0.4,0.1 0.9,0.3 1.4,0.5 -0.6,0.9 -1.3,1.9 -1.9,2.9 -0.7,-0.3 -1.3,-0.5 -1.9,-0.7 0.2,-0.6 0.5,-1.2 0.7,-1.6 0.4,-0.4 1,-0.7 1.7,-1.1 z M 27.2,19 c -0.1,-0.1 -0.3,-0.1 -0.4,-0.1 0.2,-0.2 0.5,-0.5 0.7,-0.7 -0.1,0.3 -0.2,0.5 -0.3,0.8 z m -0.5,3.1 c 0.2,-0.7 0.5,-1.6 0.8,-2.4 0.5,0.2 1.1,0.4 1.8,0.7 -0.6,1 -1.1,1.9 -1.5,2.6 -0.4,-0.3 -0.8,-0.6 -1.1,-0.9 z m 23.7,6.3 c 0.8,-0.4 1.5,-0.8 2.3,-1.2 0.7,0.4 1.3,0.8 1.9,1.2 -0.9,0 -1.8,0.1 -2.7,0.1 -0.4,-0.1 -0.9,-0.1 -1.5,-0.1 z m 26.1,-5.7 c -0.1,-0.1 -0.1,-0.3 -0.2,-0.5 0.4,-0.1 0.7,-0.2 1.1,-0.3 -0.2,0.3 -0.5,0.6 -0.9,0.8 z m 2.3,-3.1 c -2.8,-4.7 -13.7,-8 -26.9,-8 -13.1,0 -24,3.3 -26.9,8 -0.1,-0.2 -0.1,-0.5 -0.1,-0.7 0,-5.2 12.3,-9.6 26.9,-9.6 14.6,0 26.9,4.4 26.9,9.6 0.2,0.2 0.2,0.4 0.1,0.7 z"
       id="path2" /></g><text
     x="-20.200001"
     y="108.1"
     fill="#000000"
     font-size="5px"
     font-weight="bold"
     font-family="'Helvetica Neue', Helvetica, Arial-Unicode, Arial, Sans-serif"
     id="text2">Created by Hothouse Design</text><text
     x="-20.200001"
     y="113.1"
     fill="#000000"
     font-size="5px"
     font-weight="bold"
     font-family="'Helvetica Neue', Helvetica, Arial-Unicode, Arial, Sans-serif"
     id="text3">from the Noun Project</text></svg>
