<?xml version="1.0" encoding="UTF-8" standalone="no"?>
<svg
   version="1.1"
   viewBox="-5 -10 58.058495 74.765282"
   id="svg10"
   sodipodi:docname="noun-writing-6704582.svg"
   width="58.058495"
   height="74.765282"
   inkscape:version="1.3.2 (091e20e, 2023-11-25)"
   xmlns:inkscape="http://www.inkscape.org/namespaces/inkscape"
   xmlns:sodipodi="http://sodipodi.sourceforge.net/DTD/sodipodi-0.dtd"
   xmlns="http://www.w3.org/2000/svg"
   xmlns:svg="http://www.w3.org/2000/svg">
  <defs
     id="defs10" />
  <sodipodi:namedview
     id="namedview10"
     pagecolor="#ffffff"
     bordercolor="#000000"
     borderopacity="0.25"
     inkscape:showpageshadow="2"
     inkscape:pageopacity="0.0"
     inkscape:pagecheckerboard="0"
     inkscape:deskcolor="#d1d1d1"
     inkscape:zoom="1.7481481"
     inkscape:cx="28.315678"
     inkscape:cy="44.618644"
     inkscape:window-width="1312"
     inkscape:window-height="449"
     inkscape:window-x="0"
     inkscape:window-y="37"
     inkscape:window-maximized="0"
     inkscape:current-layer="svg10" />
  <g
     id="g9"
     transform="translate(-26.863922,-22.617718)">
    <path
       d="M 32.133,72.852 C 32.07441,72.79341 32.01191,72.73091 31.94941,72.67231 32.008,72.7309 32.0705,72.7895 32.133,72.852 Z"
       id="path1" />
    <path
       d="m 32.332,73.059 c -0.06641,-0.07031 -0.13281,-0.14062 -0.19922,-0.21094 0.06641,0.07031 0.13281,0.14062 0.19922,0.21094 z"
       id="path2" />
    <path
       d="m 31.945,72.668 c -0.04297,-0.04297 -0.08984,-0.08594 -0.13672,-0.12891 0.04687,0.04688 0.09375,0.08594 0.13672,0.12891 z"
       id="path3" />
    <path
       d="m 32.395,73.125 c -0.01953,-0.02344 -0.04297,-0.04297 -0.0625,-0.06641 0.01953,0.02344 0.04297,0.04297 0.0625,0.06641 z"
       id="path4" />
    <path
       d="m 31.652,72.398 c -0.10938,-0.09375 -0.21875,-0.1875 -0.32812,-0.27734 0.11328,0.09375 0.22266,0.1875 0.32812,0.27734 z"
       id="path5" />
    <path
       d="m 31.812,72.543 c -0.05078,-0.04687 -0.10156,-0.09375 -0.15625,-0.14062 0.05078,0.04297 0.10156,0.09375 0.15625,0.14062 z"
       id="path6" />
    <path
       d="m 76.824,22.254 2.6875,-3.3672 c 0.64844,-0.81641 0.51562,-2.0039 -0.30078,-2.6562 l -4.0117,-3.1992 c -0.39062,-0.3125 -0.89062,-0.45703 -1.3867,-0.40234 -0.5,0.05469 -0.95312,0.30859 -1.2656,0.69922 l -2.6875,3.3672 -0.20312,-0.16016 -5.1953,6.5117 -37.613,47.129 h 0.0039 -0.0039 c -0.74219,2.3164 -1.4844,4.6328 -2.2266,6.9531 l -1.8164,5.6719 5.125,-3.0273 6.2852,-3.7148 37.613,-47.133 5.1953,-6.5117 z M 29.715,71.09 c -0.13672,-0.07031 -0.26953,-0.13281 -0.40234,-0.19141 l 37.008,-46.371 0.33984,0.27344 z m 1.5938,1.0195 C 31.21114,72.03137 31.10958,71.95325 31.00411,71.87903 30.92989,71.82434 30.85567,71.77356 30.78145,71.72278 30.75801,71.70715 30.73458,71.69153 30.71114,71.672 30.6252,71.61341 30.53926,71.55872 30.45333,71.50403 L 30.40255,71.47278 C 30.33224,71.42981 30.26193,71.38684 30.19161,71.34387 30.16427,71.32824 30.13692,71.31262 30.10958,71.297 l 36.891,-46.223 2.2891,1.8242 -36.895,46.227 0.02344,0.02734 -0.0039,-0.0039 C 32.07828,72.77755 31.715,72.4338 31.32442,72.12134 Z m 1.6562,1.6992 c -0.08984,-0.11719 -0.18359,-0.23828 -0.28516,-0.35938 l 0.0078,0.0078 36.941,-46.285 0.33984,0.27344 z m 0.45312,0.66016 C 33.39859,74.4337 33.37515,74.40245 33.35562,74.3673 33.33218,74.32824 33.30484,74.28917 33.27749,74.25011 33.26186,74.22667 33.24624,74.20324 33.23062,74.1798 l 37.078,-46.465 1.1758,0.94141 -37.461,46.941 -0.0078,-0.01172 v -0.0039 c -0.17578,-0.38281 -0.375,-0.75391 -0.59766,-1.1133 z m 36.105,-57.07 6.6875,5.3359 -4.4492,5.5781 -6.6875,-5.3359 z m -4.7227,5.918 1.1758,0.94141 -37.082,46.465 c -0.04297,-0.01953 -0.08984,-0.03516 -0.13281,-0.05078 l -0.0625,-0.02344 c -0.44141,-0.16406 -0.89453,-0.29688 -1.3516,-0.40234 z m -35.844,47.43 c -0.02734,-0.01172 -0.05859,-0.02344 -0.08594,-0.03516 0.02734,0.01172 0.05469,0.02344 0.08594,0.03516 z M 28.60876,70.61405 28.51892,70.5828 Z M 28.2572,70.49686 28.19079,70.47733 Z m -0.65625,-0.17969 -0.07031,-0.01563 z m -0.25781,-0.05859 -0.07813,-0.01562 z m -0.24219,-0.04687 -0.0625,-0.01172 z m -0.58203,7.9297 c 0.15234,0.125 0.30078,0.25391 0.4375,0.38672 -0.14062,-0.12891 -0.28516,-0.25781 -0.44141,-0.38281 z m 1.5508,1.0391 c -0.71875,-1.043 -1.7305,-1.8516 -2.9062,-2.3203 l 0.48438,-1.5156 1.5,-4.6758 c 1.4219,0.26953 2.7578,0.88281 3.8906,1.7852 l 0.01172,0.01172 v -0.0039 c 1.1367,0.91016 2.0352,2.0781 2.6172,3.4102 z m 6.0547,-3.3516 0.0039,0.0039 z"
       id="path7" />
    <path
       d="m 33.523,74.648 c 0.17578,0.30078 0.33984,0.61719 0.48828,0.92578 C 33.86675,75.25737 33.70269,74.94487 33.523,74.648 Z"
       id="path8" />
    <path
       d="m 47.758,87.383 c -2.6992,0 -5.543,-2.5312 -7.3125,-5.2227 -3.8008,1.6328 -7.9062,2.4414 -12.043,2.3711 -2.1719,-0.07031 -4.3203,-0.44531 -6.3867,-1.1055 -0.11328,-0.03906 -0.17969,-0.16016 -0.14062,-0.27344 0.03516,-0.11719 0.15625,-0.17969 0.27344,-0.14453 2.0273,0.65234 4.1367,1.0195 6.2656,1.0898 4.0508,0.06641 8.0703,-0.71484 11.797,-2.3008 -1.5742,-2.5469 -2.0625,-4.9648 -1.2734,-6.3086 0.99609,-1.6953 4.1367,-2.1484 6.6367,-1.8477 1.8477,0.22266 3.0859,0.80859 3.3164,1.5742 v -0.0039 c 0.08984,0.65234 -0.12891,1.3086 -0.59766,1.7695 -1.1094,1.4453 -3.8359,3.4336 -7.4414,5.0039 1.7227,2.582 4.5977,5.1289 7.1719,4.9531 2.3086,-0.16016 3.6328,-2.4922 5.0352,-4.9609 1.5234,-2.6836 3.1016,-5.4609 6.125,-5.8203 2.3594,-0.28125 4.1836,1.0938 6.1133,2.5508 2.1055,1.5898 4.2852,3.2344 7.457,3.0664 2.5,-0.22266 4.8477,-1.2969 6.6445,-3.0469 0.09375,-0.07422 0.22656,-0.06641 0.30469,0.02344 0.08203,0.08594 0.07422,0.22266 -0.01563,0.30469 -1.8711,1.8125 -4.3125,2.9258 -6.9102,3.1523 -3.3359,0.17578 -5.6758,-1.5938 -7.7422,-3.1523 -1.8594,-1.4023 -3.6172,-2.7266 -5.8008,-2.4648 -2.8047,0.33594 -4.3281,3.0156 -5.7969,5.6055 -1.4609,2.5703 -2.8398,5 -5.3828,5.1797 -0.10156,0.0039 -0.19922,0.0078 -0.29688,0.0078 z M 44.1252,73.988 c -2.0547,0 -4.1133,0.53125 -4.8125,1.7188 -0.71094,1.207 -0.22266,3.4531 1.2734,5.8633 l 0.03125,0.05078 c 3.5586,-1.5391 6.2422,-3.4883 7.332,-4.9062 0.4375,-0.56641 0.62109,-1.0586 0.52734,-1.375 -0.17187,-0.56641 -1.3555,-1.0742 -2.9492,-1.2656 l -0.0039,-0.0039 c -0.46484,-0.05469 -0.92969,-0.08203 -1.3984,-0.08203 z"
       id="path9" />
  </g>
  <text
     x="-26.863922"
     y="94.882286"
     font-size="5px"
     font-weight="bold"
     font-family="'Arbeit Regular', Helvetica, Arial-Unicode, Arial, Sans-serif"
     fill="#000000"
     id="text9">Created by Leonardo Henrique Martini</text>
  <text
     x="-26.863922"
     y="99.882286"
     font-size="5px"
     font-weight="bold"
     font-family="'Arbeit Regular', Helvetica, Arial-Unicode, Arial, Sans-serif"
     fill="#000000"
     id="text10">from Noun Project</text>
</svg>
