<svg xmlns:dc="http://purl.org/dc/elements/1.1/" xmlns:cc="http://creativecommons.org/ns#" xmlns:rdf="http://www.w3.org/1999/02/22-rdf-syntax-ns#" xmlns:svg="http://www.w3.org/2000/svg" xmlns="http://www.w3.org/2000/svg" xmlns:sodipodi="http://sodipodi.sourceforge.net/DTD/sodipodi-0.dtd" xmlns:inkscape="http://www.inkscape.org/namespaces/inkscape" version="1.1" x="0px" y="0px" viewBox="0 0 100 125"><g transform="translate(0,-952.36218)"><path style="text-indent:0;text-transform:none;direction:ltr;block-progression:tb;baseline-shift:baseline;color:#000000;enable-background:accumulate;" d="m 9,973.36215 a 2.0002,2.0002 0 0 0 -2,2 l 0,54.00005 a 2.0002,2.0002 0 0 0 2,2 l 82,0 a 2.0002,2.0002 0 0 0 2,-2 l 0,-54.00005 a 2.0002,2.0002 0 0 0 -2,-2 l -82,0 z m 5.6875,4 70.625,0 L 50,1005.7996 14.6875,977.36215 z M 11,979.51835 48.75,1009.8933 a 2.0002,2.0002 0 0 0 2.5,0 L 89,979.51835 l 0,47.84385 -78,0 0,-47.84385 z" fill="#000000" fill-opacity="1" stroke="none" marker="none" visibility="visible" display="inline" overflow="visible"/></g><text x="0" y="115" fill="#000000" font-size="5px" font-weight="bold" font-family="'Helvetica Neue', Helvetica, Arial-Unicode, Arial, Sans-serif">Created by Aybige</text><text x="0" y="120" fill="#000000" font-size="5px" font-weight="bold" font-family="'Helvetica Neue', Helvetica, Arial-Unicode, Arial, Sans-serif">from the Noun Project</text></svg>