<?xml version="1.0" encoding="UTF-8" standalone="no"?>
<svg
   version="1.1"
   viewBox="-5 -10 75.501465 70.585403"
   id="svg2"
   sodipodi:docname="noun-filter-7335246.svg"
   width="75.501465"
   height="70.585403"
   inkscape:version="1.3.2 (091e20e, 2023-11-25)"
   xmlns:inkscape="http://www.inkscape.org/namespaces/inkscape"
   xmlns:sodipodi="http://sodipodi.sourceforge.net/DTD/sodipodi-0.dtd"
   xmlns="http://www.w3.org/2000/svg"
   xmlns:svg="http://www.w3.org/2000/svg">
  <defs
     id="defs2" />
  <sodipodi:namedview
     id="namedview2"
     pagecolor="#ffffff"
     bordercolor="#000000"
     borderopacity="0.25"
     inkscape:showpageshadow="2"
     inkscape:pageopacity="0.0"
     inkscape:pagecheckerboard="0"
     inkscape:deskcolor="#d1d1d1"
     inkscape:zoom="1.7481481"
     inkscape:cx="38.040254"
     inkscape:cy="40.614407"
     inkscape:window-width="1312"
     inkscape:window-height="449"
     inkscape:window-x="0"
     inkscape:window-y="37"
     inkscape:window-maximized="0"
     inkscape:current-layer="svg2" />
  <path
     d="m 32.751234,-5.83571 c 11.543,0 22.793,1.332 33.582,3.918 l -25.25,25.25 v 16.418 l -16.664,16.664 v -33.082 l -25.25000042,-25.25 c 10.78900002,-2.582 22.03900042,-3.918 33.58200042,-3.918 m 0,-4.1641 c -11.754,0 -23.3790004,1.3555 -34.5550004,4.0312 -1.4688,0.35156 -2.6289,1.4688 -3.0391,2.9219 -0.4102,1.4531 -0.0039,3.0117 1.0625,4.0781 l 24.0310004,24.031 v 31.355 c 0,1.6836 1.0156,3.2031 2.5703,3.8516 0.51563,0.21484 1.0586,0.31641 1.5938,0.31641 1.0859,0 2.1484,-0.42188 2.9453,-1.2188 l 16.672,-16.672 c 0.78125,-0.78125 1.2188,-1.8398 1.2188,-2.9453 v -14.691 l 24.031,-24.031 c 1.0664,-1.0664 1.4727,-2.6289 1.0625,-4.0781 -0.41016,-1.4531 -1.5742,-2.5703 -3.0391,-2.9219 -11.176,-2.6719 -22.801,-4.0273 -34.555,-4.0273 z"
     id="path1" />
  <text
     x="-17.248766"
     y="90.832291"
     font-size="5px"
     font-weight="bold"
     font-family="'Arbeit Regular', Helvetica, Arial-Unicode, Arial, Sans-serif"
     fill="#000000"
     id="text1">Created by Skena Grafis</text>
  <text
     x="-17.248766"
     y="95.832291"
     font-size="5px"
     font-weight="bold"
     font-family="'Arbeit Regular', Helvetica, Arial-Unicode, Arial, Sans-serif"
     fill="#000000"
     id="text2">from Noun Project</text>
</svg>
