<?xml version="1.0" encoding="UTF-8" standalone="no"?>
<svg
   version="1.1"
   x="0px"
   y="0px"
   viewBox="0 0 73.981689 66.008743"
   id="svg2"
   sodipodi:docname="noun-heart-1742985.svg"
   width="73.981689"
   height="66.008743"
   inkscape:version="1.3.2 (091e20e, 2023-11-25)"
   xmlns:inkscape="http://www.inkscape.org/namespaces/inkscape"
   xmlns:sodipodi="http://sodipodi.sourceforge.net/DTD/sodipodi-0.dtd"
   xmlns="http://www.w3.org/2000/svg"
   xmlns:svg="http://www.w3.org/2000/svg">
  <defs
     id="defs2" />
     <title title="# of votes"/>
  <g
     transform="translate(-13.009156,-969.35779)"
     id="g1">
    <path
       style="color:#000000;text-indent:0;text-transform:none;direction:ltr;baseline-shift:baseline;enable-background:accumulate"
       d="m 31.748519,969.35779 c -4.8057,0 -9.5885,1.91807 -13.25,5.75 -7.3231,7.6637 -7.3152,19.98594 0,27.65621 l 30.75,32.2813 a 1.0001,1.0001 0 0 0 1.4688,0 c 10.2681,-10.7459 20.513,-21.504 30.7812,-32.25 7.3231,-7.66386 7.3231,-19.99241 0,-27.65626 -7.3231,-7.66383 -19.2081,-7.66399 -26.5312,0 l -4.9688,5.15625 -4.9687,-5.1875 c -3.6616,-3.83192 -8.4756,-5.75 -13.2813,-5.75 z m 0,1.96875 c 4.2679,0 8.5526,1.71195 11.8438,5.15625 l 5.6875,6 a 1.0001,1.0001 0 0 0 1.4687,0 l 5.6563,-5.9375 c 6.5823,-6.88873 17.0739,-6.88857 23.6562,0 6.5823,6.88859 6.5823,17.98641 0,24.87501 -10.0189,10.4851 -20.0436,20.9838 -30.0625,31.4687 l -30.0625,-31.5 c -6.5768,-6.89605 -6.5823,-18.01777 0,-24.90621 3.2911,-3.44429 7.5446,-5.15625 11.8125,-5.15625 z"
       fill="#000000"
       fill-opacity="1"
       stroke="none"
       marker="none"
       visibility="visible"
       display="inline"
       overflow="visible"
       id="path1" />
  </g>
  <text
     x="-13.009156"
     y="98.004387"
     fill="#000000"
     font-size="5px"
     font-weight="bold"
     font-family="'Helvetica Neue', Helvetica, Arial-Unicode, Arial, Sans-serif"
     id="text1">Created by il Capitano</text>
  <text
     x="-13.009156"
     y="103.00439"
     fill="#000000"
     font-size="5px"
     font-weight="bold"
     font-family="'Helvetica Neue', Helvetica, Arial-Unicode, Arial, Sans-serif"
     id="text2">from the Noun Project</text>
</svg>
