<svg xmlns="http://www.w3.org/2000/svg" data-name="Layer 1" viewBox="-5.0 -10.0 110.0 135.0" x="0px" y="0px"><title>UI Icon</title><path d="M50,7.514A42.486,42.486,0,1,0,92.486,50,42.535,42.535,0,0,0,50,7.514Zm0,80.972A38.486,38.486,0,1,1,88.486,50,38.53,38.53,0,0,1,50,88.486Zm15.187-46.4c.081,11.724-6.608,14.633-11.493,16.757-4.3,1.867-6.172,2.87-5.618,7.071a2,2,0,0,1-1.721,2.244,2.156,2.156,0,0,1-.265.017,2,2,0,0,1-1.979-1.738c-.973-7.367,4-9.527,7.987-11.263,4.707-2.046,9.152-3.979,9.089-13.06A11.187,11.187,0,1,0,38.814,42.1a2,2,0,0,1-4,0,15.187,15.187,0,0,1,30.373-.014ZM48,74.9v.166a2,2,0,0,1-4,0V74.9a2,2,0,0,1,4,0Z"/><text x="0.0" y="117.5" font-size="5.0" font-weight="bold" font-family="Arbeit Regular, Helvetica, Arial-Unicode, Arial, Sans-serif" fill="#000000">Created by Icon Designer</text><text x="0.0" y="122.5" font-size="5.0" font-weight="bold" font-family="Arbeit Regular, Helvetica, Arial-Unicode, Arial, Sans-serif" fill="#000000">from Noun Project</text></svg>