<?xml version="1.0" encoding="UTF-8" standalone="no"?>
<svg
   version="1.1"
   viewBox="-5 -10 56.25 65.664062"
   id="svg2"
   sodipodi:docname="noun-home-7452715.svg"
   width="56.25"
   height="65.664062"
   inkscape:version="1.3.2 (091e20e, 2023-11-25)"
   xmlns:inkscape="http://www.inkscape.org/namespaces/inkscape"
   xmlns:sodipodi="http://sodipodi.sourceforge.net/DTD/sodipodi-0.dtd"
   xmlns="http://www.w3.org/2000/svg"
   xmlns:svg="http://www.w3.org/2000/svg">
  <defs
     id="defs2" />
  <sodipodi:namedview
     id="namedview2"
     pagecolor="#ffffff"
     bordercolor="#000000"
     borderopacity="0.25"
     inkscape:showpageshadow="2"
     inkscape:pageopacity="0.0"
     inkscape:pagecheckerboard="0"
     inkscape:deskcolor="#d1d1d1"
     inkscape:zoom="1.7481481"
     inkscape:cx="28.315678"
     inkscape:cy="40.614407"
     inkscape:window-width="1312"
     inkscape:window-height="449"
     inkscape:window-x="0"
     inkscape:window-y="37"
     inkscape:window-maximized="0"
     inkscape:current-layer="svg2" />
  <path
     d="m 50.62395,12.226563 -26.562,-21.8750005 c -0.625,-0.4687505 -1.4062,-0.4687505 -2.0312,0 L -4.53125,12.226563 C -4.84375,12.539063 -5,13.007813 -5,13.476563 v 40.624999 c 0,0.9375 0.625,1.5625 1.5625,1.5625 h 53.125 c 0.9375,0 1.5625,-0.625 1.5625,-1.5625 V 13.476563 c 0,-0.46875 -0.15625,-0.9375 -0.625,-1.25 z m -19.688,40.311999 h -15.625 v -21.875 h 15.625 z m 17.188,0 h -14.062 V 29.100563 c 0,-0.9375 -0.625,-1.5625 -1.5625,-1.5625 h -18.75 c -0.9375,0 -1.5625,0.625 -1.5625,1.5625 v 23.437999 h -14.062 v -38.281 l 25,-20.6249995 25,20.6249995 z"
     id="path1" />
  <text
     x="-26.876051"
     y="90.351562"
     font-size="5px"
     font-weight="bold"
     font-family="'Arbeit Regular', Helvetica, Arial-Unicode, Arial, Sans-serif"
     fill="#000000"
     id="text1">Created by mar_yani</text>
  <text
     x="-26.876051"
     y="95.351562"
     font-size="5px"
     font-weight="bold"
     font-family="'Arbeit Regular', Helvetica, Arial-Unicode, Arial, Sans-serif"
     fill="#000000"
     id="text2">from Noun Project</text>
</svg>
