<?xml version="1.0" encoding="UTF-8" standalone="no"?>
<svg
   version="1.1"
   x="0px"
   y="0px"
   viewBox="0 0 66.167999 66.166"
   enable-background="new 0 0 100 100"
   xml:space="preserve"
   id="svg2"
   sodipodi:docname="noun-what-1446406.svg"
   width="66.167999"
   height="66.166"
   inkscape:version="1.3.2 (091e20e, 2023-11-25)"
   xmlns:inkscape="http://www.inkscape.org/namespaces/inkscape"
   xmlns:sodipodi="http://sodipodi.sourceforge.net/DTD/sodipodi-0.dtd"
   xmlns="http://www.w3.org/2000/svg"
   xmlns:svg="http://www.w3.org/2000/svg"><defs
     id="defs2" /><sodipodi:namedview
     id="namedview2"
     pagecolor="#ffffff"
     bordercolor="#000000"
     borderopacity="0.25"
     inkscape:showpageshadow="2"
     inkscape:pageopacity="0.0"
     inkscape:pagecheckerboard="0"
     inkscape:deskcolor="#d1d1d1"
     inkscape:zoom="1.888"
     inkscape:cx="33.103814"
     inkscape:cy="45.550847"
     inkscape:window-width="1312"
     inkscape:window-height="449"
     inkscape:window-x="0"
     inkscape:window-y="37"
     inkscape:window-maximized="0"
     inkscape:current-layer="svg2" /><path
     d="M 33.084,0 C 14.842,0 0,14.841 0,33.083 0,51.325 14.842,66.166 33.084,66.166 51.326,66.166 66.168,51.325 66.168,33.083 66.168,14.841 51.326,0 33.084,0 Z m 0,62.166 C 17.047,62.166 4,49.12 4,33.083 4,17.046 17.047,4 33.084,4 49.121,4 62.168,17.046 62.168,33.083 62.168,49.12 49.121,62.166 33.084,62.166 Z M 32.756,15.616 C 23.875,16.77 21.531,23.182 21.532,26.411 l 4,0.017 c 0.011,-0.599 0.324,-5.882 7.739,-6.845 4.836,-0.629 7.292,1.588 7.984,3.871 0.591,1.946 0.011,4.492 -2.617,5.794 -7.625,3.778 -7.625,10.248 -7.625,14.114 h 4 c 0,-4.45 0.397,-8.051 5.4,-10.53 4.027,-1.996 5.947,-6.33 4.67,-10.54 -1.115,-3.674 -5.016,-7.627 -12.327,-6.676 z m -1.738,35.747 h 4 v -4.47 h -4 z"
     id="path1" /><text
     x="-16.916"
     y="98.083"
     fill="#000000"
     font-size="5px"
     font-weight="bold"
     font-family="'Helvetica Neue', Helvetica, Arial-Unicode, Arial, Sans-serif"
     id="text1">Created by amante de icono</text><text
     x="-16.916"
     y="103.083"
     fill="#000000"
     font-size="5px"
     font-weight="bold"
     font-family="'Helvetica Neue', Helvetica, Arial-Unicode, Arial, Sans-serif"
     id="text2">from the Noun Project</text></svg>
