<?xml version="1.0" encoding="UTF-8" standalone="no"?>
<svg
   version="1.1"
   x="0px"
   y="0px"
   viewBox="0 0 71.050003 71.050003"
   xml:space="preserve"
   id="svg3"
   sodipodi:docname="noun-info-52713.svg"
   width="71.050003"
   height="71.050003"
   inkscape:version="1.3.2 (091e20e, 2023-11-25)"
   xmlns:inkscape="http://www.inkscape.org/namespaces/inkscape"
   xmlns:sodipodi="http://sodipodi.sourceforge.net/DTD/sodipodi-0.dtd"
   xmlns="http://www.w3.org/2000/svg"
   xmlns:svg="http://www.w3.org/2000/svg"><defs
     id="defs3" /><sodipodi:namedview
     id="namedview3"
     pagecolor="#ffffff"
     bordercolor="#000000"
     borderopacity="0.25"
     inkscape:showpageshadow="2"
     inkscape:pageopacity="0.0"
     inkscape:pagecheckerboard="0"
     inkscape:deskcolor="#d1d1d1"
     inkscape:zoom="1.888"
     inkscape:cx="35.222458"
     inkscape:cy="46.080508"
     inkscape:window-width="1312"
     inkscape:window-height="449"
     inkscape:window-x="0"
     inkscape:window-y="37"
     inkscape:window-maximized="0"
     inkscape:current-layer="svg3" /><g
     id="g2"
     transform="translate(-14.876,-16.29)"><circle
       cx="50.401001"
       cy="37.282001"
       r="3.506"
       id="circle1" /><g
       id="g1"><path
         d="m 50.401,19.842 c 17.629,0 31.972,14.343 31.972,31.972 0,17.629 -14.343,31.972 -31.972,31.972 -17.629,0 -31.973,-14.342 -31.973,-31.972 0,-17.63 14.343,-31.972 31.973,-31.972 m 0,-3.552 c -19.62,0 -35.525,15.905 -35.525,35.525 0,19.62 15.905,35.525 35.525,35.525 19.62,0 35.525,-15.905 35.525,-35.525 0,-19.62 -15.906,-35.525 -35.525,-35.525 z"
         id="path1" /><rect
         x="47.914001"
         y="45.569"
         width="4.973"
         height="24.284"
         id="rect1" /></g></g><text
     x="-14.876"
     y="98.709999"
     fill="#000000"
     font-size="5px"
     font-weight="bold"
     font-family="'Helvetica Neue', Helvetica, Arial-Unicode, Arial, Sans-serif"
     id="text2">Created by NAS</text><text
     x="-14.876"
     y="103.71"
     fill="#000000"
     font-size="5px"
     font-weight="bold"
     font-family="'Helvetica Neue', Helvetica, Arial-Unicode, Arial, Sans-serif"
     id="text3">from the Noun Project</text></svg>
