<svg xmlns="http://www.w3.org/2000/svg" version="1.1" viewBox="-5.0 -10.0 110.0 135.0">
 <path d="m4.1914 48.328c6.8867-3.8516 21.844-24.25 45.809-24.25 7.0117 0 13.285 1.7734 18.828 4.375l11.758-11.758c1.7852-1.7852 4.5039 0.92969 2.7148 2.7148l-10.891 10.895c11.082 6.2148 19.48 15.84 23.398 18.023 1.3164 0.73438 1.3008 2.6211 0 3.3477-6.8281 3.7969-21.832 24.246-45.809 24.246-7.0117 0-13.285-1.7734-18.828-4.375l-11.758 11.754c-1.7852 1.7852-4.5039-0.92969-2.7148-2.7148l10.891-10.891c-11.082-6.2109-19.48-15.84-23.398-18.023-1.3242-0.73828-1.2969-2.6289 0-3.3438zm65.379-15.184-6.7539 6.7539c8.4062 10.648 0.80859 26.422-12.816 26.422-3.8164 0-7.3242-1.3086-10.102-3.5039l-5.8125 5.8125c4.7891 2.082 10.102 3.4492 15.914 3.4492 16.586 0 29.09-11.137 37.043-18.223 1.6758-1.4922 3.1562-2.8125 4.4805-3.8555-6.8711-5.4102-11.812-11.441-21.953-16.855zm-9.4922 9.4922-17.441 17.441c8.1953 5.9961 19.844 0.14062 19.844-10.078 0-2.7539-0.89062-5.3008-2.4023-7.3633zm-29.648 24.219 6.7539-6.7539c-8.4062-10.645-0.8125-26.422 12.816-26.422 3.8164 0 7.3242 1.3086 10.102 3.5039l5.8125-5.8125c-4.7891-2.082-10.102-3.4492-15.914-3.4492-16.586 0-29.09 11.137-37.043 18.223-1.6758 1.4883-3.1562 2.8125-4.4844 3.8555 6.8711 5.4102 11.816 11.441 21.957 16.855zm9.4922-9.4922 17.441-17.441c-8.1953-5.9961-19.844-0.14062-19.844 10.078 0 2.7539 0.89062 5.3008 2.4023 7.3633z" fill-rule="evenodd"/>
<text x="0.0" y="117.5" font-size="5.0" font-weight="bold" font-family="Arbeit Regular, Helvetica, Arial-Unicode, Arial, Sans-serif" fill="#000000">Created by Jaya99</text><text x="0.0" y="122.5" font-size="5.0" font-weight="bold" font-family="Arbeit Regular, Helvetica, Arial-Unicode, Arial, Sans-serif" fill="#000000">from Noun Project</text></svg>