<?xml version="1.0" encoding="UTF-8" standalone="no"?>
<svg
   version="1.1"
   x="0px"
   y="0px"
   viewBox="0 0 72.067673 68.943436"
   enable-background="new 0 0 90 90"
   xml:space="preserve"
   id="svg5"
   sodipodi:docname="noun-writing-4145419.svg"
   width="72.067673"
   height="68.943436"
   inkscape:version="1.3.2 (091e20e, 2023-11-25)"
   xmlns:inkscape="http://www.inkscape.org/namespaces/inkscape"
   xmlns:sodipodi="http://sodipodi.sourceforge.net/DTD/sodipodi-0.dtd"
   xmlns="http://www.w3.org/2000/svg"
   xmlns:svg="http://www.w3.org/2000/svg"><defs
     id="defs5" /><sodipodi:namedview
     id="namedview5"
     pagecolor="#ffffff"
     bordercolor="#000000"
     borderopacity="0.25"
     inkscape:showpageshadow="2"
     inkscape:pageopacity="0.0"
     inkscape:pagecheckerboard="0"
     inkscape:deskcolor="#d1d1d1"
     inkscape:zoom="2.0977778"
     inkscape:cx="35.990466"
     inkscape:cy="45.762712"
     inkscape:window-width="1312"
     inkscape:window-height="449"
     inkscape:window-x="0"
     inkscape:window-y="37"
     inkscape:window-maximized="0"
     inkscape:current-layer="svg5" /><path
     d="m 18.991375,0.01143383 c 0.744,0.07 1.459,0.428 1.979,1.05899997 l 13.609,16.4380002 c 0.24,0.293 0.016,0.631 -0.572,0.395 -2.344,-0.92 -5.385,-2.139 -8.963,-3.453 -0.715,-0.258 -0.943,-0.426 -1.412,-0.994 l -7.166,-8.6620002 c -1.043,-1.254 -0.871,-3.066 0.385,-4.10699997 0.63,-0.523 1.4,-0.742 2.14,-0.676 z"
     id="path1" /><path
     d="m 20.481375,14.529434 15.9,6.145 c 1.5,0.58 2.088,0.875 3.146,1.959 l 3.641,3.713 15.082,19.703 c 1.563,2.043 1.756,5.027 0.219,6.568 -1.629,1.637 -3.447,1.375 -4.938,0.074 l -20.852,-18.299 c -0.631,-0.557 -1.057,-0.822 -1.818,-1.076 l -6.791,-2.271 c -1.182,-0.4 -1.791,0.848 -0.646,1.338 l 7.078,3.016 21.465,18.822 c 1.057,0.928 2.354,1.459 3.582,1.424 0.684,-0.018 0.781,0.066 1.246,0.557 1.594,1.686 0.969,2.984 -0.193,3.656 -1.041,0.598 -2.781,0.373 -4.369,-0.203 l -17.547,-6.631 c -1.648,-0.595 -2.455,-0.897 -4.148,-1.948 l -13.572,-8.037 c -1.266,-0.75 -2.047,0.754 -1.016,1.41 l 13.547,8.59 c 1.781,1.109 2.816,1.506 4.469,2.105 l 15.9,5.734 c 0.313,0.113 0.656,0.332 0.578,0.926 -0.197,1.506 -1.281,1.725 -2.693,1.631 l -15.125,-0.953 c -1.801,-0.115 -3.457,-0.068 -5.16,-0.762 l -14.605,-5.334 c -1.057,-0.432 -1.775,0.906 -0.719,1.34 l 14.678,6.209 c 2.084,0.842 4.006,0.775 5.697,0.885 l 13.359,0.834 c 0.584,0.041 1.027,0.334 0.859,1.15 -0.316,1.588 -2.113,2.135 -3.52,2.135 l -27.725,0.004 c -3.037,0 -5.25,-0.395 -6.8690005,-1.232 -1.621,-0.844 -2.719,-2.125 -3.594,-4.182 l -4.11499996,-9.656 c -0.959,-2.268 -0.91200000119,-4.631 -0.91200000119,-7.381 v -10.59 c 0,-3.482 1.59399996119,-6.791 4.41799996119,-10.145 l 7.8480005,-9.313 c 2.172,-2.577 5.325,-3.03 8.215,-1.915 z"
     id="path2" /><path
     d="m 44.179375,20.863434 c 1.5,0.322 2.521,0.639 4.094,1.316 l 6.9,2.959 c 2.943,1.26 4.443,2.271 5.094,3.287 0.652,1.01 0.662,2.229 0.293,4.363 l -1.512,8.809 c -0.156,0.904 -0.953,1.156 -1.525,0.404 -1.557,-2.035 -4.678,-6.109 -4.678,-6.109 -1.641,-2.139 -1.191,-2.51 -0.484,-4.91 0.387,-1.303 -0.557,-1.527 -1.041,-0.59 -0.994,1.924 -2.088,0.74 -2.631,-0.01 -2.313,-3.203 -4.619,-6.043 -7.479,-8.709 -0.447,-0.459 -0.396,-0.754 0.406,-0.926 0.885,-0.193 1.772,-0.052 2.563,0.116 z"
     id="path3" /><path
     d="m 62.059375,50.707434 9.432,11.391 c 0.172,0.207 0.209,0.352 0.229,0.551 l 0.34,3.307 c 0.082,0.859 -0.537,1.391 -1.344,1.15 l -3.184,-0.938 c -0.238,-0.07 -0.375,-0.139 -0.488,-0.275 l -8.453,-10.213 c -0.309,-0.369 -0.438,-0.672 0.051,-0.973 0.396,-0.252 0.75,-0.568 1.074,-0.914 0.797,-0.838 1.438,-1.906 1.641,-3.072 0.072,-0.391 0.347,-0.444 0.702,-0.014 z"
     id="path4" /><text
     x="-8.9616251"
     y="94.488434"
     fill="#000000"
     font-size="5px"
     font-weight="bold"
     font-family="'Helvetica Neue', Helvetica, Arial-Unicode, Arial, Sans-serif"
     id="text4">Created by Cuputo</text><text
     x="-8.9616251"
     y="99.488434"
     fill="#000000"
     font-size="5px"
     font-weight="bold"
     font-family="'Helvetica Neue', Helvetica, Arial-Unicode, Arial, Sans-serif"
     id="text5">from the Noun Project</text></svg>
