<?xml version="1.0" encoding="UTF-8" standalone="no"?>
<svg
   version="1.1"
   x="0px"
   y="0px"
   viewBox="0 0 72.213951 69.009735"
   enable-background="new 0 0 90 90"
   xml:space="preserve"
   id="svg2"
   sodipodi:docname="noun-writing-4145401.svg"
   width="72.213951"
   height="69.009735"
   inkscape:version="1.3.2 (091e20e, 2023-11-25)"
   xmlns:inkscape="http://www.inkscape.org/namespaces/inkscape"
   xmlns:sodipodi="http://sodipodi.sourceforge.net/DTD/sodipodi-0.dtd"
   xmlns="http://www.w3.org/2000/svg"
   xmlns:svg="http://www.w3.org/2000/svg"><defs
     id="defs2" /><sodipodi:namedview
     id="namedview2"
     pagecolor="#ffffff"
     bordercolor="#000000"
     borderopacity="0.25"
     inkscape:showpageshadow="2"
     inkscape:pageopacity="0.0"
     inkscape:pagecheckerboard="0"
     inkscape:deskcolor="#d1d1d1"
     inkscape:zoom="2.0977778"
     inkscape:cx="35.990466"
     inkscape:cy="45.762712"
     inkscape:window-width="1312"
     inkscape:window-height="449"
     inkscape:window-x="0"
     inkscape:window-y="37"
     inkscape:window-maximized="0"
     inkscape:current-layer="svg2" /><path
     d="m 42.291491,21.735737 c 1.845,0.063 3.683,0.75 5.052,1.339 l 6.537,2.806 c 2.782,1.194 4.161,2.147 4.739,3.049 0.579,0.904 0.605,1.994 0.261,4.009 l -1.683,9.776 -6.604,-8.624 1.318,-2.573 c 0.365,-0.684 -0.146,-1.505 -0.922,-1.475 -0.371,0.016 -0.699,0.234 -0.859,0.563 l -0.88,1.724 -5.099,-6.656 -3.683,-3.77 c 0.599,-0.141 1.213,-0.189 1.823,-0.168 z m -21.124,-5.949 16.9,6.522 4.526,4.624 14.995,19.595 c 1.281,1.677 0.792,3.729 -0.473,5.063 -0.636,0.672 -1.448,1.104 -2.267,1.196 -0.817,0.094 -1.667,-0.114 -2.566,-0.911 l -20.465,-17.942 c -0.089,-0.077 -0.193,-0.14 -0.303,-0.182 l -6.967,-2.677 c -1.246,-0.479 -1.97,1.386 -0.725,1.868 l 6.807,2.615 20.328,17.829 c 1.271,1.114 2.762,1.547 4.121,1.396 l 1.808,2.109 c -0.101,0.933 -0.615,1.413 -1.521,1.741 -1.017,0.368 -2.536,0.338 -4.011,-0.194 l -16.724,-6.035 c -1.558,-0.563 -2.296,-0.828 -3.891,-1.823 l -13.093,-8.162 c -0.172,-0.114 -0.375,-0.172 -0.579,-0.167 -1,0.03 -1.343,1.348 -0.484,1.858 l 13.098,8.167 c 1.699,1.057 2.705,1.447 4.267,2.017 l 15.561,5.619 c -0.031,0.932 -0.265,1.52 -0.598,1.863 -0.354,0.371 -0.902,0.6 -1.823,0.604 l -14.333,-0.899 c -1.724,-0.105 -3.25,-0.073 -4.828,-0.715 l -14.25,-5.796 c -1.26,-0.557 -2.052,1.386 -0.75,1.858 l 14.24,5.798 c 2.014,0.821 3.869,0.749 5.462,0.849 l 13.35,0.844 c 0.021,0.572 0.088,1.176 -0.234,1.594 -0.459,0.593 -1.318,1.098 -2.959,1.098 h -26.285 c -2.865,0 -4.928,-0.373 -6.422,-1.149 -1.495,-0.776 -2.517,-1.942 -3.328,-3.871 l -3.896,-9.161 c -0.891,-2.099 -0.854,-4.301 -0.854,-6.915 v -10.039 c 0,-3.243 1.489,-6.343 4.15,-9.5 l 7.442,-8.828 c 2.162,-2.567 4.787,-2.833 7.574,-1.761 z m -1.178,-15.76899969 c -1.156,-0.104 -2.349,0.249 -3.349,1.06799999 -1.953,1.594 -2.224,4.51 -0.614,6.453 l 5.063,6.1139997 c -3.527,-0.974 -6.943,0.124 -9.031,2.599 l -7.442,8.828 c -2.844,3.374 -4.61500003,6.943 -4.61500003,10.796 v 10.038 c 0,2.582 -0.084,5.129 1.00900003,7.707 l 3.891,9.155 c 0.948,2.219 2.328,3.861 4.256,4.861 1.922,1 4.312,1.373 7.344,1.373 h 26.285 c 2.079,0 3.652,-0.707 4.548,-1.873 0.645,-0.844 0.905,-1.861 0.864,-2.871 0.839,-0.167 1.588,-0.51 2.156,-1.1 0.636,-0.666 0.989,-1.563 1.115,-2.587 1.593,0.431 3.204,0.438 4.573,-0.058 0.954,-0.345 1.776,-0.999 2.292,-1.88 l 5.943,7.172 c 0.124,0.156 0.295,0.266 0.483,0.317 l 6.167,1.834 c 0.683,0.201 1.354,-0.351 1.281,-1.058 l -0.646,-6.402 c -0.021,-0.196 -0.099,-0.379 -0.223,-0.535 l -7.672,-9.266 c -0.188,-0.239 -0.48,-0.381 -0.787,-0.376 -0.854,0.005 -1.313,1.005 -0.756,1.652 l 7.475,9.029 0.468,4.616 -4.448,-1.323 -8.463,-10.229 c 0.516,-0.298 0.995,-0.667 1.406,-1.104 1.829,-1.928 2.543,-5.146 0.62,-7.661 l -0.328,-0.429 1.994,-11.604 c 0.371,-2.15 0.438,-3.916 -0.536,-5.432 -0.979,-1.521 -2.746,-2.559 -5.64,-3.803 l -6.543,-2.807 c -1.582,-0.678 -2.729,-1.012 -4.186,-1.35 -2.068,-0.483 -3.625,-0.1 -5.297,0.5 -0.36,-0.14 -8.084,-3.12 -13.781,-5.323 l -7.297,-8.8009997 c -0.921,-1.114 -0.776,-2.715 0.344,-3.636 1.115,-0.922 2.713,-0.766 3.636,0.35 l 11.369,13.7329997 c 0.849,1.072 2.442,-0.244 1.541,-1.275 l -11.365,-13.7409997 c -0.838,-1.00899999 -1.947,-1.56799999 -3.104,-1.67099999 z"
     id="path1" /><text
     x="-8.8925095"
     y="94.538734"
     fill="#000000"
     font-size="5px"
     font-weight="bold"
     font-family="'Helvetica Neue', Helvetica, Arial-Unicode, Arial, Sans-serif"
     id="text1">Created by Cuputo</text><text
     x="-8.8925095"
     y="99.538734"
     fill="#000000"
     font-size="5px"
     font-weight="bold"
     font-family="'Helvetica Neue', Helvetica, Arial-Unicode, Arial, Sans-serif"
     id="text2">from the Noun Project</text></svg>
