<svg xmlns="http://www.w3.org/2000/svg" xmlns:xlink="http://www.w3.org/1999/xlink" version="1.1" x="0px" y="0px" viewBox="0 0 120 150" enable-background="new 0 0 120 120" xml:space="preserve"><path d="M-695.205,99.127c11.478,0,22.268-4.469,30.382-12.584c8.117-8.113,12.587-18.904,12.587-30.383  c0-11.479-4.47-22.269-12.587-30.383c-8.114-8.115-18.904-12.585-30.382-12.585c-11.479,0-22.27,4.47-30.386,12.585  c-8.115,8.114-12.584,18.904-12.584,30.383c0,11.479,4.469,22.27,12.584,30.383C-717.475,94.658-706.684,99.127-695.205,99.127z   M-723.47,27.898c7.55-7.549,17.588-11.706,28.265-11.706c10.676,0,20.713,4.157,28.261,11.706  c7.55,7.548,11.708,17.585,11.708,28.262c0,10.678-4.158,20.715-11.708,28.262c-7.548,7.549-17.585,11.705-28.261,11.705  c-10.677,0-20.715-4.156-28.265-11.705c-7.548-7.547-11.705-17.584-11.705-28.262C-735.175,45.483-731.018,35.446-723.47,27.898z"/><polygon points="-668.649,38.945 -670.771,36.824 -706.191,72.244 -719.574,57.023 -721.827,59.004 -706.332,76.627 "/><path d="M72.131,36.107l-2.121-2.121l6.062-6.061c8.092-8.093,21.258-8.093,29.35,0c8.09,8.092,8.09,21.258,0,29.35L80.676,82.018  c-4.047,4.047-9.363,6.071-14.678,6.071s-10.627-2.022-14.672-6.067c-8.089-8.093-8.088-21.259,0.003-29.35L62.428,41.57  l2.121,2.121L53.45,54.792c-6.921,6.922-6.923,18.185-0.002,25.108c6.921,6.922,18.184,6.919,25.107-0.004l24.746-24.743  c6.92-6.922,6.92-18.186,0-25.107c-6.923-6.923-18.186-6.921-25.107,0L72.131,36.107z M29.251,98.145  c5.314,0,10.63-2.022,14.676-6.068l5.778-5.778l-2.121-2.121l-5.778,5.778c-6.922,6.922-18.186,6.922-25.107,0.002  c-6.921-6.922-6.919-18.185,0.003-25.107l24.742-24.746c3.354-3.354,7.812-5.201,12.554-5.201c4.742,0,9.2,1.848,12.553,5.201  c6.922,6.922,6.922,18.185,0,25.107L55.614,76.148l2.121,2.121l10.937-10.938c8.092-8.091,8.092-21.257,0.001-29.349  c-3.92-3.921-9.131-6.08-14.675-6.08s-10.755,2.159-14.675,6.08L14.581,62.729c-8.092,8.092-8.094,21.258-0.003,29.35  C18.624,96.123,23.937,98.145,29.251,98.145z"/><text x="0" y="135" fill="#000000" font-size="5px" font-weight="bold" font-family="'Helvetica Neue', Helvetica, Arial-Unicode, Arial, Sans-serif">Created by dilayorganci</text><text x="0" y="140" fill="#000000" font-size="5px" font-weight="bold" font-family="'Helvetica Neue', Helvetica, Arial-Unicode, Arial, Sans-serif">from the Noun Project</text></svg>