<?xml version="1.0" encoding="UTF-8" standalone="no"?>
<svg
   version="1.1"
   x="0px"
   y="0px"
   viewBox="0 0 34.099998 33.299999"
   xml:space="preserve"
   id="svg3"
   sodipodi:docname="noun-log-in-5511774.svg"
   width="34.099998"
   height="33.299999"
   inkscape:version="1.3.2 (091e20e, 2023-11-25)"
   xmlns:inkscape="http://www.inkscape.org/namespaces/inkscape"
   xmlns:sodipodi="http://sodipodi.sourceforge.net/DTD/sodipodi-0.dtd"
   xmlns="http://www.w3.org/2000/svg"
   xmlns:svg="http://www.w3.org/2000/svg"><defs
     id="defs3" /><sodipodi:namedview
     id="namedview3"
     pagecolor="#ffffff"
     bordercolor="#000000"
     borderopacity="0.25"
     inkscape:showpageshadow="2"
     inkscape:pageopacity="0.0"
     inkscape:pagecheckerboard="0"
     inkscape:deskcolor="#d1d1d1"
     inkscape:zoom="3.776"
     inkscape:cx="17.081568"
     inkscape:cy="23.040254"
     inkscape:window-width="1312"
     inkscape:window-height="449"
     inkscape:window-x="0"
     inkscape:window-y="37"
     inkscape:window-maximized="0"
     inkscape:current-layer="svg3" /><path
     d="M 29.1,0 H 21.2 C 20.5,0 20,0.6 20,1.2 c 0,0.6 0.6,1.2 1.2,1.2 h 7.9 c 1.4,0 2.5,0.9 2.5,2 v 24.5 c 0,1.1 -1.1,2 -2.5,2 h -7.9 c -0.7,0 -1.2,0.6 -1.2,1.2 0,0.6 0.6,1.2 1.2,1.2 h 7.9 c 2.8,0 5,-2 5,-4.5 V 4.5 C 34.1,2 31.8,0 29.1,0 Z"
     id="path1" /><path
     d="m 26.8,17.2 v 0 c 0,0 0,-0.1 0,0 0,-0.4 -0.1,-0.7 -0.4,-0.9 L 17.9,7.8 c -0.5,-0.5 -1.3,-0.5 -1.8,0 -0.5,0.5 -0.5,1.3 0,1.8 L 22.5,16 H 1.2 C 0.5,16 0,16.6 0,17.2 c 0,0.6 0.6,1.2 1.2,1.2 H 22.5 L 16,24.9 c -0.5,0.5 -0.5,1.3 0,1.8 0.2,0.2 0.6,0.4 0.9,0.4 0.3,0 0.6,-0.1 0.9,-0.4 l 8.5,-8.5 c 0.3,-0.3 0.5,-0.6 0.5,-1 z"
     id="path2" /><text
     x="-8"
     y="56.799999"
     fill="#000000"
     font-size="5px"
     font-weight="bold"
     font-family="'Helvetica Neue', Helvetica, Arial-Unicode, Arial, Sans-serif"
     id="text2">Created by Laura Planas</text><text
     x="-8"
     y="61.799999"
     fill="#000000"
     font-size="5px"
     font-weight="bold"
     font-family="'Helvetica Neue', Helvetica, Arial-Unicode, Arial, Sans-serif"
     id="text3">from the Noun Project</text></svg>
