<?xml version="1.0" encoding="UTF-8" standalone="no"?>
<svg
   version="1.1"
   x="0px"
   y="0px"
   viewBox="0 0 34.099998 33.5"
   xml:space="preserve"
   id="svg3"
   sodipodi:docname="noun-log-out-5511755.svg"
   width="34.099998"
   height="33.5"
   inkscape:version="1.3.2 (091e20e, 2023-11-25)"
   xmlns:inkscape="http://www.inkscape.org/namespaces/inkscape"
   xmlns:sodipodi="http://sodipodi.sourceforge.net/DTD/sodipodi-0.dtd"
   xmlns="http://www.w3.org/2000/svg"
   xmlns:svg="http://www.w3.org/2000/svg"><defs
     id="defs3" /><sodipodi:namedview
     id="namedview3"
     pagecolor="#ffffff"
     bordercolor="#000000"
     borderopacity="0.25"
     inkscape:showpageshadow="2"
     inkscape:pageopacity="0.0"
     inkscape:pagecheckerboard="0"
     inkscape:deskcolor="#d1d1d1"
     inkscape:zoom="3.776"
     inkscape:cx="17.081568"
     inkscape:cy="23.040254"
     inkscape:window-width="1312"
     inkscape:window-height="449"
     inkscape:window-x="0"
     inkscape:window-y="37"
     inkscape:window-maximized="0"
     inkscape:current-layer="svg3" /><path
     d="M 12.9,31 H 5 C 3.6,31 2.5,30.1 2.5,29 V 4.4 c 0,-1.1 1.1,-2 2.5,-2 h 7.9 c 0.7,0 1.2,-0.6 1.2,-1.2 C 14.1,0.6 13.5,0 12.9,0 H 5 C 2.2,0 0,2 0,4.5 V 29 c 0,2.5 2.2,4.5 5,4.5 h 7.9 c 0.7,0 1.2,-0.6 1.2,-1.2 0,-0.6 -0.6,-1.3 -1.2,-1.3 z"
     id="path1" /><path
     d="M 34.1,16.3 C 34.1,16 34,15.7 33.7,15.4 L 25.2,6.9 c -0.5,-0.5 -1.3,-0.5 -1.8,0 -0.5,0.5 -0.5,1.3 0,1.8 l 6.4,6.4 H 8.5 c -0.7,0 -1.2,0.6 -1.2,1.2 0,0.6 0.6,1.2 1.2,1.2 h 21.3 l -6.4,6.4 c -0.5,0.5 -0.5,1.3 0,1.8 0.2,0.2 0.6,0.4 0.9,0.4 0.3,0 0.6,-0.1 0.9,-0.4 l 8.5,-8.5 c 0.2,-0.1 0.4,-0.4 0.4,-0.9 0,0.1 0,0.1 0,0 z"
     id="path2" /><text
     x="-8"
     y="56.700001"
     fill="#000000"
     font-size="5px"
     font-weight="bold"
     font-family="'Helvetica Neue', Helvetica, Arial-Unicode, Arial, Sans-serif"
     id="text2">Created by Laura Planas</text><text
     x="-8"
     y="61.700001"
     fill="#000000"
     font-size="5px"
     font-weight="bold"
     font-family="'Helvetica Neue', Helvetica, Arial-Unicode, Arial, Sans-serif"
     id="text3">from the Noun Project</text></svg>
