<svg xmlns="http://www.w3.org/2000/svg" xmlns:xlink="http://www.w3.org/1999/xlink" version="1.1" x="0px" y="0px" viewBox="0 0 595.28 745" enable-background="new 0 0 595.28 596" xml:space="preserve"><g><path d="M400.601,350.027l-60.543-24.922l-3.569-21.088c14.895-11.536,28.799-30.144,30.167-59.647   c19.799-42.565-0.479-70.279-5.111-75.779c-2.416-6.095-14.869-31.223-56.127-31.223c-7,0-14.572,0.746-22.498,2.229   c-46.106,8.601-56.561,53.981-55.646,86.132c0.888,23.774,10.89,44.909,12.948,49.004c5.207,10.116,12.702,20.636,23.48,29.567   l-3.151,18.613l-66.249,27.291c-1.317,0.66-32.311,17.137-32.311,102.702v5.724h271.298v-5.724   C433.289,367.342,402.298,350.865,400.601,350.027z M240.378,238.643c6.071-29.041,17.944-34.829,20.918-35.826   c9.865,2.731,20.352,4.113,31.205,4.113c22.658,0,40.969-5.939,48.033-8.593c12.404,10.152,14.412,32.179,14.715,40.836   c0.114,30.203-14.074,47.914-28.568,58.122l-0.299,0.142c-12.143,8.456-24.51,11.786-28.453,12.693   c-2.957-0.962-5.685-2.077-8.334-3.244c-0.915-0.397-1.825-0.823-2.717-1.259c-1.73-0.832-3.363-1.729-4.974-2.626   c-0.906-0.531-1.845-1.025-2.736-1.574c-2.091-1.305-4.072-2.667-5.939-4.09l-1.244-0.938   C247.634,277.177,241.755,249.001,240.378,238.643z M328.395,324.813c-0.177,0.156-0.333,0.297-0.548,0.467   c-0.233,0.205-0.503,0.412-0.773,0.627c-0.467,0.375-0.998,0.787-1.542,1.207c-0.343,0.266-0.714,0.535-1.085,0.814   c-0.594,0.436-1.23,0.889-1.894,1.336c-0.421,0.289-0.854,0.582-1.305,0.883c-0.704,0.458-1.462,0.911-2.228,1.378   c-0.467,0.288-0.943,0.567-1.44,0.851c-0.801,0.453-1.661,0.889-2.513,1.309c-0.514,0.257-1.02,0.518-1.539,0.756   c-0.9,0.412-1.838,0.769-2.78,1.13c-0.513,0.192-1.024,0.412-1.557,0.595c-1.015,0.334-2.063,0.58-3.102,0.818   c-0.472,0.105-0.933,0.262-1.399,0.348c-1.52,0.275-3.039,0.439-4.575,0.439c-1.254,0-2.504-0.146-3.743-0.334   c-0.092-0.014-0.184-0.023-0.271-0.035l-1-0.188c-0.935-0.179-1.836-0.412-2.746-0.677c-8.898-2.59-16.838-8.625-20.512-11.723   l2.215-13.072c0.096,0.064,0.225,0.109,0.323,0.169c3.141,1.899,6.508,3.679,10.094,5.285c0.047,0.019,0.079,0.041,0.123,0.06   c3.556,1.592,7.322,3.02,11.334,4.25l1.31,0.412l1.354-0.232c0.614-0.105,13.229-2.371,27.48-10.533L328.395,324.813z    M389.24,447.178H206.048v-89.445l39.443-16.238l31.188,40.26l19.565-32.879c0.979,0.113,1.958,0.232,2.95,0.266l19.41,32.613   l31.19-40.265l39.445,16.234V447.178z"/><path d="M297.64,369.932c-4.337,0-7.875,3.521-7.875,7.859c0,4.348,3.538,7.889,7.875,7.889c4.342,0,7.874-3.541,7.874-7.889   C305.514,373.453,301.981,369.932,297.64,369.932z"/><path d="M297.64,396.35c-4.337,0-7.875,3.532-7.875,7.865c0,4.338,3.538,7.87,7.875,7.87c4.342,0,7.874-3.532,7.874-7.87   C305.514,399.882,301.981,396.35,297.64,396.35z"/><path d="M297.64,422.764c-4.337,0-7.875,3.533-7.875,7.865c0,4.347,3.538,7.875,7.875,7.875c4.342,0,7.874-3.528,7.874-7.875   C305.514,426.297,301.981,422.764,297.64,422.764z"/></g><text x="0" y="611" fill="#000000" font-size="5px" font-weight="bold" font-family="'Helvetica Neue', Helvetica, Arial-Unicode, Arial, Sans-serif">Created by Iconic</text><text x="0" y="616" fill="#000000" font-size="5px" font-weight="bold" font-family="'Helvetica Neue', Helvetica, Arial-Unicode, Arial, Sans-serif">from the Noun Project</text></svg>