<?xml version="1.0" encoding="UTF-8" standalone="no"?>
<svg
   data-name="Layer 1"
   viewBox="0 0 150.884 150.884"
   x="0px"
   y="0px"
   version="1.1"
   id="svg3"
   sodipodi:docname="noun-new-4175917.svg"
   width="150.884"
   height="150.884"
   inkscape:version="1.3.2 (091e20e, 2023-11-25)"
   xmlns:inkscape="http://www.inkscape.org/namespaces/inkscape"
   xmlns:sodipodi="http://sodipodi.sourceforge.net/DTD/sodipodi-0.dtd"
   xmlns="http://www.w3.org/2000/svg"
   xmlns:svg="http://www.w3.org/2000/svg">
  <defs
     id="defs3" />
  <sodipodi:namedview
     id="namedview3"
     pagecolor="#ffffff"
     bordercolor="#000000"
     borderopacity="0.25"
     inkscape:showpageshadow="2"
     inkscape:pageopacity="0.0"
     inkscape:pagecheckerboard="0"
     inkscape:deskcolor="#d1d1d1"
     inkscape:zoom="1.0488889"
     inkscape:cx="75.794492"
     inkscape:cy="98.199153"
     inkscape:window-width="1312"
     inkscape:window-height="449"
     inkscape:window-x="0"
     inkscape:window-y="37"
     inkscape:window-maximized="0"
     inkscape:current-layer="svg3" />
  <path
     d="M 108.318,71.442 H 79.442 V 42.566 a 4,4 0 1 0 -8,0 V 71.442 H 42.566 a 4,4 0 1 0 0,8 h 28.876 v 28.876 a 4,4 0 0 0 8,0 V 79.442 h 28.876 a 4,4 0 0 0 0,-8 z"
     id="path1" />
  <path
     d="M 75.442,0 A 75.442,75.442 0 1 0 150.884,75.442 75.527,75.527 0 0 0 75.442,0 Z m 0,142.884 a 67.442,67.442 0 1 1 67.442,-67.442 67.518,67.518 0 0 1 -67.442,67.442 z"
     id="path2" />
  <text
     x="-14.558"
     y="180.442"
     fill="#000000"
     font-size="5px"
     font-weight="bold"
     font-family="'Helvetica Neue', Helvetica, Arial-Unicode, Arial, Sans-serif"
     id="text2">Created by Chandru</text>
  <text
     x="-14.558"
     y="185.442"
     fill="#000000"
     font-size="5px"
     font-weight="bold"
     font-family="'Helvetica Neue', Helvetica, Arial-Unicode, Arial, Sans-serif"
     id="text3">from the Noun Project</text>
</svg>
