<?xml version="1.0" encoding="UTF-8" standalone="no"?>
<svg
   version="1.1"
   x="0px"
   y="0px"
   viewBox="0 0 51.549973 57.891941"
   enable-background="new 0 0 100 100"
   xml:space="preserve"
   id="svg8"
   sodipodi:docname="noun-note-2341849.svg"
   width="51.549973"
   height="57.891941"
   inkscape:version="1.3.2 (091e20e, 2023-11-25)"
   xmlns:inkscape="http://www.inkscape.org/namespaces/inkscape"
   xmlns:sodipodi="http://sodipodi.sourceforge.net/DTD/sodipodi-0.dtd"
   xmlns="http://www.w3.org/2000/svg"
   xmlns:svg="http://www.w3.org/2000/svg"><defs
     id="defs8" /><sodipodi:namedview
     id="namedview8"
     pagecolor="#ffffff"
     bordercolor="#000000"
     borderopacity="0.25"
     inkscape:showpageshadow="2"
     inkscape:pageopacity="0.0"
     inkscape:pagecheckerboard="0"
     inkscape:deskcolor="#d1d1d1"
     inkscape:zoom="1.888"
     inkscape:cx="23.569915"
     inkscape:cy="43.432203"
     inkscape:window-width="1312"
     inkscape:window-height="449"
     inkscape:window-x="0"
     inkscape:window-y="37"
     inkscape:window-maximized="0"
     inkscape:current-layer="svg8" />
     <title>add note</title>
     <path
     d="m 23.098381,6.1328374 c 2.96,0.366 5.815,0.236 8.658,0.284 2.713,0.045 5.428,-0.037 8.143,-0.031 1.488,0.004 1.54,0.061 1.482,1.522 -0.297,7.5199996 1.006,14.8649996 2.54,22.1649996 1.798,8.559 4.359,16.909 7.335,25.133 0.67,1.851 0.236,2.529 -1.745,2.52 -2.787,-0.013 -5.576,-0.142 -8.358,-0.315 -5.202,-0.324 -10.404,-0.095 -15.6,0.046 -4.215,0.114 -8.45,-0.249 -12.644,0.41 -0.746,0.117 -1.173,-0.178 -1.383,-0.822 -0.514,-1.58 -1.508,-2.122 -3.1230005,-1.628 -1.18,0.361 -1.847,-0.274 -2.203,-1.349 -3.735,-11.275 -6.78799998,-22.655 -6.10399998,-34.726 0.2,-3.533 0.188,-7.078 0.633,-10.5989996 0.27599998,-2.189 0.57399998,-2.648 2.78799998,-2.729 3.237,-0.118 6.482,-0.059 9.7230005,-0.011 2.108,0.031 4.214,0.21 6.322,0.263 2.263,0.056 3.28,-1.176 2.973,-3.505 -0.039,-0.295 -0.12,-0.598 -0.087,-0.887 0.113,-0.986 0.995,-1.826 1.965,-1.87 0.803,-0.036 1.5,0.172 1.824,1.02 0.332,0.869 -0.026,2.126 -1.002,2.495 -1.175,0.444 -1.925,1.072 -2.137,2.614 z m 27.275,50.2939996 c -0.594,-1.82 -1.104,-3.468 -1.669,-5.097 -4.734,-13.664 -7.948,-27.637 -8.496,-42.1409996 -0.045,-1.201 -0.456,-1.53 -1.594,-1.513 -4.976,0.075 -9.952,0.025 -14.92,-0.303 -1.179,-0.078 -1.831,0.359 -2.127,1.475 -0.114,0.432 -0.319,0.846 -0.526,1.2449996 -0.15,0.288 -0.431,0.422 -0.756,0.286 -0.425,-0.178 -0.517,-0.4919996 -0.3,-0.8969996 0.177,-0.332 0.389,-0.65 0.524,-0.998 0.296,-0.759 0.028,-1.118 -0.806,-1.123 -5.05,-0.029 -10.0910005,-0.589 -15.1450005,-0.255 -1.974,0.13 -2,0.171 -2.023,2.105 -0.082,6.6619996 0.984,13.2169996 1.998,19.7649996 0.761,4.914 2.039,9.73 3.397,14.508 1.151,4.052 2.2930005,8.124 4.1220005,11.949 0.29,0.607 0.515,1.187 1.426,1.158 3.465,-0.108 6.936,-0.065 10.399,-0.208 7.309,-0.302 14.614,-0.458 21.923,0.017 1.418,0.092 2.847,0.338 4.573,0.027 z m -48.6820005,-43.143 c -0.158,0.011 -0.316,0.022 -0.474,0.033 -0.049,1.994 -0.054,3.99 -0.157,5.98 -0.28699998,5.526 0.14,11.029 1.179,16.425 1.11,5.763 2.946,11.367 4.765,16.953 0.626,1.923 0.824,1.953 2.851,0.821 -2.197,-6.488 -3.995,-13.087 -5.421,-19.798 -1.431,-6.732 -1.839,-13.608 -2.743,-20.414 z M 25.045381,1.7148374 c -0.069,-0.341 -0.323,-0.529 -0.621,-0.482 -0.37,0.058 -0.707,0.286 -0.693,0.723 0.013,0.423 0.268,0.691 0.712,0.572 0.382,-0.101 0.597,-0.397 0.602,-0.813 z"
     id="path1" /><path
     d="m 24.688381,40.281837 c -2.568,-0.072 -5.113,0.255 -7.667,0.425 -0.674,0.045 -1.355,0.04 -2.028,-0.008 -0.146,-0.01 -0.337,-0.286 -0.392,-0.473 -0.097,-0.329 0.122,-0.631 0.4,-0.697 0.353,-0.084 0.746,0.021 1.118,-0.005 6.006,-0.424 12.04,-0.328 18.038,-0.943 0.585,-0.06 1.617,-0.472 1.651,0.49 0.029,0.796 -1.031,0.69 -1.648,0.719 -2.858,0.135 -5.698,0.577 -8.568,0.493 -0.302,-0.009 -0.603,-10e-4 -0.904,-10e-4 z"
     id="path2" /><path
     d="m 25.558381,46.205837 c -1.878,0.104 -4.957,0.277 -8.036,0.442 -0.432,0.023 -1,0.146 -1.032,-0.5 -0.03,-0.588 0.519,-0.645 0.961,-0.692 0.673,-0.071 1.349,-0.145 2.025,-0.148 4.657,-0.022 9.306,-0.408 13.969,-0.243 1.645,0.058 3.299,-0.191 4.95,-0.278 0.358,-0.019 0.822,-0.051 0.853,0.473 0.028,0.48 -0.393,0.603 -0.761,0.638 -1.272,0.121 -2.547,0.272 -3.823,0.294 -2.633,0.046 -5.268,0.014 -9.106,0.014 z"
     id="path3" /><path
     d="m 10.172381,24.547837 c 0.686,-0.892 1.575,-0.754 2.34,-0.785 4.964,-0.206 9.93,-0.363 14.896,-0.534 0.226,-0.008 0.456,-0.029 0.677,0.003 0.69,0.098 1.882,-0.333 1.882,0.618 0,0.992 -1.193,0.56 -1.866,0.583 -5.418,0.188 -10.837,0.336 -16.257,0.481 -0.499,0.013 -1.044,0.218 -1.672,-0.366 z"
     id="path4" /><path
     d="m 24.395381,33.485837 c 2.551,0 5.101,-0.002 7.652,0.003 0.376,0.001 0.825,0.022 0.832,0.515 0.006,0.458 -0.423,0.574 -0.798,0.604 -1.122,0.088 -2.247,0.212 -3.37,0.206 -4.583,-0.026 -9.148,0.339 -13.721,0.533 -0.523,0.022 -1.049,0.022 -1.572,-0.01 -0.319,-0.019 -0.59,-0.209 -0.495,-0.564 0.043,-0.16 0.295,-0.356 0.468,-0.374 1.417,-0.144 2.837,-0.279 4.259,-0.361 2.248,-0.129 4.498,-0.214 6.747,-0.318 0,-0.078 -10e-4,-0.156 -0.002,-0.234 z"
     id="path5" /><path
     d="m 17.368381,30.002837 c -1.718,0.106 -3.435,0.215 -5.153,0.317 -0.402,0.024 -0.798,-0.075 -0.801,-0.547 -0.002,-0.31 0.325,-0.472 0.627,-0.533 0.292,-0.058 0.59,-0.102 0.888,-0.118 3.586,-0.195 7.172,-0.385 10.759,-0.573 0.223,-0.012 0.45,-0.003 0.673,0.02 0.29,0.03 0.627,0.038 0.664,0.43 0.046,0.496 -0.334,0.608 -0.705,0.662 -0.518,0.075 -1.042,0.148 -1.564,0.153 -1.794,0.018 -3.588,0.007 -5.382,0.007 -0.003,0.061 -0.005,0.122 -0.006,0.182 z"
     id="path6" /><path
     d="m 16.622381,18.877837 c 2.179,0 4.358,-0.012 6.537,0.012 0.347,0.004 0.801,0.078 0.711,0.617 -0.058,0.348 -0.384,0.407 -0.685,0.437 -0.149,0.015 -0.3,0.016 -0.451,0.012 -3.909,-0.094 -7.811,0.112 -11.716,0.248 -0.621,0.022 -1.6710005,0.297 -1.6780005,-0.572 -0.008,-0.888 1.0470005,-0.55 1.6500005,-0.565 1.876,-0.046 3.754,-0.017 5.631,-0.017 0.001,-0.057 0.001,-0.115 0.001,-0.172 z"
     id="path7" /><text
     x="-26.401619"
     y="96.025841"
     fill="#000000"
     font-size="5px"
     font-weight="bold"
     font-family="'Helvetica Neue', Helvetica, Arial-Unicode, Arial, Sans-serif"
     id="text7">Created by Pauline</text><text
     x="-26.401619"
     y="101.02584"
     fill="#000000"
     font-size="5px"
     font-weight="bold"
     font-family="'Helvetica Neue', Helvetica, Arial-Unicode, Arial, Sans-serif"
     id="text8">from the Noun Project</text></svg>
