<?xml version="1.0" encoding="UTF-8" standalone="no"?>
<svg
   viewBox="0 0 6.733428 8.9957997"
   version="1.1"
   x="0px"
   y="0px"
   id="svg2"
   sodipodi:docname="noun-notification-4679164.svg"
   width="6.733428"
   height="8.9958"
   inkscape:version="1.3.2 (091e20e, 2023-11-25)"
   xmlns:inkscape="http://www.inkscape.org/namespaces/inkscape"
   xmlns:sodipodi="http://sodipodi.sourceforge.net/DTD/sodipodi-0.dtd"
   xmlns="http://www.w3.org/2000/svg"
   xmlns:svg="http://www.w3.org/2000/svg">
  <defs
     id="defs2" />
  <sodipodi:namedview
     id="namedview2"
     pagecolor="#ffffff"
     bordercolor="#000000"
     borderopacity="0.25"
     inkscape:showpageshadow="2"
     inkscape:pageopacity="0.0"
     inkscape:pagecheckerboard="0"
     inkscape:deskcolor="#d1d1d1"
     inkscape:zoom="17.839368"
     inkscape:cx="3.3913757"
     inkscape:cy="5.8298028"
     inkscape:window-width="1312"
     inkscape:window-height="449"
     inkscape:window-x="0"
     inkscape:window-y="37"
     inkscape:window-maximized="0"
     inkscape:current-layer="svg2" />
  <g
     id="g1"
     transform="translate(-1.9249527,-0.79376667)">
    <path
       style="color:#000000"
       d="m 5.2916617,0.79376667 c -0.53426,0 -0.97011,0.44170003 -0.97011,0.97700003 v 0.3299 c -1.06042,0.393 -1.81611,1.4118 -1.81611,2.6075 v 2.2138 l -0.55491,1.1681 a 0.26460044,0.26460044 0 0 0 0.23896,0.3781 h 1.67434 c 0.0556,0.7374 0.67578,1.3214 1.42783,1.3214 0.75205,0 1.37225,-0.584 1.42784,-1.3214 h 1.67432 a 0.26460044,0.26460044 0 0 0 0.23898,-0.3781 l -0.55492,-1.1681 v -2.2138 c 0,-1.1957 -0.75569,-2.2145 -1.81612,-2.6075 v -0.3299 c 0,-0.5353 -0.43584,-0.97700003 -0.9701,-0.97700003 z m 0,0.52910003 c 0.24747,0 0.44095,0.1938 0.44095,0.4479 v 0.1914 c -0.14364,-0.023 -0.29088,-0.035 -0.44095,-0.035 -0.15007,0 -0.29732,0.012 -0.44096,0.035 v -0.1914 c 0,-0.2541 0.19349,-0.4479 0.44096,-0.4479 z m 0,1.1336 c 1.2553,0 2.25707,1 2.25707,2.2517 v 2.2735 a 0.26460044,0.26460044 0 0 0 0.0256,0.1135 l 0.40088,0.8438 h -1.25164 v 0 h -0.52915 v 0 h -1.80552 v 0 h -0.52915 v 0 h -1.25164 l 0.40088,-0.8438 a 0.26460044,0.26460044 0 0 0 0.0256,-0.1135 v -2.2735 c 0,-1.2517 1.00177,-2.2517 2.25707,-2.2517 z m -0.8965,6.0117 h 1.793 c -0.0522,0.4507 -0.42821,0.7923 -0.8965,0.7923 -0.46829,0 -0.84428,-0.3416 -0.8965,-0.7923 z"
       fill="#000000"
       stroke-width="0.00446377"
       stroke-linecap="square"
       stroke-linejoin="round"
       id="path1" />
  </g>
  <text
     x="-1.9249526"
     y="24.789568"
     fill="#000000"
     font-size="5px"
     font-weight="bold"
     font-family="'Helvetica Neue', Helvetica, Arial-Unicode, Arial, Sans-serif"
     id="text1">Created by Larea</text>
  <text
     x="-1.9249526"
     y="29.789568"
     fill="#000000"
     font-size="5px"
     font-weight="bold"
     font-family="'Helvetica Neue', Helvetica, Arial-Unicode, Arial, Sans-serif"
     id="text2">from the Noun Project</text>
</svg>
