<svg xmlns="http://www.w3.org/2000/svg" xmlns:xlink="http://www.w3.org/1999/xlink" version="1.1" x="0px" y="0px" viewBox="0 0 100 125" enable-background="new 0 0 100 100" xml:space="preserve"><metadata><?xpacket begin="&#65279;" id="W5M0MpCehiHzreSzNTczkc9d"?><x:xmpmeta xmlns:x="adobe:ns:meta/" x:xmptk="Adobe XMP Core 5.6-c011 79.156289, 2014/03/31-23:39:12        "/><?xpacket end="w"?></metadata><g><g><g><path d="M50,80c-16.6,0-30.1-13.5-30.1-30S33.4,20,50,20s30.1,13.5,30.1,30S66.6,80,50,80z M50,21.4c-15.8,0-28.6,12.8-28.6,28.6     S34.2,78.6,50,78.6S78.6,65.8,78.6,50S65.8,21.4,50,21.4z"/></g></g><g><g><path d="M68.3,73.4c-0.4,0-0.7-0.3-0.7-0.7c0-7.2-7.9-13-17.6-13s-17.6,5.8-17.6,13c0,0.4-0.3,0.7-0.7,0.7s-0.7-0.3-0.7-0.7     c0-8,8.6-14.5,19.1-14.5c10.5,0,19.1,6.5,19.1,14.5C69.1,73,68.7,73.4,68.3,73.4z"/></g></g><g><g><path d="M50,55.1c-6.1,0-11-4.9-11-11c0-6.1,4.9-11,11-11s11,4.9,11,11C61,50.2,56.1,55.1,50,55.1z M50,34.6     c-5.3,0-9.5,4.3-9.5,9.5c0,5.3,4.3,9.5,9.5,9.5s9.5-4.3,9.5-9.5C59.5,38.9,55.3,34.6,50,34.6z"/></g></g></g><text x="0" y="115" fill="#000000" font-size="5px" font-weight="bold" font-family="'Helvetica Neue', Helvetica, Arial-Unicode, Arial, Sans-serif">Created by 23 icons</text><text x="0" y="120" fill="#000000" font-size="5px" font-weight="bold" font-family="'Helvetica Neue', Helvetica, Arial-Unicode, Arial, Sans-serif">from the Noun Project</text></svg>