<svg xmlns="http://www.w3.org/2000/svg" version="1.1" viewBox="-5.0 -10.0 110.0 135.0">
 <path d="m19.965 47.238h-3.3828c-0.86328 0-1.5625 0.69922-1.5625 1.5625v44.949c0 0.86328 0.69922 1.5625 1.5625 1.5625h66.84c0.86328 0 1.5625-0.69922 1.5625-1.5625v-44.949c0-0.86328-0.69922-1.5625-1.5625-1.5625h-3.3867v-12.52c0-7.9648-3.1641-15.605-8.7969-21.238-5.6328-5.6289-13.27-8.793-21.234-8.793h-0.007812c-7.9648 0-15.602 3.1641-21.234 8.793-5.6289 5.6328-8.7969 13.273-8.7969 21.238zm61.895 3.125v41.824h-63.715v-41.824zm-37.09 22.898v9.2188c0 0.86328 0.69922 1.5625 1.5625 1.5625h7.3398c0.86328 0 1.5625-0.69922 1.5625-1.5625v-9.2188c1.875-1.5195 3.0742-3.8477 3.0742-6.4492 0-4.5859-3.7227-8.3086-8.3086-8.3086s-8.3047 3.7227-8.3047 8.3086c0 2.6016 1.1953 4.9297 3.0742 6.4492zm3.125-0.78906c0-0.53125-0.26953-1.0234-0.71484-1.3125-1.4219-0.92188-2.3594-2.5273-2.3594-4.3477 0-2.8633 2.3203-5.1836 5.1797-5.1836s5.1836 2.3203 5.1836 5.1836c0 1.8203-0.94141 3.4258-2.3633 4.3477-0.44531 0.28906-0.71094 0.78125-0.71094 1.3125v8.4453h-4.2148v-8.4453zm29.016-25.234v-12.52c0-7.1367-2.8359-13.98-7.8828-19.027-5.043-5.043-11.887-7.8789-19.023-7.8789h-0.007812c-7.1328 0-13.977 2.8359-19.023 7.8789-5.0469 5.0469-7.8828 11.891-7.8828 19.027v12.52h6.6328v-12.398c0-11.195 9.0781-20.273 20.273-20.273h0.007812c11.195 0 20.273 9.0781 20.273 20.273v12.398zm-9.7578 0v-12.398c0-9.4727-7.6758-17.148-17.148-17.148h-0.007812c-9.4727 0-17.148 7.6758-17.148 17.148v12.398z" fill-rule="evenodd"/>
<text x="0.0" y="117.5" font-size="5.0" font-weight="bold" font-family="Arbeit Regular, Helvetica, Arial-Unicode, Arial, Sans-serif" fill="#000000">Created by rendicon</text><text x="0.0" y="122.5" font-size="5.0" font-weight="bold" font-family="Arbeit Regular, Helvetica, Arial-Unicode, Arial, Sans-serif" fill="#000000">from Noun Project</text></svg>