<?xml version="1.0" encoding="UTF-8" standalone="no"?>
<svg
   version="1.1"
   x="0px"
   y="0px"
   viewBox="0 0 90.949997 392.01001"
   xml:space="preserve"
   id="svg34"
   sodipodi:docname="noun-pencil-4481625.svg"
   width="90.949997"
   height="392.01001"
   inkscape:version="1.3.2 (091e20e, 2023-11-25)"
   xmlns:inkscape="http://www.inkscape.org/namespaces/inkscape"
   xmlns:sodipodi="http://sodipodi.sourceforge.net/DTD/sodipodi-0.dtd"
   xmlns="http://www.w3.org/2000/svg"
   xmlns:svg="http://www.w3.org/2000/svg"><defs
     id="defs34" /><sodipodi:namedview
     id="namedview34"
     pagecolor="#ffffff"
     bordercolor="#000000"
     borderopacity="0.25"
     inkscape:showpageshadow="2"
     inkscape:pageopacity="0.0"
     inkscape:pagecheckerboard="0"
     inkscape:deskcolor="#d1d1d1"
     inkscape:zoom="0.23838384"
     inkscape:cx="44.04661"
     inkscape:cy="285.25424"
     inkscape:window-width="1312"
     inkscape:window-height="449"
     inkscape:window-x="0"
     inkscape:window-y="37"
     inkscape:window-maximized="0"
     inkscape:current-layer="svg34" /><g
     id="g33"
     transform="translate(-260.66,-208.91)"><path
       d="m 350.58,241.64 c -0.03,0.04 -0.07,0.06 -0.1,0.09 0.04,0.38 0.07,0.75 0.1,1.11 z"
       id="path1" /><path
       d="m 261.56,234.49 c -0.11,0.06 -0.17,0.09 -0.17,0.09 0.04,0 0.11,0 0.16,0 0,-0.03 0.01,-0.06 0.01,-0.09 z"
       id="path2" /><g
       id="g31"><path
         d="m 341.32,503.41 c 0.24,-0.1 0.48,-0.21 0.72,-0.31 -0.24,0.1 -0.48,0.2 -0.72,0.31 z"
         id="path3" /><path
         d="m 337.35,504.97 c 0.31,-0.11 0.62,-0.22 0.93,-0.33 -0.31,0.11 -0.62,0.22 -0.93,0.33 z"
         id="path4" /><path
         d="m 335.95,505.45 c 0.34,-0.11 0.67,-0.22 1,-0.34 -0.33,0.11 -0.66,0.23 -1,0.34 z"
         id="path5" /><path
         d="m 334.52,505.91 c 0.36,-0.11 0.72,-0.22 1.07,-0.34 -0.36,0.12 -0.72,0.23 -1.07,0.34 z"
         id="path6" /><path
         d="m 342.59,502.83 c 0.21,-0.1 0.41,-0.19 0.62,-0.29 -0.2,0.1 -0.41,0.2 -0.62,0.29 z"
         id="path7" /><path
         d="m 338.74,504.46 c 0.28,-0.11 0.56,-0.21 0.84,-0.32 -0.28,0.1 -0.56,0.21 -0.84,0.32 z"
         id="path8" /><path
         d="m 340.03,503.95 c 0.27,-0.11 0.54,-0.22 0.8,-0.33 -0.26,0.11 -0.53,0.22 -0.8,0.33 z"
         id="path9" /><path
         d="m 326.97,507.9 c 0.47,-0.1 0.93,-0.21 1.4,-0.32 -0.47,0.11 -0.94,0.22 -1.4,0.32 z"
         id="path10" /><path
         d="m 333.05,506.35 c 0.38,-0.11 0.76,-0.22 1.14,-0.34 -0.37,0.12 -0.75,0.23 -1.14,0.34 z"
         id="path11" /><path
         d="m 323.82,508.55 c 0.51,-0.1 1.01,-0.19 1.51,-0.3 -0.5,0.1 -1,0.2 -1.51,0.3 z"
         id="path12" /><path
         d="m 325.38,508.24 c 0.49,-0.1 0.99,-0.21 1.48,-0.31 -0.5,0.11 -0.99,0.21 -1.48,0.31 z"
         id="path13" /><path
         d="m 330.03,507.17 c 0.43,-0.11 0.87,-0.22 1.3,-0.34 -0.43,0.12 -0.86,0.23 -1.3,0.34 z"
         id="path14" /><path
         d="m 331.5,506.79 c 0.43,-0.12 0.85,-0.23 1.27,-0.35 -0.42,0.12 -0.84,0.23 -1.27,0.35 z"
         id="path15" /><path
         d="m 328.51,507.55 c 0.45,-0.11 0.9,-0.21 1.34,-0.33 -0.44,0.11 -0.89,0.22 -1.34,0.33 z"
         id="path16" /><path
         d="m 343.79,502.25 c 0.18,-0.09 0.36,-0.18 0.53,-0.27 -0.17,0.09 -0.35,0.18 -0.53,0.27 z"
         id="path17" /><path
         d="m 261.68,500.39 -1.01,-0.23 c 0,0 0.38,0.13 1.05,0.36 -0.01,-0.04 -0.03,-0.08 -0.04,-0.13 z"
         id="path18" /><path
         d="m 345.96,501.07 c 0.15,-0.09 0.3,-0.17 0.45,-0.26 -0.14,0.08 -0.3,0.17 -0.45,0.26 z"
         id="path19" /><path
         d="m 344.91,501.66 c 0.16,-0.09 0.33,-0.17 0.48,-0.26 -0.15,0.09 -0.32,0.18 -0.48,0.26 z"
         id="path20" /><path
         d="m 346.95,500.46 c 0.14,-0.09 0.28,-0.18 0.42,-0.27 -0.13,0.09 -0.28,0.18 -0.42,0.27 z"
         id="path21" /><path
         d="m 348,499.76 c 0.09,-0.06 0.19,-0.13 0.28,-0.19 -0.09,0.07 -0.19,0.13 -0.28,0.19 z"
         id="path22" /><path
         d="m 261.72,500.52 c 5.31,1.81 29.72,9.85 43.52,9.85 l -43.56,-9.99 c 0.01,0.06 0.03,0.1 0.04,0.14 z"
         id="path23" /><g
         id="g27"><path
           d="m 307.65,561.52 c -8.56,0 -20.36,-2.8 -20.36,-2.8 l 19.1,42.2 19.8,-43.42 c 0,-0.01 -9.98,4.02 -18.54,4.02 z"
           id="path24" /><g
           id="g26"><path
             d="m 351.61,502.05 v 0 0 m -7.8,4.63 c -3.96,10.79 -12.22,29.64 -20.3,47.54 -2.75,0.99 -9.82,3.3 -15.86,3.3 -6.05,0 -14.04,-1.54 -17.6,-2.29 l -21.98,-48.45 c 10.25,3.17 26.47,7.59 37.17,7.59 6.06,0 12.74,-0.65 19.32,-1.9 0.52,-0.1 1.05,-0.2 1.61,-0.32 0.51,-0.1 1.02,-0.21 1.54,-0.33 l 0.11,-0.03 c 0.49,-0.11 0.97,-0.22 1.45,-0.33 l 0.16,-0.04 c 0.47,-0.11 0.93,-0.22 1.39,-0.34 l 0.14,-0.04 0.05,-0.01 c 0.45,-0.12 0.9,-0.23 1.35,-0.35 l 0.13,-0.04 0.05,-0.01 c 0.45,-0.12 0.89,-0.24 1.33,-0.37 l 0.2,-0.06 0.1,-0.03 c 0.4,-0.12 0.8,-0.23 1.19,-0.36 l 0.22,-0.07 0.11,-0.04 c 0.38,-0.12 0.75,-0.24 1.13,-0.36 l 0.25,-0.08 0.14,-0.05 c 0.35,-0.12 0.7,-0.23 1.05,-0.35 l 0.28,-0.1 0.14,-0.05 0.08,-0.03 c 0.3,-0.11 0.61,-0.21 0.9,-0.33 l 0.33,-0.12 0.16,-0.06 0.14,-0.05 c 0.25,-0.1 0.5,-0.19 0.75,-0.29 0.11,-0.04 0.22,-0.09 0.33,-0.13 l 0.16,-0.06 0.14,-0.06 c 0.24,-0.1 0.48,-0.19 0.71,-0.29 0.12,-0.05 0.24,-0.11 0.36,-0.16 l 0.16,-0.07 0.17,-0.07 c 0.2,-0.09 0.41,-0.18 0.61,-0.27 0.05,0 0.09,-0.02 0.13,-0.04 m 5.93,-8.06 c -0.15,0 -0.36,0.1 -0.63,0.31 -0.27,0.22 -0.55,0.43 -0.84,0.64 -0.09,0.07 -0.19,0.13 -0.28,0.19 -0.2,0.14 -0.41,0.29 -0.62,0.43 -0.14,0.09 -0.28,0.18 -0.42,0.27 -0.18,0.11 -0.36,0.23 -0.54,0.34 -0.15,0.09 -0.3,0.18 -0.45,0.26 -0.19,0.11 -0.37,0.22 -0.57,0.33 -0.16,0.09 -0.32,0.18 -0.48,0.26 -0.19,0.11 -0.39,0.21 -0.59,0.32 -0.17,0.09 -0.36,0.18 -0.53,0.27 -0.2,0.1 -0.39,0.2 -0.59,0.3 -0.2,0.1 -0.41,0.19 -0.62,0.29 -0.18,0.09 -0.36,0.17 -0.55,0.26 -0.23,0.11 -0.48,0.21 -0.72,0.31 -0.16,0.07 -0.33,0.15 -0.49,0.22 -0.26,0.11 -0.53,0.22 -0.8,0.33 -0.15,0.06 -0.3,0.12 -0.45,0.19 -0.28,0.11 -0.56,0.21 -0.84,0.32 -0.15,0.06 -0.3,0.12 -0.46,0.18 -0.31,0.11 -0.62,0.22 -0.93,0.33 -0.13,0.05 -0.26,0.1 -0.4,0.14 -0.33,0.11 -0.67,0.23 -1,0.34 -0.12,0.04 -0.24,0.08 -0.36,0.12 -0.35,0.12 -0.71,0.23 -1.07,0.34 -0.11,0.03 -0.21,0.07 -0.32,0.1 -0.38,0.12 -0.76,0.23 -1.14,0.34 -0.09,0.03 -0.19,0.06 -0.28,0.08 -0.42,0.12 -0.84,0.24 -1.27,0.35 -0.06,0.02 -0.11,0.03 -0.17,0.05 -0.43,0.12 -0.86,0.23 -1.3,0.34 -0.06,0.02 -0.12,0.03 -0.18,0.05 -0.44,0.11 -0.89,0.22 -1.34,0.33 -0.05,0.01 -0.1,0.02 -0.15,0.04 -0.46,0.11 -0.93,0.21 -1.4,0.32 -0.04,0.01 -0.07,0.02 -0.11,0.03 -0.49,0.11 -0.98,0.21 -1.48,0.31 -0.01,0 -0.03,0.01 -0.04,0.01 -0.5,0.1 -1.01,0.2 -1.51,0.3 -0.01,0 -0.01,0 -0.02,0 -6.23,1.18 -12.69,1.82 -18.56,1.82 -13.8,0 -38.21,-8.05 -43.52,-9.85 -0.67,-0.23 -1.05,-0.36 -1.05,-0.36 l 45.72,100.75 -19.1,-42.2 c 0,0 11.8,2.8 20.36,2.8 8.56,0 18.54,-4.03 18.54,-4.03 l -19.8,43.42 c 0.01,-0.03 37.37,-79.23 43,-98.22 0.76,-2.59 0.94,-4.07 0.35,-4.07 z m -43.35,102.29 z"
             id="path25" /><path
             d="m 307.65,561.52 c -8.56,0 -20.36,-2.8 -20.36,-2.8 l 19.1,42.2 19.8,-43.42 c 0,-0.01 -9.98,4.02 -18.54,4.02 z"
             id="path26" /></g></g><path
         d="m 329.12,237.9 c -13.68,0.1 -20.2,16.82 -22.35,24.2 0,0 -0.01,-0.26 -0.07,-0.71 l -1.27,248.99 c 5.82,-0.01 12.2,-0.66 18.37,-1.82 0.01,0 0.01,0 0.02,0 0.51,-0.1 1.01,-0.19 1.51,-0.3 0.01,0 0.03,-0.01 0.04,-0.01 0.49,-0.1 0.99,-0.21 1.48,-0.31 0.04,-0.01 0.07,-0.02 0.11,-0.03 0.47,-0.1 0.93,-0.21 1.4,-0.32 0.05,-0.01 0.1,-0.02 0.15,-0.04 0.45,-0.11 0.9,-0.21 1.34,-0.33 0.06,-0.02 0.12,-0.03 0.18,-0.05 0.43,-0.11 0.87,-0.22 1.3,-0.34 0.06,-0.02 0.11,-0.03 0.17,-0.05 0.43,-0.12 0.85,-0.23 1.27,-0.35 0.1,-0.03 0.19,-0.06 0.28,-0.08 0.38,-0.11 0.76,-0.22 1.14,-0.34 0.11,-0.03 0.21,-0.07 0.32,-0.1 0.36,-0.11 0.72,-0.22 1.07,-0.34 0.12,-0.04 0.24,-0.08 0.36,-0.12 0.34,-0.11 0.67,-0.22 1,-0.34 0.13,-0.05 0.27,-0.1 0.4,-0.14 0.31,-0.11 0.62,-0.22 0.93,-0.33 0.15,-0.06 0.3,-0.12 0.46,-0.18 0.28,-0.11 0.56,-0.21 0.84,-0.32 0.15,-0.06 0.3,-0.12 0.45,-0.19 0.27,-0.11 0.54,-0.22 0.8,-0.33 0.17,-0.07 0.33,-0.14 0.49,-0.22 0.24,-0.1 0.48,-0.21 0.72,-0.31 0.19,-0.08 0.37,-0.17 0.55,-0.26 0.21,-0.1 0.41,-0.19 0.62,-0.29 0.2,-0.1 0.39,-0.2 0.59,-0.3 0.18,-0.09 0.36,-0.18 0.53,-0.27 0.2,-0.1 0.39,-0.21 0.59,-0.32 0.16,-0.09 0.33,-0.17 0.48,-0.26 0.19,-0.11 0.38,-0.22 0.57,-0.33 0.15,-0.09 0.3,-0.17 0.45,-0.26 0.19,-0.11 0.36,-0.23 0.54,-0.34 0.14,-0.09 0.28,-0.18 0.42,-0.27 0.21,-0.14 0.42,-0.29 0.62,-0.43 0.09,-0.06 0.19,-0.13 0.28,-0.19 0.29,-0.21 0.57,-0.42 0.84,-0.64 1.27,-1.01 1.23,0.48 0.27,3.76 0.76,-1.69 1.2,-3.55 1.2,-5.53 0,0 0,-98.21 0,-139.62 V 246.8 c -0.96,-1.42 -6.77,-9.01 -21.46,-8.9 z"
         id="path27" /><path
         d="m 305.42,510.37 -0.18,-0.05 v 0.05 c 0.06,0.01 0.12,0 0.18,0 z"
         id="path28" /><path
         d="m 261.25,497.15 0.13,-259.66 c -0.02,0.04 -0.06,0.08 -0.08,0.13 -0.01,-0.05 -0.01,-0.1 -0.02,-0.15 0.02,-0.53 0.05,-1.06 0.1,-1.6 v -1.31 c -0.15,0.5 -0.26,1.04 -0.26,1.67 0,46.31 -0.46,263.92 -0.46,263.92 l 1.01,0.23 c -0.24,-1.03 -0.42,-2.1 -0.42,-3.23 z"
         id="path29" /><path
         d="m 261.68,500.39 43.56,9.99 v -0.05 l -38,-9.94 c -0.22,-1.04 -0.38,-2.11 -0.38,-3.24 l 0.12,-262.47 c -2.77,0.52 -4.83,1.45 -5.59,2.81 l -0.13,259.66 c -0.01,1.13 0.17,2.2 0.42,3.24 z"
         id="path30" /><path
         d="m 307.65,561.52 c -8.56,0 -20.36,-2.8 -20.36,-2.8 l 19.1,42.2 19.8,-43.42 c 0,-0.01 -9.98,4.02 -18.54,4.02 z"
         id="path31" /></g><path
       d="m 261.55,234.58 c -0.05,0 -0.12,0 -0.16,0 v 1.31 c 0.04,-0.44 0.1,-0.88 0.16,-1.31 z"
       id="path32" /><path
       d="m 350.58,242.84 c -0.03,-0.36 -0.06,-0.73 -0.1,-1.11 -1.16,-11.04 -7.7,-32.04 -44.64,-32.82 -11.9,0.22 -20.69,1.93 -27.13,4.46 -11.1,4.92 -16,13.16 -17.15,21.13 0,0.03 -0.01,0.06 -0.01,0.09 -0.06,0.44 -0.12,0.87 -0.16,1.3 -0.05,0.54 -0.08,1.07 -0.1,1.6 0.01,0.05 0.01,0.1 0.02,0.15 0.02,-0.04 0.06,-0.09 0.08,-0.13 0.76,-1.36 2.82,-2.29 5.59,-2.81 7.74,-1.45 21,0.31 26.93,5 10.54,8.33 12.46,18.9 12.79,21.7 0.05,0.46 0.07,0.71 0.07,0.71 2.15,-7.39 8.67,-24.1 22.35,-24.2 14.69,-0.11 20.5,7.48 21.46,8.91 0.1,0.15 0.15,0.23 0.15,0.23 0,-0.98 -0.01,-2.44 -0.15,-4.21 z"
       id="path33" /></g><text
     x="-260.66"
     y="598.09003"
     fill="#000000"
     font-size="5px"
     font-weight="bold"
     font-family="'Helvetica Neue', Helvetica, Arial-Unicode, Arial, Sans-serif"
     id="text33">Created by Josh Lim</text><text
     x="-260.66"
     y="603.09003"
     fill="#000000"
     font-size="5px"
     font-weight="bold"
     font-family="'Helvetica Neue', Helvetica, Arial-Unicode, Arial, Sans-serif"
     id="text34">from the Noun Project</text></svg>
