<svg xmlns="http://www.w3.org/2000/svg" xmlns:xlink="http://www.w3.org/1999/xlink" version="1.1" x="0px" y="0px" viewBox="0 0 32 40" enable-background="new 0 0 32 32" xml:space="preserve"><g><path d="M6,27c0.0546875,0,0.109375-0.0043945,0.1640625-0.0136719l6-1   c0.2060547-0.0341797,0.3955078-0.1318359,0.5429688-0.2792969L28.671875,9.7426758   c1.7675781-1.7685547,1.7675781-4.6459961,0-6.4140625C27.8154297,2.4716797,26.6757813,2,25.4648438,2   c-1.2119141,0-2.3515625,0.4716797-3.2070313,1.3286133L6.2929688,19.2929688   c-0.1474609,0.1474609-0.2451172,0.3369141-0.2792969,0.5424805l-1,6c-0.0527344,0.3188477,0.0507813,0.6430664,0.2792969,0.871582   C5.4824219,26.8959961,5.7373047,27,6,27z M7.8320923,21.0897827c1.5385742,0.3271484,2.7509766,1.539856,3.078125,3.078186   l-3.6934204,0.6157227L7.8320923,21.0897827z M22.3764648,6.0380859c0.5960693,0.0567627,1.1515503,0.2385254,1.6427612,0.5286255   L10.4710693,20.1148682c-0.4353638-0.3102417-0.9136353-0.5615234-1.4241943-0.7476807L22.3764648,6.0380859z    M11.8851318,21.5289307L25.4332275,7.980835c0.2902222,0.4915161,0.4721069,1.0471802,0.5288086,1.6435547L12.6328125,22.953186   C12.4466553,22.442627,12.1953735,21.9642944,11.8851318,21.5289307z M27.2578125,4.7426758   c0.8513794,0.8513794,0.9647827,2.161438,0.3493652,3.140686c-0.6073608-1.6033325-1.8797607-2.8776245-3.4819336-3.4874268   C25.0949707,3.8103027,26.4353027,3.9210205,27.2578125,4.7426758z"/><path d="M29,28H3c-0.5527344,0-1,0.4477539-1,1s0.4472656,1,1,1h26c0.5527344,0,1-0.4477539,1-1S29.5527344,28,29,28z"/><path d="M29,25H16c-0.5527344,0-1,0.4477539-1,1s0.4472656,1,1,1h13c0.5527344,0,1-0.4477539,1-1S29.5527344,25,29,25z"/><path d="M29,22H19c-0.5527344,0-1,0.4477539-1,1s0.4472656,1,1,1h10c0.5527344,0,1-0.4477539,1-1S29.5527344,22,29,22z"/><path d="M29,19h-7c-0.5527344,0-1,0.4477539-1,1s0.4472656,1,1,1h7c0.5527344,0,1-0.4477539,1-1S29.5527344,19,29,19z"/><path d="M29,16h-4c-0.5527344,0-1,0.4477539-1,1s0.4472656,1,1,1h4c0.5527344,0,1-0.4477539,1-1S29.5527344,16,29,16z"/><path d="M29,13h-1c-0.5527344,0-1,0.4477539-1,1s0.4472656,1,1,1h1c0.5527344,0,1-0.4477539,1-1S29.5527344,13,29,13z"/></g><text x="0" y="47" fill="#000000" font-size="5px" font-weight="bold" font-family="'Helvetica Neue', Helvetica, Arial-Unicode, Arial, Sans-serif">Created by M. Oki Orlando</text><text x="0" y="52" fill="#000000" font-size="5px" font-weight="bold" font-family="'Helvetica Neue', Helvetica, Arial-Unicode, Arial, Sans-serif">from the Noun Project</text></svg>