<?xml version="1.0" encoding="UTF-8" standalone="no"?>
<svg
   version="1.1"
   x="0px"
   y="0px"
   viewBox="0 0 499.99777 415.63727"
   xml:space="preserve"
   id="svg2"
   sodipodi:docname="noun-writing-5032772.svg"
   width="499.99777"
   height="415.63727"
   inkscape:version="1.3.2 (091e20e, 2023-11-25)"
   xmlns:inkscape="http://www.inkscape.org/namespaces/inkscape"
   xmlns:sodipodi="http://sodipodi.sourceforge.net/DTD/sodipodi-0.dtd"
   xmlns="http://www.w3.org/2000/svg"
   xmlns:svg="http://www.w3.org/2000/svg"><defs
     id="defs2" /><sodipodi:namedview
     id="namedview2"
     pagecolor="#ffffff"
     bordercolor="#000000"
     borderopacity="0.25"
     inkscape:showpageshadow="2"
     inkscape:pageopacity="0.0"
     inkscape:pagecheckerboard="0"
     inkscape:deskcolor="#d1d1d1"
     inkscape:zoom="0.3776"
     inkscape:cx="250.26483"
     inkscape:cy="270.12712"
     inkscape:window-width="1312"
     inkscape:window-height="449"
     inkscape:window-x="0"
     inkscape:window-y="37"
     inkscape:window-maximized="0"
     inkscape:current-layer="svg2" /><path
     d="m 498.74,44.307263 c -17.53,-25.09 -46.2,-41.65 -76.7,-44.27999997 -2.7,-0.24 -5.31,1.11999997 -6.67,3.46999997 L 248.57,292.40726 c -0.43,0.75 -0.72,1.58 -0.86,2.43 l -16.45,106.79 H 116.8 c -22.79,-3.75 -33.01,-22.42 -33.01,-39.37 0,-16.95 10.21,-35.62 33.01,-39.37 h 72.28 c 30.87,0 49.32,-22.66 49.32,-44.56 0,-11.32 -4.69,-21.67 -13.2,-29.14 -9.29,-8.16 -22.7,-12.47 -38.79,-12.47 H 7 c -3.87,0 -7,3.13 -7,7 0,3.87 3.13,7 7,7 h 179.41 c 12.64,0 22.86,3.11 29.55,8.99 5.44,4.78 8.44,11.39 8.44,18.62 0,14.82 -12.38,30.56 -35.32,30.56 h -72.83 c -0.36,0 -0.71,0.03 -1.06,0.08 -31.36,4.81 -45.39,30.23 -45.39,53.29 0,23.06 14.04,48.48 45.39,53.29 0.35,0.05 0.71,0.08 1.06,0.08 h 121 c 0,0 0.01,0 0.02,0 0.01,0 0.02,0 0.03,0 0.35,0 0.69,-0.04 1.02,-0.09 0.07,-0.01 0.13,-0.02 0.2,-0.03 0.34,-0.06 0.67,-0.15 0.99,-0.25 0.05,-0.02 0.11,-0.04 0.16,-0.06 0.34,-0.12 0.66,-0.26 0.97,-0.43 0.02,-0.01 0.04,-0.02 0.06,-0.03 0.31,-0.18 0.61,-0.38 0.9,-0.6 0.02,-0.02 0.04,-0.03 0.07,-0.04 l 88.93,-71.41 c 0.68,-0.54 1.25,-1.21 1.68,-1.96 L 499.06,51.817263 c 1.36,-2.36 1.23,-5.28 -0.32,-7.51 z M 260.58,303.30726 c 22.59,2.29 42.96,14.05 56.25,32.47 l -69.9,56.13 z m 65.05,20.9 c -14.75,-18.63 -35.93,-30.86 -59.44,-34.32 L 425.21,14.457263 c 23.31,3.21 45.01,15.74 59.44,34.32 z m -288.14,-140.06 c 0,-3.87 3.13,-7 7,-7 h 217.46 c 3.87,0 7,3.13 7,7 0,3.87 -3.13,7 -7,7 H 44.49 c -3.86,0 -7,-3.13 -7,-7 z m 47.4,-56.77 c 0,-3.87 3.13,-7 7,-7 h 215.74 c 3.87,0 7,3.13 7,7 0,3.87 -3.13,7 -7,7 H 91.89 c -3.86,0 -7,-3.13 -7,-7 z m 362.7,281.26 c 0,3.87 -3.13,7 -7,7 H 306.7 c -3.87,0 -7,-3.13 -7,-7 0,-3.87 3.13,-7 7,-7 h 133.89 c 3.86,0 7,3.13 7,7 z"
     id="path1" /><text
     x="0"
     y="472.81726"
     fill="#000000"
     font-size="5px"
     font-weight="bold"
     font-family="'Helvetica Neue', Helvetica, Arial-Unicode, Arial, Sans-serif"
     id="text1">Created by Slamlabs</text><text
     x="0"
     y="477.81726"
     fill="#000000"
     font-size="5px"
     font-weight="bold"
     font-family="'Helvetica Neue', Helvetica, Arial-Unicode, Arial, Sans-serif"
     id="text2">from the Noun Project</text></svg>
