<svg xmlns="http://www.w3.org/2000/svg" data-name="Layer 1" viewBox="0 0 100 125" x="0px" y="0px"><path d="m11.3,76.17l22.17-6.91,16.75,5.84c.11.04.22.06.33.06s.23-.02.33-.06h0s16.88-5.97,16.88-5.97l20.93,6.78c.1.03.2.05.31.05.23,0,.46-.08.65-.24.26-.22.39-.57.34-.91l-6.43-43.93c-.06-.43-.4-.77-.83-.84l-8.55-1.36c-1.39-2.89-4.34-4.89-7.75-4.89s-6.15,1.86-7.59,4.57l-8.22,1.43-12.97-4.45h0c-.18-.06-.38-.07-.57-.02l-17.33,4.5c-.37.1-.65.39-.73.77l-8.99,44.44c-.07.35.05.7.31.94.19.17.43.26.67.26.1,0,.2-.01.3-.04Zm56.44-8.09h0s0,0,0,0h0Zm7.14-37.26l6.81,1.08,6.09,41.61-19.09-6.18-1.25-19.68c1.39-2,7.59-11.12,7.59-15.26,0-.54-.06-1.07-.15-1.58Zm-8.46-5.02c3.65,0,6.61,2.96,6.61,6.6,0,2.82-4.21,9.66-6.61,13.21-2.39-3.55-6.6-10.39-6.6-13.21,0-3.64,2.97-6.6,6.6-6.6Zm-14.88,5.87l6.48-1.13c-.13.6-.21,1.22-.21,1.86,0,4.18,6.33,13.47,7.62,15.31l1.25,19.68-15.15,5.36V31.66Zm-13.34-4.02l11.34,3.9v41.21l-14.99-5.23,3.65-39.88Zm-17.35,3.95l15.34-3.98-3.64,39.84-20.23,6.31,8.53-42.17Z"/><path d="m69.84,32.39c0-1.88-1.53-3.42-3.42-3.42s-3.41,1.54-3.41,3.42,1.53,3.42,3.41,3.42,3.42-1.53,3.42-3.42Zm-4.83,0c0-.78.63-1.42,1.41-1.42s1.42.64,1.42,1.42-.63,1.42-1.42,1.42-1.41-.64-1.41-1.42Z"/><text x="0" y="115" fill="#000000" font-size="5px" font-weight="bold" font-family="'Helvetica Neue', Helvetica, Arial-Unicode, Arial, Sans-serif">Created by Uswa KDT</text><text x="0" y="120" fill="#000000" font-size="5px" font-weight="bold" font-family="'Helvetica Neue', Helvetica, Arial-Unicode, Arial, Sans-serif">from the Noun Project</text></svg>