<svg xmlns="http://www.w3.org/2000/svg" version="1.1" viewBox="-5.0 -10.0 110.0 135.0">
 <path d="m50 6.875c-11.438 0-22.406 4.543-30.496 12.629-8.0859 8.0898-12.629 19.059-12.629 30.496s4.543 22.406 12.629 30.492c8.0898 8.0898 19.059 12.633 30.496 12.633s22.406-4.543 30.492-12.629c8.0898-8.0898 12.633-19.059 12.633-30.496-0.011719-11.434-4.5625-22.395-12.645-30.48-8.0859-8.0859-19.047-12.633-30.48-12.645zm40.441 44.234c-0.046875-0.015625-0.09375-0.035156-0.14062-0.046875-1.3516-0.26172-2.75 0.042969-3.8672 0.83984-0.28906 0.17578-0.58984 0.33203-0.89453 0.46875-0.22266-0.91797-0.30469-1.8633-0.23828-2.8047 0.023438-2.6523-0.20312-5.3008-0.67969-7.9102-0.21094-1.1211-0.4375-2.0234-0.63281-2.8047-0.48438-1.293-0.58594-2.6914-0.29297-4.0391 0.33203-1.3945 1.0625-2.6641 2.1055-3.6523 3.0703 5.8047 4.6758 12.273 4.668 18.84 0 0.37109-0.015625 0.74219-0.027344 1.1094zm-9.4648-27.113c-0.60547 0.015625-1.2109-0.066406-1.7891-0.24609-2.0625-0.91016-3.4609-2.8711-3.6523-5.1172 1.9766 1.6133 3.7969 3.4102 5.4414 5.3633zm-16.801-11.895c-0.57422 0.55078-1.2812 0.94922-2.0508 1.1562-1.9336 0.37891-4.6484-1.3008-6.3672-3.3125v0.003907c2.875 0.41016 5.6992 1.1328 8.418 2.1523zm-18.059-2.3789c-0.023438 0.058594-0.039063 0.10156-0.066407 0.16797-0.54297 1.1016-0.75 2.3398-0.59375 3.5586 0.41406 1.9297 1.625 3.5938 3.332 4.582 0.71094 0.52344 1.3867 1.0195 1.3945 1.4102 0.0625 2.6367-4.5273 5.3672-6.9414 5.7812-1.4062 0.24219-2.793 0.44141-4.1094 0.63281-5.0898 0.73047-8.7656 1.2578-9.9883 3.5234-1.6445 3.0469 0.30469 6.4062 2.6797 8.5352 0.39062 0.39063 0.76172 0.80469 1.1016 1.2383 1.7227 2.0664 4.6367 5.5195 9.0156 5.207 0.85547-0.0625 1.582-0.16797 2.2383-0.26953 1.0938-0.30859 2.2578-0.25 3.3164 0.16016l0.35156 0.16406c1.0703 0.54297 2.1992 0.97266 3.3594 1.2734 0.71875 0.17969 1.4531 0.26172 2.1914 0.25781 0.30859-0.007812 0.61328 0.015626 0.91406 0.0625 1.2695 0.33984 2.3945 1.082 3.207 2.1133 0.43359 0.42188 0.90234 0.875 1.4453 1.3555v0.003907c1.875 1.6055 3.9336 2.9805 6.1367 4.1016 3.7891 2.1211 2.6289 5.2734 1.1133 8.3164-0.11328 0.23047-0.21484 0.43359-0.29688 0.60937v0.003907c-1.5391 3.3047-3.7734 6.2422-6.5508 8.6055l-1 0.84766c-2.9375 2.2031-5.5156 4.8555-7.6328 7.8555-1.0469 1.5586-1.7383 3.3242-2.0234 5.1797-0.070313 0.35547-0.16406 0.80859-0.25391 1.0898v-0.003906c-1.7695-1.3516-2.957-3.3359-3.3125-5.5391-0.32031-2.1367 0.13672-4.3164 1.2969-6.1406 1.2695-1.9453 1.7031-4.3164 1.2031-6.5859-0.77344-2.2578-2.3984-4.125-4.5312-5.2031-1.75-0.89844-3.1523-2.3516-3.9961-4.1289-0.54297-1.1992-0.63281-2.5508-0.25-3.8125 0.46484-1.6914 0.375-3.4883-0.25391-5.125-1.0938-3.043-4.6758-6.207-10.637-9.4023-2.8633-1.5352-9.4727-5.9531-10.488-14.215 6.8164-9.2148 17.223-15.105 28.629-16.211zm3.8828 80.746c-9.6094 0.003906-18.906-3.4141-26.227-9.6406-7.3203-6.2266-12.184-14.855-13.723-24.344-1.5352-9.4883 0.35547-19.211 5.3359-27.43 2.1094 7.6953 8.4336 11.879 11.336 13.434 5.2148 2.7969 8.5508 5.625 9.3945 7.9609h-0.003907c0.46484 1.168 0.51953 2.4609 0.15625 3.6641-0.49609 1.7812-0.36328 3.6758 0.38281 5.3672 1.0312 2.2891 2.793 4.1719 5.0039 5.3594 1.6445 1.082 2.9492 1.9375 3.4297 3.6836 0.29297 1.6445-0.078126 3.3359-1.0273 4.707-3.0234 4.9414-1.8555 11.367 2.7109 14.93 0.55469 0.39844 1.2148 0.625 1.8945 0.64844 0.17188 0 0.33984-0.019532 0.50781-0.054688 1.5586-0.33594 1.8711-1.8711 2.1445-3.2266 0.21484-1.4883 0.75781-2.9102 1.5859-4.168 1.9922-2.8203 4.4141-5.3047 7.1836-7.3711l1.0039-0.85156-0.003906 0.003906c3.0742-2.6133 5.543-5.8594 7.2461-9.5195 0.070313-0.15625 0.16016-0.33594 0.26562-0.53906 1.125-2.2656 4.1211-8.2852-2.1953-11.82l-0.003906 0.003906c-2.0352-1.0312-3.9375-2.2969-5.6758-3.7734-0.50781-0.44922-0.94922-0.87891-1.3516-1.2734-1.1797-1.4219-2.7969-2.4141-4.5977-2.8281-0.44531-0.074219-0.89844-0.10938-1.3477-0.10156-0.53906 0.007813-1.082-0.054687-1.6055-0.18359-0.97656-0.26172-1.9219-0.62891-2.8242-1.0859l-0.42969-0.20312c-1.5156-0.62109-3.1914-0.74609-4.7812-0.35156-0.59375 0.089844-1.2539 0.19141-2.0312 0.24609-3.0586 0.21484-5.2109-2.3672-6.7852-4.2578-0.42188-0.53516-0.88281-1.043-1.3711-1.5156-0.34375-0.30859-3.3164-3.0703-2.1133-5.2969 0.58594-1.0898 4.5391-1.6562 8.0273-2.1562 1.3398-0.19141 2.75-0.39453 4.1836-0.64062 3.1602-0.54688 9.2539-4.0273 9.1445-8.4648-0.20703-1.4961-1.1328-2.7969-2.4766-3.4883-1.0703-0.78906-2.0859-1.5352-2.2812-2.8398-0.074219-0.74219 0.070313-1.4883 0.42188-2.1445 0.19141-0.43359 0.33984-0.88672 0.44531-1.3477 0.35156-0.007813 0.69922-0.027344 1.0508-0.027344 0.78125 0 1.5547 0.027344 2.3242 0.070312 1.5742 2.9453 5.4727 6.3672 9.2148 6.3672h-0.003906c0.36328 0 0.72656-0.03125 1.0859-0.10156 1.6484-0.44531 3.1328-1.3594 4.2734-2.625 2.0586 0.94531 4.0312 2.0664 5.9023 3.3438-0.35547 3.4648 1.375 8.3203 5.5625 9.6914h0.003906c0.80078 0.25391 1.6406 0.38281 2.4844 0.37891 0.67578-0.011719 1.3438-0.09375 2-0.25391 0.56641 0.78906 1.1133 1.5938 1.625 2.4258-3.1797 2.5469-4.4062 6.8203-3.0625 10.664 0.1875 0.74219 0.39844 1.5977 0.60156 2.6562v0.003906c0.44531 2.4531 0.65625 4.9453 0.63281 7.4414 0.023438 2.4766 0.042969 4.4336 1.8164 5.1914 0.32422 0.14062 0.67187 0.21094 1.0234 0.21484 0.80859-0.0625 1.5898-0.33594 2.2617-0.78906 0.79297-0.45313 1.3125-0.72266 1.9141-0.57031 0.22656 0.066406 0.4375 0.18359 0.60938 0.34375-1 9.9883-5.6719 19.25-13.113 25.992-7.4375 6.7422-17.117 10.48-27.156 10.492z"/>
<text x="0.0" y="117.5" font-size="5.0" font-weight="bold" font-family="Arbeit Regular, Helvetica, Arial-Unicode, Arial, Sans-serif" fill="#000000">Created by Andy Horvath</text><text x="0.0" y="122.5" font-size="5.0" font-weight="bold" font-family="Arbeit Regular, Helvetica, Arial-Unicode, Arial, Sans-serif" fill="#000000">from Noun Project</text></svg>