<?xml version="1.0" encoding="UTF-8" standalone="no"?>
<svg
   data-name="Layer 1"
   viewBox="0 0 46.000015 48.000019"
   x="0px"
   y="0px"
   version="1.1"
   id="svg2"
   sodipodi:docname="noun-save-5508751.svg"
   width="46.000015"
   height="48.000019"
   inkscape:version="1.3.2 (091e20e, 2023-11-25)"
   xmlns:inkscape="http://www.inkscape.org/namespaces/inkscape"
   xmlns:sodipodi="http://sodipodi.sourceforge.net/DTD/sodipodi-0.dtd"
   xmlns="http://www.w3.org/2000/svg"
   xmlns:svg="http://www.w3.org/2000/svg">
  <defs
     id="defs2" />
  <sodipodi:namedview
     id="namedview2"
     pagecolor="#ffffff"
     bordercolor="#000000"
     borderopacity="0.25"
     inkscape:showpageshadow="2"
     inkscape:pageopacity="0.0"
     inkscape:pagecheckerboard="0"
     inkscape:deskcolor="#d1d1d1"
     inkscape:zoom="2.95"
     inkscape:cx="21.864407"
     inkscape:cy="31.864407"
     inkscape:window-width="1312"
     inkscape:window-height="449"
     inkscape:window-x="0"
     inkscape:window-y="37"
     inkscape:window-maximized="0"
     inkscape:current-layer="svg2" />
     <title>save draft</title>
  <path
     d="M 44.535,10.12202 35.879,1.4640203 A 4.968,4.968 0 0 0 32.343,2.0263593e-5 H 5 A 5.006,5.006 0 0 0 0,5.0000203 V 43.00002 a 5.006,5.006 0 0 0 5,5 h 36 a 5.006,5.006 0 0 0 5,-5 v -29.343 a 4.968,4.968 0 0 0 -1.465,-3.535 z M 44,43.00002 a 3,3 0 0 1 -3,3 h -3.631 v -17.174 a 4.831,4.831 0 0 0 -4.825,-4.826 H 12.456 a 4.831,4.831 0 0 0 -4.825,4.826 v 17.174 H 5 a 3,3 0 0 1 -3,-3 V 5.0000203 a 3,3 0 0 1 3,-3 h 6.007 L 11,11.98702 a 4,4 0 0 0 4,4.005 l 14,0.016 v 0 a 4,4 0 0 0 4,-3.995 l 0.012,-9.9329997 a 2.974,2.974 0 0 1 1.458,0.8 l 8.656,8.6579997 a 3.017,3.017 0 0 1 0.874,2.119 z"
     id="path1" />
  <text
     x="-10"
     y="71.000023"
     fill="#000000"
     font-size="5px"
     font-weight="bold"
     font-family="'Helvetica Neue', Helvetica, Arial-Unicode, Arial, Sans-serif"
     id="text1">Created by Sita Raisita</text>
  <text
     x="-10"
     y="76.000023"
     fill="#000000"
     font-size="5px"
     font-weight="bold"
     font-family="'Helvetica Neue', Helvetica, Arial-Unicode, Arial, Sans-serif"
     id="text2">from the Noun Project</text>
</svg>
