<?xml version="1.0" encoding="UTF-8" standalone="no"?>
<svg
   version="1.1"
   x="0px"
   y="0px"
   viewBox="0 0 66.201622 82"
   xml:space="preserve"
   id="svg2"
   sodipodi:docname="noun-trash-can-1103940.svg"
   width="66.201622"
   height="82"
   inkscape:version="1.3.2 (091e20e, 2023-11-25)"
   xmlns:inkscape="http://www.inkscape.org/namespaces/inkscape"
   xmlns:sodipodi="http://sodipodi.sourceforge.net/DTD/sodipodi-0.dtd"
   xmlns="http://www.w3.org/2000/svg"
   xmlns:svg="http://www.w3.org/2000/svg"><defs
     id="defs2" /><sodipodi:namedview
     id="namedview2"
     pagecolor="#ffffff"
     bordercolor="#000000"
     borderopacity="0.25"
     inkscape:showpageshadow="2"
     inkscape:pageopacity="0.0"
     inkscape:pagecheckerboard="0"
     inkscape:deskcolor="#d1d1d1"
     inkscape:zoom="1.888"
     inkscape:cx="33.103814"
     inkscape:cy="53.495763"
     inkscape:window-width="1312"
     inkscape:window-height="449"
     inkscape:window-x="0"
     inkscape:window-y="37"
     inkscape:window-maximized="0"
     inkscape:current-layer="svg2"
     title="delete" /><g
     id="g1"
     transform="translate(-16.899064,-9)"><path
       d="M 82.837,9.324 C 82.648,9.118 82.381,9 82.101,9 H 17.899 c -0.28,0 -0.547,0.118 -0.737,0.324 -0.189,0.207 -0.284,0.483 -0.259,0.762 l 6.902,80 C 23.85,90.603 24.282,91 24.801,91 h 50.396 c 0.519,0 0.952,-0.397 0.996,-0.914 l 6.904,-80 C 83.121,9.807 83.027,9.53 82.837,9.324 Z M 63.964,71.315 57.657,58.838 63.962,46.365 70.269,58.842 Z m 6.977,-11.143 4.976,9.845 -0.547,6.34 -4.429,8.762 -6.305,-12.473 z m -41.197,-1.333 6.305,-12.475 6.308,12.478 -6.306,12.475 z m 5.635,13.808 -6.307,12.477 -4.446,-8.796 -0.543,-6.29 4.988,-9.869 z M 50.008,43.707 43.7,31.228 50.005,18.754 56.314,31.234 Z M 56.986,32.564 63.29,45.035 56.985,57.508 50.68,45.037 Z M 49.336,45.037 43.03,57.512 36.722,45.034 43.028,32.558 Z m -13.287,-1.333 -6.304,-12.471 6.307,-12.475 6.304,12.47 z m -0.672,1.33 -6.305,12.475 -6.305,-12.472 6.306,-12.474 z m 7.652,15.138 6.304,12.471 -6.306,12.475 -6.304,-12.471 z m 0.673,-1.33 6.306,-12.475 6.304,12.471 -6.306,12.474 z m 13.282,1.327 6.307,12.477 -6.305,12.474 -6.307,-12.477 z m 7.65,-15.134 6.306,-12.474 6.307,12.476 -6.306,12.475 z m -0.672,-1.33 -6.304,-12.471 6.305,-12.474 6.304,12.471 z m 1.093,-25.446 h 11.77 L 70.94,29.901 Z M 56.986,29.904 51.1,18.259 H 62.873 Z M 43.027,29.898 37.144,18.26 H 48.91 Z M 29.072,29.903 23.186,18.259 H 34.959 Z M 22.092,18.755 28.4,31.233 22.094,43.707 21.753,43.032 20.013,22.869 Z m -2.275,1.84 -0.202,-2.336 h 1.382 z m 2.277,25.772 6.305,12.472 -4.512,8.927 -1.838,-21.309 z m 2.808,33.169 3.225,6.38 h -2.675 z m 11.149,-5.559 6.035,11.939 h -12.07 z m 13.955,-0.004 6.037,11.943 H 43.969 Z M 63.964,73.976 70,85.916 H 57.928 Z m 11.13,5.589 -0.548,6.351 h -2.663 z m -3.48,-20.723 6.306,-12.475 0.034,0.066 -1.839,21.311 z m 6.629,-15.776 -0.324,0.641 -6.307,-12.476 6.307,-12.477 2.069,4.093 z m 0.771,-24.807 h 1.37 l -0.2,2.316 z M 81.011,11 80.488,17.059 H 19.512 L 18.989,11 Z M 25.719,89 25.556,87.116 H 74.442 L 74.279,89 Z"
       id="path1" /></g><text
     x="-16.899063"
     y="106"
     fill="#000000"
     font-size="5px"
     font-weight="bold"
     font-family="'Helvetica Neue', Helvetica, Arial-Unicode, Arial, Sans-serif"
     id="text1">Created by Juan Pablo Bravo</text><text
     x="-16.899063"
     y="111"
     fill="#000000"
     font-size="5px"
     font-weight="bold"
     font-family="'Helvetica Neue', Helvetica, Arial-Unicode, Arial, Sans-serif"
     id="text2">from the Noun Project</text></svg>
