<?xml version="1.0" encoding="UTF-8" standalone="no"?>
<svg
   version="1.1"
   viewBox="-5 -10 77.486786 88.000504"
   id="svg47"
   sodipodi:docname="noun-trash-7160372.svg"
   width="77.486786"
   height="88.000504"
   inkscape:version="1.3.2 (091e20e, 2023-11-25)"
   xmlns:inkscape="http://www.inkscape.org/namespaces/inkscape"
   xmlns:sodipodi="http://sodipodi.sourceforge.net/DTD/sodipodi-0.dtd"
   xmlns="http://www.w3.org/2000/svg"
   xmlns:svg="http://www.w3.org/2000/svg">
  <defs
     id="defs47" />
  <sodipodi:namedview
     id="namedview47"
     pagecolor="#ffffff"
     bordercolor="#000000"
     borderopacity="0.25"
     inkscape:showpageshadow="2"
     inkscape:pageopacity="0.0"
     inkscape:pagecheckerboard="0"
     inkscape:deskcolor="#d1d1d1"
     inkscape:zoom="1.7481481"
     inkscape:cx="39.184322"
     inkscape:cy="51.483051"
     inkscape:window-width="1312"
     inkscape:window-height="449"
     inkscape:window-x="0"
     inkscape:window-y="37"
     inkscape:window-maximized="0"
     inkscape:current-layer="svg47" />
  <path
     d="m 33.739488,8.4415 c -13.398,0 -38.7380003,-1.9219 -38.7380003,-9.2188 0,-7.3008 25.3400003,-9.2227 38.7380003,-9.2227 13.398,0 38.738,1.9297 38.738,9.2188 0,7.293 -25.34,9.2227 -38.738,9.2227 z m 0,-15.441 c -23.129,0 -35.7380003,4.1094 -35.7380003,6.2188 0,2.1094 12.6090003,6.2227 35.7380003,6.2227 23.129,0 35.738,-4.1094 35.738,-6.2188 0,-2.1133 -12.609,-6.2227 -35.738,-6.2227 z"
     id="path1" />
  <path
     d="m 33.739488,78.0005 c -15.359,0 -31.6720003,-4.4414 -31.6720003,-12.66 0,-0.82812 0.67188,-1.5 1.5,-1.5 0.83203,0 1.5,0.67188 1.5,1.5 0,4.5703 11.7730003,9.6602 28.6720003,9.6602 16.899,0 28.672,-5.0898 28.672,-9.6602 0,-0.82812 0.66797,-1.5 1.5,-1.5 0.82812,0 1.5,0.67188 1.5,1.5 0,8.2188 -16.32,12.66 -31.672,12.66 z"
     id="path2" />
  <path
     d="m 3.5674877,66.8405 c -0.76562,0 -1.4062,-0.57812 -1.4883,-1.3398 l -7.0703,-66.121 c -0.08984,-0.82812 0.51172,-1.5703 1.3398,-1.6602 0.82812,-0.08594 1.5703,0.51172 1.6602,1.3398 l 7.0703,66.121 c 0.04297,0.39844 -0.07422,0.79297 -0.32812,1.1055 -0.25,0.30859 -0.61328,0.50391 -1.0117,0.54297 z"
     id="path3" />
  <path
     d="m 63.911488,66.8405 h -0.17188 c -0.82422,-0.08984 -1.418,-0.82812 -1.3281,-1.6484 l 7.0703,-66.121 h -0.0039 c 0.04297,-0.39844 0.24219,-0.76172 0.55469,-1.0156 0.3125,-0.25 0.71094,-0.36719 1.1055,-0.32422 0.82812,0.08984 1.4297,0.83203 1.3398,1.6602 l -7.0781,66.109 c -0.08203,0.76172 -0.72266,1.3398 -1.4883,1.3398 z"
     id="path4" />
  <path
     d="m 6.0094877,13.6915 h 0.12109 c 0.34375,0 0.62109,0.34375 0.62109,0.62109 v 1.8711 c 0,0.34375 -0.27734,0.62109 -0.62109,0.62109 h -0.12109 c -0.34375,0 -0.62109,-0.34375 -0.62109,-0.62109 v -1.8711 c 0,-0.34375 0.27734,-0.62109 0.62109,-0.62109 z"
     id="path5" />
  <path
     d="m 6.0094877,12.1915 h 0.12109 c 1.1719,0 2.1211,1.1719 2.1211,2.1211 v 1.8711 c 0,1.1719 -0.94922,2.1211 -2.1211,2.1211 h -0.12109 c -1.1719,0 -2.1211,-1.1719 -2.1211,-2.1211 v -1.8711 c 0,-1.1719 0.94922,-2.1211 2.1211,-2.1211 z"
     id="path6" />
  <path
     d="m 19.208488,17.5515 h 0.12109 c 0.34375,0 0.62109,0.34375 0.62109,0.62109 v 1.8711 c 0,0.34375 -0.27734,0.62109 -0.62109,0.62109 h -0.12109 c -0.34375,0 -0.62109,-0.34375 -0.62109,-0.62109 v -1.8711 c 0,-0.34375 0.27734,-0.62109 0.62109,-0.62109 z"
     id="path7" />
  <path
     d="m 19.208488,16.0515 h 0.12109 c 1.1719,0 2.1211,1.1719 2.1211,2.1211 v 1.8711 c 0,1.1719 -0.94922,2.1211 -2.1211,2.1211 h -0.12109 c -1.1719,0 -2.1211,-1.1719 -2.1211,-2.1211 v -1.8711 c 0,-1.1719 0.94922,-2.1211 2.1211,-2.1211 z"
     id="path8" />
  <path
     d="m 61.637488,16.8015 h -0.12109 c -0.34375,0 -0.62109,-0.34375 -0.62109,-0.62109 v -1.8711 c 0,-0.34375 0.27734,-0.62109 0.62109,-0.62109 h 0.12109 c 0.34375,0 0.62109,0.34375 0.62109,0.62109 v 1.8711 c 0,0.34375 -0.27734,0.62109 -0.62109,0.62109 z"
     id="path9" />
  <path
     d="m 61.509488,12.1915 h 0.12109 c 1.1719,0 2.1211,1.1719 2.1211,2.1211 v 1.8711 c 0,1.1719 -0.94922,2.1211 -2.1211,2.1211 h -0.12109 c -1.1719,0 -2.1211,-1.1719 -2.1211,-2.1211 v -1.8711 c 0,-1.1719 0.94922,-2.1211 2.1211,-2.1211 z"
     id="path10" />
  <path
     d="m 48.430488,20.6725 h -0.12109 c -0.34375,0 -0.62109,-0.34375 -0.62109,-0.62109 v -1.8711 c 0,-0.34375 0.27734,-0.62109 0.62109,-0.62109 h 0.12109 c 0.34375,0 0.62109,0.34375 0.62109,0.62109 v 1.8711 c 0,0.34375 -0.27734,0.62109 -0.62109,0.62109 z"
     id="path11" />
  <path
     d="m 48.309488,16.0515 h 0.12109 c 1.1719,0 2.1211,1.1719 2.1211,2.1211 v 1.8711 c 0,1.1719 -0.94922,2.1211 -2.1211,2.1211 h -0.12109 c -1.1719,0 -2.1211,-1.1719 -2.1211,-2.1211 v -1.8711 c 0,-1.1719 0.94922,-2.1211 2.1211,-2.1211 z"
     id="path12" />
  <path
     d="m 33.680488,20.3715 h 0.12109 c 0.34375,0 0.62109,0.34375 0.62109,0.62109 v 1.8711 c 0,0.34375 -0.27734,0.62109 -0.62109,0.62109 h -0.12109 c -0.34375,0 -0.62109,-0.34375 -0.62109,-0.62109 v -1.8711 c 0,-0.34375 0.27734,-0.62109 0.62109,-0.62109 z"
     id="path13" />
  <path
     d="m 33.680488,18.8715 h 0.12109 c 1.1719,0 2.1211,1.1719 2.1211,2.1211 v 1.8711 c 0,1.1719 -0.94922,2.1211 -2.1211,2.1211 h -0.12109 c -1.1719,0 -2.1211,-1.1719 -2.1211,-2.1211 v -1.8711 c 0,-1.1719 0.94922,-2.1211 2.1211,-2.1211 z"
     id="path14" />
  <path
     d="m 8.2084877,36.1725 h 0.12109 c 0.34375,0 0.62109,0.34375 0.62109,0.62109 v 1.8711 c 0,0.34375 -0.27734,0.62109 -0.62109,0.62109 h -0.12109 c -0.34375,0 -0.62109,-0.34375 -0.62109,-0.62109 v -1.8711 c 0,-0.34375 0.27734,-0.62109 0.62109,-0.62109 z"
     id="path15" />
  <path
     d="m 8.2084877,34.6725 h 0.12109 c 1.1719,0 2.1211003,1.1719 2.1211003,2.1211 v 1.8711 c 0,1.1719 -0.9492203,2.1211 -2.1211003,2.1211 h -0.12109 c -1.1719,0 -2.1211,-1.1719 -2.1211,-2.1211 v -1.8711 c 0,-1.1719 0.94922,-2.1211 2.1211,-2.1211 z"
     id="path16" />
  <path
     d="m 19.208488,40.0315 h 0.12109 c 0.34375,0 0.62109,0.34375 0.62109,0.62109 v 1.8711 c 0,0.34375 -0.27734,0.62109 -0.62109,0.62109 h -0.12109 c -0.34375,0 -0.62109,-0.34375 -0.62109,-0.62109 v -1.8711 c 0,-0.34375 0.27734,-0.62109 0.62109,-0.62109 z"
     id="path17" />
  <path
     d="m 19.208488,38.5315 h 0.12109 c 1.1719,0 2.1211,1.1719 2.1211,2.1211 v 1.8711 c 0,1.1719 -0.94922,2.1211 -2.1211,2.1211 h -0.12109 c -1.1719,0 -2.1211,-1.1719 -2.1211,-2.1211 v -1.8711 c 0,-1.1719 0.94922,-2.1211 2.1211,-2.1211 z"
     id="path18" />
  <path
     d="m 11.911488,26.1095 h 0.12109 c 0.34375,0 0.62109,0.34375 0.62109,0.62109 v 1.8711 c 0,0.34375 -0.27734,0.62109 -0.62109,0.62109 h -0.12109 c -0.34375,0 -0.62109,-0.34375 -0.62109,-0.62109 v -1.8711 c 0,-0.34375 0.27734,-0.62109 0.62109,-0.62109 z"
     id="path19" />
  <path
     d="m 11.911488,24.6215 h 0.12109 c 1.1719,0 2.1211,1.1719 2.1211,2.1211 v 1.8711 c 0,1.1719 -0.94922,2.1211 -2.1211,2.1211 h -0.12109 c -1.1719,0 -2.1211003,-1.1719 -2.1211003,-2.1211 v -1.8711 c 0,-1.1719 0.9492203,-2.1211 2.1211003,-2.1211 z"
     id="path20" />
  <path
     d="m 26.610488,30.7195 h 0.12109 c 0.34375,0 0.62109,0.34375 0.62109,0.62109 v 1.8711 c 0,0.34375 -0.27734,0.62109 -0.62109,0.62109 h -0.12109 c -0.34375,0 -0.62109,-0.34375 -0.62109,-0.62109 v -1.8711 c 0,-0.34375 0.27734,-0.62109 0.62109,-0.62109 z"
     id="path21" />
  <path
     d="m 26.610488,29.2195 h 0.12109 c 1.1719,0 2.1211,1.1719 2.1211,2.1211 v 1.8711 c 0,1.1719 -0.94922,2.1211 -2.1211,2.1211 h -0.12109 c -1.1719,0 -2.1211,-1.1719 -2.1211,-2.1211 v -1.8711 c 0,-1.1719 0.94922,-2.1211 2.1211,-2.1211 z"
     id="path22" />
  <path
     d="m 11.911488,48.8985 h 0.12109 c 0.34375,0 0.62109,0.34375 0.62109,0.62109 v 1.8711 c 0,0.34375 -0.27734,0.62109 -0.62109,0.62109 h -0.12109 c -0.34375,0 -0.62109,-0.34375 -0.62109,-0.62109 v -1.8711 c 0,-0.34375 0.27734,-0.62109 0.62109,-0.62109 z"
     id="path23" />
  <path
     d="m 11.911488,47.3985 h 0.12109 c 1.1719,0 2.1211,1.1719 2.1211,2.1211 v 1.8711 c 0,1.1719 -0.94922,2.1211 -2.1211,2.1211 h -0.12109 c -1.1719,0 -2.1211003,-1.1719 -2.1211003,-2.1211 v -1.8711 c 0,-1.1719 0.9492203,-2.1211 2.1211003,-2.1211 z"
     id="path24" />
  <path
     d="m 26.610488,53.5005 h 0.12109 c 0.34375,0 0.62109,0.34375 0.62109,0.62109 v 1.8711 c 0,0.34375 -0.27734,0.62109 -0.62109,0.62109 h -0.12109 c -0.34375,0 -0.62109,-0.34375 -0.62109,-0.62109 v -1.8711 c 0,-0.34375 0.27734,-0.62109 0.62109,-0.62109 z"
     id="path25" />
  <path
     d="m 26.610488,52.0005 h 0.12109 c 1.1719,0 2.1211,1.1719 2.1211,2.1211 v 1.8711 c 0,1.1719 -0.94922,2.1211 -2.1211,2.1211 h -0.12109 c -1.1719,0 -2.1211,-1.1719 -2.1211,-2.1211 v -1.8711 c 0,-1.1719 0.94922,-2.1211 2.1211,-2.1211 z"
     id="path26" />
  <path
     d="m 56.458488,29.2305 h -0.12109 c -0.34375,0 -0.62109,-0.34375 -0.62109,-0.62109 v -1.8711 c 0,-0.34375 0.27734,-0.62109 0.62109,-0.62109 h 0.12109 c 0.34375,0 0.62109,0.34375 0.62109,0.62109 v 1.8711 c 0,0.34375 -0.27734,0.62109 -0.62109,0.62109 z"
     id="path27" />
  <path
     d="m 56.341488,24.6215 h 0.12109 c 1.1719,0 2.1211,1.1719 2.1211,2.1211 v 1.8711 c 0,1.1719 -0.94922,2.1211 -2.1211,2.1211 h -0.12109 c -1.1719,0 -2.1211,-1.1719 -2.1211,-2.1211 v -1.8711 c 0,-1.1719 0.94922,-2.1211 2.1211,-2.1211 z"
     id="path28" />
  <path
     d="m 41.770488,33.8405 h -0.12109 c -0.34375,0 -0.62109,-0.34375 -0.62109,-0.62109 v -1.8711 c 0,-0.34375 0.27734,-0.62109 0.62109,-0.62109 h 0.12109 c 0.34375,0 0.62109,0.34375 0.62109,0.62109 v 1.8711 c 0,0.34375 -0.27734,0.62109 -0.62109,0.62109 z"
     id="path29" />
  <path
     d="m 41.637488,29.2195 h 0.12109 c 1.1719,0 2.1211,1.1719 2.1211,2.1211 v 1.8711 c 0,1.1719 -0.94922,2.1211 -2.1211,2.1211 h -0.12109 c -1.1719,0 -2.1211,-1.1719 -2.1211,-2.1211 v -1.8711 c 0,-1.1719 0.94922,-2.1211 2.1211,-2.1211 z"
     id="path30" />
  <path
     d="m 56.458488,52.0125 h -0.12109 c -0.34375,0 -0.62109,-0.34375 -0.62109,-0.62109 v -1.8711 c 0,-0.34375 0.27734,-0.62109 0.62109,-0.62109 h 0.12109 c 0.34375,0 0.62109,0.34375 0.62109,0.62109 v 1.8711 c 0,0.34375 -0.27734,0.62109 -0.62109,0.62109 z"
     id="path31" />
  <path
     d="m 56.341488,47.3985 h 0.12109 c 1.1719,0 2.1211,1.1719 2.1211,2.1211 v 1.8711 c 0,1.1719 -0.94922,2.1211 -2.1211,2.1211 h -0.12109 c -1.1719,0 -2.1211,-1.1719 -2.1211,-2.1211 v -1.8711 c 0,-1.1719 0.94922,-2.1211 2.1211,-2.1211 z"
     id="path32" />
  <path
     d="m 41.770488,56.6215 h -0.12109 c -0.34375,0 -0.62109,-0.34375 -0.62109,-0.62109 v -1.8711 c 0,-0.34375 0.27734,-0.62109 0.62109,-0.62109 h 0.12109 c 0.34375,0 0.62109,0.34375 0.62109,0.62109 v 1.8711 c 0,0.34375 -0.27734,0.62109 -0.62109,0.62109 z"
     id="path33" />
  <path
     d="m 41.637488,52.0005 h 0.12109 c 1.1719,0 2.1211,1.1719 2.1211,2.1211 v 1.8711 c 0,1.1719 -0.94922,2.1211 -2.1211,2.1211 h -0.12109 c -1.1719,0 -2.1211,-1.1719 -2.1211,-2.1211 v -1.8711 c 0,-1.1719 0.94922,-2.1211 2.1211,-2.1211 z"
     id="path34" />
  <path
     d="m 59.630488,39.2895 h -0.12109 c -0.34375,0 -0.62109,-0.34375 -0.62109,-0.62109 v -1.8711 c 0,-0.34375 0.27734,-0.62109 0.62109,-0.62109 h 0.12109 c 0.34375,0 0.62109,0.34375 0.62109,0.62109 v 1.8711 c 0,0.34375 -0.27734,0.62109 -0.62109,0.62109 z"
     id="path35" />
  <path
     d="m 59.501488,34.6725 h 0.12109 c 1.1719,0 2.1211,1.1719 2.1211,2.1211 v 1.8711 c 0,1.1719 -0.94922,2.1211 -2.1211,2.1211 h -0.12109 c -1.1719,0 -2.1211,-1.1719 -2.1211,-2.1211 v -1.8711 c 0,-1.1719 0.94922,-2.1211 2.1211,-2.1211 z"
     id="path36" />
  <path
     d="m 48.430488,43.1485 h -0.12109 c -0.34375,0 -0.62109,-0.34375 -0.62109,-0.62109 v -1.8711 c 0,-0.34375 0.27734,-0.62109 0.62109,-0.62109 h 0.12109 c 0.34375,0 0.62109,0.34375 0.62109,0.62109 v 1.8711 c 0,0.34375 -0.27734,0.62109 -0.62109,0.62109 z"
     id="path37" />
  <path
     d="m 48.309488,38.5315 h 0.12109 c 1.1719,0 2.1211,1.1719 2.1211,2.1211 v 1.8711 c 0,1.1719 -0.94922,2.1211 -2.1211,2.1211 h -0.12109 c -1.1719,0 -2.1211,-1.1719 -2.1211,-2.1211 v -1.8711 c 0,-1.1719 0.94922,-2.1211 2.1211,-2.1211 z"
     id="path38" />
  <path
     d="m 33.680488,42.8595 h 0.12109 c 0.34375,0 0.62109,0.34375 0.62109,0.62109 v 1.8711 c 0,0.34375 -0.27734,0.62109 -0.62109,0.62109 h -0.12109 c -0.34375,0 -0.62109,-0.34375 -0.62109,-0.62109 v -1.8711 c 0,-0.34375 0.27734,-0.62109 0.62109,-0.62109 z"
     id="path39" />
  <path
     d="m 33.680488,41.3595 h 0.12109 c 1.1719,0 2.1211,1.1719 2.1211,2.1211 v 1.8711 c 0,1.1719 -0.94922,2.1211 -2.1211,2.1211 h -0.12109 c -1.1719,0 -2.1211,-1.1719 -2.1211,-2.1211 v -1.8711 c 0,-1.1719 0.94922,-2.1211 2.1211,-2.1211 z"
     id="path40" />
  <path
     d="m 19.208488,62.3715 h 0.12109 c 0.34375,0 0.62109,0.34375 0.62109,0.62109 v 1.8711 c 0,0.34375 -0.27734,0.62109 -0.62109,0.62109 h -0.12109 c -0.34375,0 -0.62109,-0.34375 -0.62109,-0.62109 v -1.8711 c 0,-0.34375 0.27734,-0.62109 0.62109,-0.62109 z"
     id="path41" />
  <path
     d="m 19.208488,60.8715 h 0.12109 c 1.1719,0 2.1211,1.1719 2.1211,2.1211 v 1.8711 c 0,1.1719 -0.94922,2.1211 -2.1211,2.1211 h -0.12109 c -1.1719,0 -2.1211,-1.1719 -2.1211,-2.1211 v -1.8711 c 0,-1.1719 0.94922,-2.1211 2.1211,-2.1211 z"
     id="path42" />
  <path
     d="m 48.430488,65.4805 h -0.12109 c -0.34375,0 -0.62109,-0.34375 -0.62109,-0.62109 v -1.8711 c 0,-0.34375 0.27734,-0.62109 0.62109,-0.62109 h 0.12109 c 0.34375,0 0.62109,0.34375 0.62109,0.62109 v 1.8711 c 0,0.34375 -0.27734,0.62109 -0.62109,0.62109 z"
     id="path43" />
  <path
     d="m 48.309488,60.8715 h 0.12109 c 1.1719,0 2.1211,1.1719 2.1211,2.1211 v 1.8711 c 0,1.1719 -0.94922,2.1211 -2.1211,2.1211 h -0.12109 c -1.1719,0 -2.1211,-1.1719 -2.1211,-2.1211 v -1.8711 c 0,-1.1719 0.94922,-2.1211 2.1211,-2.1211 z"
     id="path44" />
  <path
     d="m 33.680488,65.1915 h 0.12109 c 0.34375,0 0.62109,0.34375 0.62109,0.62109 v 1.8711 c 0,0.34375 -0.27734,0.62109 -0.62109,0.62109 h -0.12109 c -0.34375,0 -0.62109,-0.34375 -0.62109,-0.62109 v -1.8711 c 0,-0.34375 0.27734,-0.62109 0.62109,-0.62109 z"
     id="path45" />
  <path
     d="m 33.680488,63.6915 h 0.12109 c 1.1719,0 2.1211,1.1719 2.1211,2.1211 v 1.8711 c 0,1.1719 -0.94922,2.1211 -2.1211,2.1211 h -0.12109 c -1.1719,0 -2.1211,-1.1719 -2.1211,-2.1211 v -1.8711 c 0,-1.1719 0.94922,-2.1211 2.1211,-2.1211 z"
     id="path46" />
  <text
     x="-16.260511"
     y="101.5005"
     font-size="5px"
     font-weight="bold"
     font-family="'Arbeit Regular', Helvetica, Arial-Unicode, Arial, Sans-serif"
     fill="#000000"
     id="text46">Created by Muhamad Syabdah Alamsyah</text>
  <text
     x="-16.260511"
     y="106.5005"
     font-size="5px"
     font-weight="bold"
     font-family="'Arbeit Regular', Helvetica, Arial-Unicode, Arial, Sans-serif"
     fill="#000000"
     id="text47">from Noun Project</text>
</svg>
