<?xml version="1.0" encoding="UTF-8" standalone="no"?>
<svg
   version="1.1"
   x="0px"
   y="0px"
   viewBox="0 0 71.599998 89.5"
   xml:space="preserve"
   id="svg2"
   sodipodi:docname="noun-graph-theory-374731.svg"
   width="30"
   height="30"
   inkscape:version="1.3.2 (091e20e, 2023-11-25)"
   xmlns:inkscape="http://www.inkscape.org/namespaces/inkscape"
   xmlns:sodipodi="http://sodipodi.sourceforge.net/DTD/sodipodi-0.dtd"
   xmlns="http://www.w3.org/2000/svg"
   xmlns:svg="http://www.w3.org/2000/svg"><defs
     id="defs2" /><sodipodi:namedview
     id="namedview2"
     pagecolor="#ffffff"
     bordercolor="#000000"
     borderopacity="0.25"
     inkscape:showpageshadow="2"
     inkscape:pageopacity="0.0"
     inkscape:pagecheckerboard="0"
     inkscape:deskcolor="#d1d1d1"
     inkscape:zoom="1.888"
     inkscape:cx="35.752119"
     inkscape:cy="57.20339"
     inkscape:window-width="1312"
     inkscape:window-height="449"
     inkscape:window-x="0"
     inkscape:window-y="37"
     inkscape:window-maximized="0"
     inkscape:current-layer="svg2" />
      <title
         id="title1">view tree</title>
     <path
     fill="#FFC34E"
     d="M 56.9,41.6 C 50.3,41.6 44.7,46 42.8,51.9 L 26.7,48.5 c 0.1,-0.6 0.2,-1.2 0.2,-1.8 0,-5.3 -4.3,-9.6 -9.6,-9.6 -0.3,0 -0.7,0 -1,0.1 L 13,19.8 c 4.6,-0.9 8,-5 8,-9.8 C 21,4.5 16.5,0 11,0 5.5,0 1,4.5 1,10 c 0,5.5 4.5,10 10,10 0.4,0 0.8,0 1.3,-0.1 l 3.3,17.4 c -4.4,0.8 -7.8,4.7 -7.8,9.4 0,4.1 2.6,7.7 6.3,9 L 8.4,75.4 C 8,75.3 7.6,75.3 7.1,75.3 3.2,75.3 0,78.5 0,82.4 c 0,3.9 3.2,7.1 7.1,7.1 3.9,0 7.1,-3.2 7.1,-7.1 0,-3.2 -2.1,-5.9 -5,-6.8 L 14.8,56 c 0.8,0.2 1.6,0.3 2.5,0.3 4.4,0 8.1,-2.9 9.2,-7 l 16.1,3.4 c -0.3,1.2 -0.4,2.4 -0.4,3.6 0,8.1 6.6,14.7 14.7,14.7 C 65,71 71.6,64.4 71.6,56.3 71.6,48.2 65,41.6 56.9,41.6 Z"
     id="path1" /><text
     x="-14.2"
     y="109.7"
     fill="#000000"
     font-size="5px"
     font-weight="bold"
     font-family="'Helvetica Neue', Helvetica, Arial-Unicode, Arial, Sans-serif"
     id="text1">Created by Ecem Afacan</text><text
     x="-14.2"
     y="114.7"
     fill="#000000"
     font-size="5px"
     font-weight="bold"
     font-family="'Helvetica Neue', Helvetica, Arial-Unicode, Arial, Sans-serif"
     id="text2">from the Noun Project</text></svg>
