<?xml version="1.0" encoding="UTF-8" standalone="no"?>
<svg
   version="1.1"
   x="0px"
   y="0px"
   viewBox="0 0 128.05302 108"
   xml:space="preserve"
   id="svg2"
   sodipodi:docname="noun-new-5077448.svg"
   width="128.05302"
   height="108"
   inkscape:version="1.3.2 (091e20e, 2023-11-25)"
   xmlns:inkscape="http://www.inkscape.org/namespaces/inkscape"
   xmlns:sodipodi="http://sodipodi.sourceforge.net/DTD/sodipodi-0.dtd"
   xmlns="http://www.w3.org/2000/svg"
   xmlns:svg="http://www.w3.org/2000/svg"><defs
     id="defs2" /><sodipodi:namedview
     id="namedview2"
     pagecolor="#ffffff"
     bordercolor="#000000"
     borderopacity="0.25"
     inkscape:showpageshadow="2"
     inkscape:pageopacity="0.0"
     inkscape:pagecheckerboard="0"
     inkscape:deskcolor="#d1d1d1"
     inkscape:zoom="1.475"
     inkscape:cx="64.067797"
     inkscape:cy="69.830508"
     inkscape:window-width="1312"
     inkscape:window-height="449"
     inkscape:window-x="0"
     inkscape:window-y="37"
     inkscape:window-maximized="0"
     inkscape:current-layer="svg2" /><title
     id="title1">new texts!</title><path
     d="m 15.312156,79.4 -1.4,14.6 c -0.1,1.1 0.7,2.1 1.8,2.2 0.2,0 0.4,0 0.7,0 l 12.9,-3.2 c 3.8,-0.9 7.8,0.5 10.1,3.6 l 8.1,10.6 c 0.4,0.5 0.9,0.8 1.5,0.8 0,0 0.1,0 0.1,0 0.6,0 1.1,-0.2 1.5,-0.6 l 8.5,-9.1 c 2.9,-3.2 7.6,-4.1 11.5,-2.2 l 11.1,5.4 c 1,0.5 2.2,0.1 2.7,-0.9 0,-0.1 0.1,-0.1 0.1,-0.2 l 4.1,-11.8 c 1.4,-4.1 5.3,-6.8 9.6,-6.7 l 12.400004,0.4 c 0.6,0 1.1,-0.2 1.5,-0.6 0.4,-0.4 0.6,-1 0.5,-1.6 l -1.6,-13.4 c -0.5,-3.9 1.3,-7.7 4.7,-9.8 l 11.4,-7 c 0.9,-0.6 1.2,-1.8 0.7,-2.8 -0.1,-0.2 -0.2,-0.3 -0.4,-0.5 l -11.1,-9.4 c -2.5,-2.1 -3.8,-5.4 -3.5,-8.7 l 1.3,-14.6 c 0.1,-1.1 -0.7,-2.1 -1.8,-2.2 -0.2,0 -0.4,0 -0.7,0 L 98.612156,15 c -3.8,0.9 -7.8,-0.5 -10.1,-3.6 l -8.1,-10.6 c -0.4,-0.5 -0.9,-0.8 -1.5,-0.8 -0.6,0 -1.2,0.2 -1.6,0.6 l -8.5,9.1 c -2.9,3.2 -7.6,4.1 -11.5,2.2 l -11.1,-5.4 c -1,-0.5 -2.2,-0.1 -2.7,0.9 0,0.1 -0.1,0.1 -0.1,0.2 l -4.1,11.8 c -1.4,4.1 -5.3,6.8 -9.6,6.7 l -12.4,-0.4 c -0.6,0 -1.2,0.2 -1.5,0.6 -0.4,0.4 -0.6,1 -0.5,1.6 l 1.7,13.4 c 0.5,3.9 -1.3,7.7 -4.7,9.8 l -11.40000049,7 c -0.9,0.6 -1.2,1.9 -0.6,2.8 0.1,0.2 0.2,0.3 0.4,0.5 L 11.812156,70.8 c 2.5,2.1 3.8,5.3 3.5,8.6 z m -0.9,-24.9 c 4.7,-2.9 7.2,-8.3 6.6,-13.7 l -1.3,-11 10,0.3 c 6.1,0.2 11.6,-3.6 13.6,-9.4 l 3.4,-9.7 9.1,4.4 c 5.5,2.7 12,1.4 16.1,-3 l 6.9,-7.4 6.7,8.7 c 3.3,4.4 8.9,6.4 14.2,5.1 l 10.200004,-2.5 -1.1,11.8 c -0.4,4.6 1.4,9.1 4.9,12.1 l 9,7.6 -9,5.6 c -4.7,2.9 -7.2,8.3 -6.6,13.7 l 1.3,11 -10.000004,-0.3 c -6.1,-0.2 -11.6,3.6 -13.6,9.4 l -3.4,9.7 -9.1,-4.4 c -5.5,-2.7 -12,-1.4 -16.1,3 l -6.9,7.4 -6.7,-8.7 c -3.3,-4.4 -8.9,-6.4 -14.2,-5.1 l -10.2,2.5 1.1,-11.8 c 0.4,-4.6 -1.4,-9.1 -4.9,-12.1 L 5.4121555,60.1 Z"
     id="path1" /><text
     x="0.012155507"
     y="133"
     fill="#000000"
     font-size="5px"
     font-weight="bold"
     font-family="'Helvetica Neue', Helvetica, Arial-Unicode, Arial, Sans-serif"
     id="text1">Created by Creative Mahira</text><text
     x="0.012155507"
     y="138"
     fill="#000000"
     font-size="5px"
     font-weight="bold"
     font-family="'Helvetica Neue', Helvetica, Arial-Unicode, Arial, Sans-serif"
     id="text2">from the Noun Project</text></svg>
