<svg xmlns="http://www.w3.org/2000/svg" version="1.1" viewBox="-5.0 -10.0 110.0 135.0">
 <path d="m50 25c2.8516 0 5.4336 1.1562 7.3008 3.0234l0.070313 0.074218c1.8281 1.8633 2.957 4.4141 2.957 7.2266 0 2.8516-1.1562 5.4336-3.0234 7.3008-1.8672 1.8672-4.4492 3.0234-7.3008 3.0234-2.8516 0-5.4336-1.1562-7.3008-3.0234l-0.070313-0.074219c-1.8281-1.8633-2.957-4.4141-2.957-7.2266 0-2.8516 1.1562-5.4336 3.0234-7.3008 1.8672-1.8672 4.4492-3.0234 7.3008-3.0234zm0 47.523c4.1445 0 8.0586-0.99219 11.512-2.75 3.4727-1.7695 6.4805-4.3086 8.8008-7.3867v-0.89062c0-2.7734-1.0859-5.3047-2.8555-7.1836-1.7656-1.8789-4.2109-3.1133-6.9258-3.3008h-21.059c-2.7188 0.1875-5.1602 1.4219-6.9258 3.2969-1.7695 1.8789-2.8555 4.4102-2.8555 7.1836v0.89062c2.3203 3.0781 5.3281 5.6172 8.8008 7.3867 3.4531 1.7578 7.3633 2.75 11.512 2.75zm12.633-0.54688c-3.793 1.9336-8.0859 3.0234-12.633 3.0234s-8.8398-1.0898-12.633-3.0234c-3.8945-1.9844-7.2656-4.8633-9.8398-8.3672-0.19531-0.21875-0.31641-0.50781-0.31641-0.82422v-1.2891c0-3.4219 1.3438-6.5508 3.5312-8.875 2.1797-2.3164 5.1953-3.8398 8.5547-4.0703 0.054687-0.007812 0.11328-0.011719 0.16797-0.011719h21.059v0.003907h0.074218c3.3984 0.21094 6.4531 1.7383 8.6523 4.0781 2.1875 2.3281 3.5312 5.4531 3.5312 8.875v1.2891h-0.007812c0 0.25-0.078126 0.50781-0.23438 0.72656-2.5859 3.5508-5.9805 6.4648-9.9141 8.4648zm-7.082-42.203c-1.4219-1.4219-3.3828-2.2969-5.5508-2.2969s-4.1289 0.87891-5.5508 2.2969c-1.4219 1.4219-2.3008 3.3828-2.3008 5.5508 0 2.1406 0.85156 4.0781 2.2344 5.4922l0.0625 0.058594c1.4219 1.418 3.3828 2.2969 5.5508 2.2969 2.168 0 4.1289-0.87891 5.5508-2.2969 1.4219-1.4219 2.2969-3.3828 2.2969-5.5508 0-2.1406-0.85156-4.0781-2.2344-5.4922l-0.0625-0.058593z" fill-rule="evenodd"/>
<text x="0.0" y="117.5" font-size="5.0" font-weight="bold" font-family="Arbeit Regular, Helvetica, Arial-Unicode, Arial, Sans-serif" fill="#000000">Created by Muhammad Syaifuddin</text><text x="0.0" y="122.5" font-size="5.0" font-weight="bold" font-family="Arbeit Regular, Helvetica, Arial-Unicode, Arial, Sans-serif" fill="#000000">from Noun Project</text></svg>