<svg xmlns="http://www.w3.org/2000/svg" version="1.1" viewBox="-5.0 -10.0 110.0 135.0">
 <path d="m4.1914 48.328c6.8867-3.8516 21.844-24.25 45.809-24.25 23.973 0 38.961 20.43 45.809 24.246 1.3164 0.73438 1.3008 2.6211 0 3.3477-6.8281 3.8008-21.832 24.25-45.809 24.25-23.973 0-38.961-20.43-45.809-24.246-1.3242-0.74219-1.2969-2.6328 0-3.3477zm45.809-14.648c-9.0117 0-16.32 7.3086-16.32 16.32 0 14.492 17.605 21.797 27.859 11.539 10.258-10.254 2.9531-27.859-11.539-27.859zm8.8242 7.4961c-7.8398-7.8438-21.305-2.2617-21.305 8.8242 0 11.082 13.461 16.668 21.305 8.8242 4.875-4.875 4.875-12.773 0-17.648zm-45.867 4.9688c-1.6758 1.4883-3.1562 2.8125-4.4844 3.8555 1.3242 1.043 2.8086 2.3672 4.4805 3.8555 7.957 7.0859 20.461 18.223 37.047 18.223s29.09-11.137 37.043-18.223c1.6758-1.4922 3.1562-2.8125 4.4805-3.8555-1.3242-1.043-2.8086-2.3672-4.4805-3.8555-7.9531-7.0859-20.457-18.223-37.043-18.223s-29.09 11.137-37.043 18.223z" fill-rule="evenodd"/>
<text x="0.0" y="117.5" font-size="5.0" font-weight="bold" font-family="Arbeit Regular, Helvetica, Arial-Unicode, Arial, Sans-serif" fill="#000000">Created by Jaya99</text><text x="0.0" y="122.5" font-size="5.0" font-weight="bold" font-family="Arbeit Regular, Helvetica, Arial-Unicode, Arial, Sans-serif" fill="#000000">from Noun Project</text></svg>