<?xml version="1.0" encoding="UTF-8" standalone="no"?>
<svg
   version="1.1"
   viewBox="-5 -10 90.042213 83.349831"
   id="svg2"
   sodipodi:docname="noun-voting-6771393.svg"
   width="90.042213"
   height="83.349831"
   inkscape:version="1.3.2 (091e20e, 2023-11-25)"
   xmlns:inkscape="http://www.inkscape.org/namespaces/inkscape"
   xmlns:sodipodi="http://sodipodi.sourceforge.net/DTD/sodipodi-0.dtd"
   xmlns="http://www.w3.org/2000/svg"
   xmlns:svg="http://www.w3.org/2000/svg">
  <defs
     id="defs2" />
  <sodipodi:namedview
     id="namedview2"
     pagecolor="#ffffff"
     bordercolor="#000000"
     borderopacity="0.25"
     inkscape:showpageshadow="2"
     inkscape:pageopacity="0.0"
     inkscape:pagecheckerboard="0"
     inkscape:deskcolor="#d1d1d1"
     inkscape:zoom="1.7481481"
     inkscape:cx="45.476695"
     inkscape:cy="49.194915"
     inkscape:window-width="1312"
     inkscape:window-height="449"
     inkscape:window-x="0"
     inkscape:window-y="37"
     inkscape:window-maximized="0"
     inkscape:current-layer="svg2" />
  <path
     d="m 46.820133,21.353448 c -0.93359,0.76562 -1.3516,1.6836 -1.25,2.75 -0.93359,-0.5 -1.75,-1.5 -2.4492,-3 -0.76562,-1.6992 -1.418,-2.8164 -1.9492,-3.3516 -0.10156,1.1992 0.05078,2.3984 0.44922,3.6016 0.39844,0.86719 1.0156,1.8828 1.8516,3.0508 0.36719,0.46484 0.85156,1.1172 1.4492,1.9492 0.56641,0.73438 1.0664,1.3008 1.5,1.6992 0.39844,0.30078 0.96875,0.88281 1.6992,1.75 0.73438,0.80078 1.3164,1.367199 1.75,1.699199 0.96875,0.69922 1.9492,1.6172 2.9492,2.75 0.60156,0.69922 1.418,1.734401 2.4492,3.101601 0.30078,0.367189 0.78125,0.765619 1.4492,1.199199 0.66406,0.53125 1.1328,0.933591 1.3984,1.1992 1.2344,1.1992 1.8672,2.3516 1.8984,3.4492 0.03125,1.1328 -0.5,2.4336 -1.6016,3.8984 -0.30078,0.36719 -0.76562,0.89844 -1.3984,1.6016 -0.53125,0.66406 -1.1172,1.4336 -1.75,2.3008 -0.06641,0.10156 -0.11719,0.16797 -0.14844,0.19922 0,-0.03125 -0.03125,-0.05078 -0.10156,-0.05078 -0.30078,-0.23438 -0.46875,-0.39844 -0.5,-0.5 -0.16797,-0.30078 -0.05078,-0.51562 0.35156,-0.64844 0.46875,-0.13281 0.69922,-0.33203 0.69922,-0.60156 -0.43359,-0.26562 -1.1172,-0.13281 -2.0508,0.39844 -0.89844,0.46875 -1.5664,0.33594 -2,-0.39844 0.13281,-0.03516 0.23438,-0.10156 0.30078,-0.19922 0.06641,-0.06641 0.31641,-0.19922 0.75,-0.39844 0.33203,-0.10156 0.44922,-0.30078 0.35156,-0.60156 -0.19922,-0.36719 -0.48438,-0.5 -0.85156,-0.39844 -0.30078,0.06641 -0.58203,0.19922 -0.85156,0.39844 -0.43359,0.46875 -0.89844,0.66406 -1.3984,0.60156 -0.36719,-0.03125 -0.80078,-0.28125 -1.3008,-0.75 0.53125,-0.30078 0.94922,-0.56641 1.25,-0.80078 0.46875,-0.26562 0.76562,-0.68359 0.89844,-1.25 -0.03125,0 -0.88281,0.38281 -2.5508,1.1484 -0.93359,0.46484 -1.7344,0.13281 -2.3984,-1 l 0.10156,-0.14844 c 0.10156,-0.06641 0.48438,-0.25 1.1484,-0.55078 0.5,-0.16406 0.66406,-0.39844 0.5,-0.69922 -0.16797,-0.39844 -0.51562,-0.51562 -1.0508,-0.35156 -0.13281,0.10156 -0.5,0.36719 -1.1016,0.80078 -0.66797,0.43359 -1.2812,0.39844 -1.8516,-0.10156 -0.69922,-0.56641 -1.1484,-0.83594 -1.3516,-0.80078 0.03125,-0.30078 0.16797,-0.55078 0.39844,-0.75 0.36719,-0.10156 0.60156,-0.18359 0.69922,-0.25 0.33203,-0.13281 0.53125,-0.23438 0.60156,-0.30078 0.19922,-0.13281 0.21875,-0.33203 0.05078,-0.60156 -0.26562,-0.46875 -0.64844,-0.44922 -1.1484,0.05078 -0.60156,0.63281 -1.168,0.91406 -1.6992,0.85156 -0.53125,-0.06641 -1.1328,-0.38281 -1.8008,-0.94922 -0.5,-0.39844 -0.75,-0.68359 -0.75,-0.85156 0.03125,-0.16797 0.31641,-0.33203 0.85156,-0.5 0.69922,-0.16797 0.96875,-0.43359 0.80078,-0.80078 -0.06641,-0.23438 -0.21875,-0.33594 -0.44922,-0.30078 -0.23438,0.03125 -0.43359,0.13281 -0.60156,0.30078 -0.66797,0.53125 -1.418,0.66406 -2.25,0.39844 -0.46875,-0.10156 -1.1484,-0.35156 -2.0508,-0.75 0,-0.43359 0.19922,-0.75 0.60156,-0.94922 0.5,-0.26562 0.85156,-0.48438 1.0508,-0.64844 0.39844,-0.23437 0.64844,-0.43359 0.75,-0.60156 0.26562,-0.23438 0.44922,-0.5 0.55078,-0.80078 -0.56641,-0.23438 -1.0859,-0.14844 -1.5508,0.25 -0.19922,0.16406 -0.51562,0.48438 -0.94922,0.94922 -0.63281,0.56641 -1.3164,0.83594 -2.0508,0.80078 -0.46875,0 -1.1484,-0.13281 -2.0508,-0.39844 -0.26563,-0.03125 -0.43359,-0.14844 -0.5,-0.35156 -0.06641,-0.16797 0.05078,-0.33594 0.35156,-0.5 0.46484,-0.23438 0.83203,-0.39844 1.1016,-0.5 0.26563,-0.19922 0.41797,-0.31641 0.44922,-0.35156 0.16406,-0.23438 0.16406,-0.43359 0,-0.60156 -0.10156,-0.16797 -0.41797,-0.16797 -0.94922,0 -0.5,0.19922 -1.168,0.58203 -2,1.1484 -0.76562,0.46875 -1.5312,0.64844 -2.3008,0.550781 -0.33594,-0.06641 -0.51562,-0.101561 -0.55078,-0.101561 -0.16797,-0.101559 -0.30078,-0.28125 -0.39844,-0.55078 l 3.0508,-1.5 c 0.23438,-0.16406 0.38281,-0.26562 0.44922,-0.30078 0.19922,-0.06641 0.25,-0.16797 0.14844,-0.30078 -0.13281,-0.43359 -0.43359,-0.58594 -0.89844,-0.44922 -1.2344,0.43359 -2.1016,0.89844 -2.6016,1.3984 -0.46875,0.5 -1.0508,0.76562 -1.75,0.80078 -0.36719,0 -0.98438,-0.03125 -1.8516,-0.10156 -0.39844,-0.101559 -0.69922,-0.316409 -0.89844,-0.64844 -0.10156,-0.265619 0.11719,-0.58594 0.64844,-0.949219 1.8672,-1.1328 2.918,-1.75 3.1484,-1.851601 -1.5,-0.101559 -2.9844,0.550781 -4.4492,1.949201 -0.43359,0.398439 -0.83203,0.48438 -1.1992,0.25 -0.33203,-0.19922 -0.55078,-0.351561 -0.64844,-0.44922 -0.30078,-0.164061 -0.36719,-0.382811 -0.19922,-0.648441 0.13281,-0.23438 0.31641,-0.433589 0.55078,-0.601559 0.60156,-0.30078 1.7188,-0.98438 3.3516,-2.0508 l 0.35156,-0.300781 c 0.13281,-0.10156 0.11719,-0.26562 -0.05078,-0.5 -0.13281,-0.199219 -0.31641,-0.30078 -0.55078,-0.30078 -0.13281,0.03125 -0.28125,0.13281 -0.44922,0.30078 -0.39844,0.33594 -0.96875,0.75 -1.6992,1.25 -0.80078,0.53125 -1.3516,0.91406 -1.6484,1.148401 -0.69922,0.566409 -1.2344,0.632809 -1.6016,0.199219 -0.33594,-0.60156 -0.56641,-0.98438 -0.69922,-1.1484 -0.33203,-0.33203 -0.31641,-0.60156 0.05078,-0.80078 0.53125,-0.23438 0.81641,-0.35156 0.85156,-0.35156 0.13281,-0.26563 0.66406,-0.58203 1.6016,-0.94922 0.33203,-0.16406 0.56641,-0.38281 0.69922,-0.64844 0.10156,-0.19922 0.08203,-0.51562 -0.05078,-0.94922 -0.43359,0.46875 -1,0.91406 -1.6992,1.3516 -1.1992,0.63281 -1.8164,0.94922 -1.8516,0.94922 -0.39844,0.30078 -0.69922,0.25 -0.89844,-0.14844 -0.26562,-0.56641 -0.43359,-0.86719 -0.5,-0.89844 -0.23438,-0.16406 -0.39844,-0.31641 -0.5,-0.44922 -0.10156,-0.33203 0.06641,-0.60156 0.5,-0.80078 0.16406,-0.10156 0.38281,-0.28125 0.64844,-0.55078 0.30078,-0.33203 0.53125,-0.53516 0.69922,-0.60156 0.26562,-0.13281 0.43359,-0.25 0.5,-0.35156 0.06641,-0.10156 0.03125,-0.28125 -0.10156,-0.55078 -0.23438,-0.23438 -0.44922,-0.31641 -0.64844,-0.25 -0.13281,0.06641 -0.28125,0.18359 -0.44922,0.35156 -0.30078,0.23438 -0.91406,0.80078 -1.8516,1.6992 -0.83203,-1.1328 -1.1992,-1.8672 -1.1016,-2.1992 0.03125,-0.39844 0.66406,-0.83203 1.8984,-1.3008 0.06641,-0.06641 0.61719,-0.38281 1.6484,-0.94922 -0.23438,-0.53125 -0.58594,-0.66797 -1.0508,-0.39844 -0.36719,0.19922 -0.88281,0.46875 -1.5508,0.80078 -0.63281,0.30078 -1.1484,0.58203 -1.5508,0.85156 -0.46875,0.56641 -0.91797,0.66797 -1.3516,0.30078 -0.39844,-0.46875 -0.66797,-0.81641 -0.8007801,-1.0508 -0.26562,-0.30078 -0.26562,-0.58203 0,-0.85156 0.3984401,-0.23438 0.6484401,-0.39844 0.7500001,-0.5 0.30078,-0.26563 0.93359,-0.80078 1.8984,-1.6016 0.73438,-0.63281 1.3828,-1.1016 1.9492,-1.3984 0.36719,-0.19922 0.48438,-0.41797 0.35156,-0.64844 -0.19922,-0.19922 -0.35156,-0.26562 -0.44922,-0.19922 -0.06641,0.06641 -0.19922,0.16797 -0.39844,0.30078 -0.76562,0.53125 -1.7656,1.1641 -3,1.8984 1.5,-2.7656 2.3008,-4.2656 2.3984,-4.5 0.80078,-1.3984 2.4336,-4.0312 4.8984,-7.8983995 2.0664,-3.3008 3.668,-6 4.8008,-8.1016 0.06641,-0.30078 0.14844,-0.48438 0.25,-0.55078 0.13281,-0.19922 0.41797,-0.18359 0.85156,0.05078 1.6992,1.168 3.8828,2.1836 6.5508,3.0508 3.0664,0.93359 5.3672,1.6836 6.8984,2.25 l 15.551,5.5507995 c 3.0312,1 5.1836,1.8984 6.4492,2.6992 0.86719,0.46875 1.6328,1.1484 2.3008,2.0508 0.33203,0.43359 0.83203,1.2812 1.5,2.5508 1.3672,2.4648 2.1992,4.0312 2.5,4.6992 0.96875,1.8672 1.6016,3.5664 1.8984,5.1016 0.06641,0.19922 0.18359,0.51562 0.35156,0.94922 0.03125,0.26562 -0.19922,0.44922 -0.69922,0.55078 -0.19922,0.03125 -0.53125,0.10156 -1,0.19922 -0.39844,0 -0.61719,-0.33203 -0.64844,-1 0,-0.53516 -0.28125,-0.53516 -0.85156,0 -0.76562,0.66797 -1.8164,0.89844 -3.1484,0.69922 0.06641,-0.39844 0.36719,-0.73437 0.89844,-1 0.63281,-0.36719 1.0156,-0.68359 1.1484,-0.94922 -0.63281,-0.16797 -1.5664,0.19922 -2.8008,1.1016 -1.0312,0.83203 -1.9844,0.94922 -2.8516,0.35156 v 0.05078 l -0.05078,-0.14844 c 0.03125,0 0.04687,0.03516 0.05078,0.10156 v -0.19922 c 0.06641,-0.10156 0.31641,-0.23438 0.75,-0.39844 0.33203,-0.13281 0.41797,-0.31641 0.25,-0.55078 -0.16797,-0.30078 -0.44922,-0.36719 -0.85156,-0.19922 -0.39844,0.06641 -0.68359,0.23438 -0.85156,0.5 -0.39844,0.56641 -0.88281,0.85156 -1.4492,0.85156 -0.30078,0 -0.78125,-0.06641 -1.4492,-0.19922 l -0.10156,-0.19922 c -0.03125,-0.19922 0.08203,-0.41406 0.35156,-0.64844 0.19922,-0.19922 0.26562,-0.38281 0.19922,-0.55078 -0.30078,-0.63281 -0.66406,-0.58203 -1.1016,0.14844 -0.06641,0.19922 -0.35156,0.51563 -0.85156,0.94922 h -0.30078 -1.8516 c 0.39844,-0.80078 0.85156,-1.3828 1.3516,-1.75 0.26562,-0.06641 0.44922,-0.16797 0.55078,-0.30078 0.13281,-0.16406 0.08203,-0.35156 -0.14844,-0.55078 -0.19922,-0.19922 -0.38281,-0.25 -0.55078,-0.14844 -0.10156,0 -0.25,0.10156 -0.44922,0.30078 l -0.89844,0.85156 c -1.1328,1.5352 -2.1641,1.4844 -3.1016,-0.14844 l 1.8984,-1.8008 c 0.73438,-1.1641 0.96484,-1.6992 0.69922,-1.6016 -0.26562,0.13281 -0.55078,0.30078 -0.85156,0.5 -0.30078,0.13281 -0.51563,0.26562 -0.64844,0.39844 -0.26562,0.26562 -0.61719,0.60156 -1.0508,1 -0.10156,0.10156 -0.23438,0.28125 -0.39844,0.55078 -0.16797,0.16797 -0.38281,0.11719 -0.64844,-0.14844 -0.26562,-0.30078 -0.43359,-0.51562 -0.5,-0.64844 -0.10156,-0.19922 -0.06641,-0.46875 0.10156,-0.80078 0.53125,-1.0312 1,-1.8164 1.3984,-2.3516 0.16797,-0.19922 0.33203,-0.56641 0.5,-1.1016 0.19922,-0.60156 0.11719,-0.78125 -0.25,-0.55078 -0.30078,0.13281 -0.51562,0.25 -0.64844,0.35156 -0.15234,0.09766 -0.35156,0.25 -0.58594,0.44922 z m 10.051,9.25 c 0.66797,0 1.1992,0.23438 1.6016,0.69922 -0.96875,0.667969 -1.7656,1.6992 -2.3984,3.1016 -0.16797,0.33203 -0.30078,0.5 -0.39844,0.5 -0.10156,0 -0.30078,-0.117191 -0.60156,-0.351561 -0.06641,-0.06641 -0.25,-0.316409 -0.55078,-0.75 -0.30078,-0.33203 -0.56641,-0.55078 -0.80078,-0.648439 -0.23437,-0.101561 -0.08594,-0.617191 0.44922,-1.550801 0.53125,-0.83594 0.86719,-1.2188 1,-1.1484 0.26562,0.09766 0.83203,0.14844 1.6992,0.14844 z m -0.30078,4 3.6484,-3.8008 0.35156,0.25 -3.8008,3.8008 z m 2.0508,2 c -0.39844,0.43359 -0.81641,0.48438 -1.25,0.14844 -0.5,-0.39844 -0.55078,-0.75 -0.14844,-1.050801 0.60156,-0.335939 0.94922,-0.617189 1.0508,-0.851559 0.23438,-0.433591 0.69922,-1 1.3984,-1.6992 0.69922,-0.66797 1.1484,-1.2852 1.3516,-1.8516 0.10156,-0.23438 0.23438,-0.33203 0.39844,-0.30078 0.23438,0.19922 0.39844,0.30078 0.5,0.30078 l 2.1484,0.05078 c 0.89844,0 1.6484,0.10156 2.25,0.30078 0.56641,-0.13281 1.6992,-0.06641 3.3984,0.19922 1.6641,0.19922 3.0312,0.16406 4.1016,-0.10156 1.0312,-0.19922 1.6992,-0.13281 2,0.19922 0.36719,0.30078 0.58203,1.2656 0.64844,2.8984 0.03125,0.89844 0.03125,2.3164 0,4.25 v 1.9492 c 0,0.76562 0.08203,1.418 0.25,1.9492 0.33203,0.83203 0.23438,1.6484 -0.30078,2.4492 -0.36719,0.46875 -0.94922,1.1328 -1.75,2 -0.06641,0.13281 -0.33203,0.31641 -0.80078,0.55078 -0.39844,0.16797 -0.63281,0.41797 -0.69922,0.75 -0.10156,0.03516 -0.18359,0.05078 -0.25,0.05078 -0.10156,0.03125 -0.16406,0.03125 -0.19922,0 -0.46875,-0.23438 -0.83594,-0.31641 -1.1016,-0.25 -0.30078,0.13281 -0.60156,0.5 -0.89844,1.1016 -0.39844,0.66797 -0.60156,1.0156 -0.60156,1.0508 -0.33203,0.33594 -0.71875,0.5 -1.1484,0.5 -0.03516,-0.26562 0.16406,-0.60156 0.60156,-1 0.43359,-0.33594 0.53125,-0.71875 0.30078,-1.1484 -0.30078,0.23438 -1.0312,0.5 -2.1992,0.80078 -0.96875,0.16406 -1.6484,0.53125 -2.0508,1.1016 -0.33203,-0.39844 -0.55078,-0.60156 -0.64844,-0.60156 -0.10156,0 -0.36719,0.21875 -0.80078,0.64844 -0.26562,0.43359 -0.71875,1.082 -1.3516,1.9492 -0.56641,0.69922 -1.168,1.1836 -1.8008,1.4492 -0.33594,0.13281 -0.63281,0.18359 -0.89844,0.14844 0.03125,-0.46875 0.38281,-1.082 1.0508,-1.8516 0.60156,-0.73438 0.91797,-1.3359 0.94922,-1.8008 l -0.35156,-0.39844 c -0.23438,0.26562 -0.60156,0.64844 -1.1016,1.1484 -0.39844,0.39844 -0.69922,0.81641 -0.89844,1.25 -0.39844,1.1016 -1.1328,1.8984 -2.1992,2.3984 -0.39844,0.23438 -1.5,0.585939 -3.3008,1.0508 0.06641,-0.16797 0.61719,-0.816411 1.6484,-1.949201 0.69922,-0.73438 1.0156,-1.5156 0.94922,-2.3516 -1.6992,2.1328 -3,3.6484 -3.8984,4.5508 -1.6016,1.5 -3.3164,2.5 -5.1484,3 0.46875,-0.83594 1.3984,-2.0664 2.8008,-3.6992 1.3008,-1.5 2.1836,-2.7344 2.6484,-3.6992 -2.6992,2.7344 -4.3672,4.5156 -5,5.3516 -1.8359,2.0312 -3.25,3.9688 -4.25,5.8008 -0.33594,-1.7344 -0.39844,-2.8828 -0.19922,-3.4492 0.16797,-0.43359 0.81641,-1.3828 1.9492,-2.8516 0.83203,-1.0664 1.4844,-1.8516 1.9492,-2.3516 0.76562,-0.96875 1.4648,-1.75 2.1016,-2.3516 0.60156,-0.60156 1.1016,-0.94922 1.5,-1.0508 0.63281,-0.19922 1.2812,-0.08203 1.9492,0.35156 0.33203,0.23438 0.58203,0.36719 0.75,0.39844 0.36719,0.13281 0.66406,0.08594 0.89844,-0.14844 0.06641,0.23438 0.35156,0.30078 0.85156,0.19922 3.6328,-2.5664 5.6992,-5.8359 6.1992,-9.8008 l -0.05078,-0.14844 c -0.69922,-1.0664 -1.1016,-1.918 -1.1992,-2.5508 -0.10156,-0.93359 0.25,-1.8008 1.0508,-2.6016 l -0.35156,-0.25 c -0.30078,0.30078 -0.75,0.78516 -1.3516,1.4492 -0.06641,0.06641 -0.19922,0.23438 -0.39844,0.5 -0.13281,0.16406 -0.35156,0.10156 -0.64844,-0.19922 -0.19922,-0.19922 -0.28125,-0.38281 -0.25,-0.55078 l 0.25,-0.60156 c 0.19922,-0.39844 0.61719,-0.88281 1.25,-1.4492 0.73437,-0.66797 1.1836,-1.1992 1.3516,-1.6016 -0.5,-0.19922 -0.94922,-0.13281 -1.3516,0.19922 -0.16797,0.23438 -0.43359,0.55078 -0.80078,0.94922 -0.23047,0.25 -0.51562,0.63281 -0.84766,1.168 z m -6.5508,-6.6523 c 0.16797,0 0.46875,0.06641 0.89844,0.19922 0.36719,0.16797 0.68359,0.21484 0.94922,0.14844 -0.60156,1.0664 -1.0508,1.5508 -1.3516,1.4492 -0.33203,-0.10156 -1.1172,-0.800781 -2.3516,-2.1016 0.875,0.14062 1.4883,0.23828 1.8555,0.30469 z m -5,18.953 c 0.30078,0.33203 0.33203,0.60156 0.10156,0.80078 -0.13281,0.06641 -0.38281,0.18359 -0.75,0.35156 -1.3008,1.3672 -2.3984,2.8164 -3.3008,4.3516 -0.16797,-0.16797 -0.21875,-0.33203 -0.14844,-0.5 0.10156,-0.19922 0.13281,-0.35156 0.10156,-0.44922 -0.33203,-0.5 -0.53125,-0.86719 -0.60156,-1.1016 -0.13281,-0.43359 -0.13281,-0.80078 0,-1.1016 0.43359,-0.63281 1.332,-1.5664 2.6992,-2.8008 0.56641,-0.46875 1.1992,-0.32031 1.8984,0.44922 z m 30.102,11.348 c 0.03125,1.8008 0.05078,4.5156 0.05078,8.1484 0,0.56641 -0.11719,0.933589 -0.35156,1.1016 -0.16797,0.10156 -0.58203,0.117189 -1.25,0.05078 -2.3008,-0.33203 -5.832,-0.55078 -10.602,-0.64844 -2.9688,-0.10156 -6.5508,-0.26562 -10.75,-0.5 -2.3984,-0.16797 -6,-0.38281 -10.801,-0.64844 0.5,-0.53125 0.80078,-0.88281 0.89844,-1.0508 0.26562,-0.43359 0.25,-0.86719 -0.05078,-1.3008 -0.10156,-0.23437 -0.08203,-0.43359 0.05078,-0.60156 0.33203,-0.13281 0.51562,-0.25 0.55078,-0.35156 1.7344,-1.9688 3.8516,-3.6484 6.3516,-5.0508 2.1641,-1.1328 4.6836,-2.168 7.5508,-3.1016 3.7656,-1.0664 6.2812,-1.8672 7.5508,-2.3984 2.6992,-1.1016 4.9844,-2.418 6.8516,-3.9492 l 3.5508,-3.25 c 0,0.06641 -0.01563,0.98437 -0.05078,2.75 -0.03516,1.1328 -0.01562,2.0508 0.05078,2.75 0.26562,2.168 0.39844,4.8516 0.39844,8.0508 z m -10.5,-8.9492 c 0.66797,-0.53125 1.168,-0.96875 1.5,-1.3008 -0.19922,0.867189 -0.43359,1.5352 -0.69922,2 -0.39844,0.398439 -0.98437,0.69922 -1.75,0.898439 0.16406,-0.56641 0.48047,-1.0977 0.94922,-1.5977 z m -1.6016,0.949219 c -0.39844,0.5 -0.58203,0.89844 -0.55078,1.199201 -0.43359,0.10156 -0.66797,0.13281 -0.69922,0.10156 -0.19922,-0.13281 -0.25,-0.26562 -0.14844,-0.39844 0.13281,-0.10156 0.21875,-0.16797 0.25,-0.19922 0.10156,-0.39844 0.35156,-0.76562 0.75,-1.1016 0.43359,-0.36719 0.76562,-0.64844 1,-0.85156 0.03125,0.40234 -0.16797,0.81641 -0.60156,1.25 z m 9.3008,18.5 c 0.96875,0.132811 2.5508,0.23438 4.75,0.300781 2.1016,0.03125 3.668,0.167969 4.6992,0.398439 0.46875,0.06641 0.78125,0.164061 0.94922,0.30078 0.23437,0.19922 0.31641,0.5 0.25,0.89844 0,0.46484 -0.16797,0.69922 -0.5,0.69922 -0.16797,0 -0.44922,-0.05078 -0.85156,-0.14844 -0.46875,0.03125 -2.0508,0.05078 -4.75,0.05078 -3.5,-0.199219 -8.0156,-0.30078 -13.551,-0.30078 -7.3984,-0.03125 -11.949,-0.06641 -13.648,-0.10156 -5.7656,-0.13281 -9.3672,-0.26562 -10.801,-0.39844 -1.8672,-0.13281 -4.1016,-0.23438 -6.6992,-0.30078 h -0.85156 c -0.26562,-0.10156 -0.36719,-0.35156 -0.30078,-0.75 -0.03125,-0.60156 -0.03125,-1.0156 0,-1.25 0.03125,-0.43359 0.36719,-0.73438 1,-0.89844 2.4336,-0.33203 4.3984,-0.417969 5.8984,-0.25 0.80078,0.06641 1.75,0.132811 2.8516,0.19922 1.1328,0.03125 2.0312,0.05078 2.6992,0.05078 l 8.3008,0.351561 c 3.3008,0.10156 6.0508,0.26562 8.25,0.5 1.1992,0.10156 3.2656,0.19922 6.1992,0.30078 2.6055,0 4.6406,0.11328 6.1055,0.34766 z m -24.301,-19.598 c -0.13281,0.06641 -0.35156,0.14844 -0.64844,0.25 -1.0664,1.3672 -3.0312,3.632801 -5.8984,6.8008 -0.36719,-1.8359 -0.03125,-3.4688 1,-4.8984 1.6328,-1.4688 2.8164,-2.6016 3.5508,-3.398399 0.30078,-0.33203 0.60156,-0.351561 0.89844,-0.05078 0.23438,0.13281 0.53125,0.398439 0.89844,0.80078 0.36719,0.16016 0.43359,0.32812 0.19922,0.496089 z m -39.25,-60.2029995 c 0.46875,-0.43359 0.86719,-0.71875 1.1992,-0.85156 0.5,-0.1328095 1.0508,-0.1328095 1.6484,0 2.6328,0.80078 4.5156,1.3828 5.6484,1.75 2,0.69922 3.7188,1.582 5.1484,2.6484 0.39844,0.19922 0.63281,0.41797 0.69922,0.64844 0.06641,0.26562 -0.05078,0.55078 -0.35156,0.85156 -0.83203,1.168 -1.8164,2.7852 -2.9492,4.8516 -1.3672,2.3984 -2.332,4.0508 -2.8984,4.9492 -2.7656,4.1328 -5.5664,8.7499995 -8.3984,13.8520005 -0.03125,0.10156 -0.7187501,1.1328 -2.0508001,3.101599 -0.76562,1.2344 -1.3164,2.3516 -1.6484,3.3516 -0.23438,0.56641 -0.48438,0.91406 -0.75,1.0508 -0.33203,0.19922 -0.76562,0.13281 -1.3008,-0.199219 l 0.19922,-0.19922 c 0.5,-0.36719 0.88281,-0.63281 1.1484,-0.80078 0.43359,-0.39844 0.51562,-0.73438 0.25,-1 -0.16406,-0.300781 -0.44922,-0.26562 -0.85156,0.10156 -0.10156,0.06641 -0.41797,0.36719 -0.94922,0.89844 -0.30078,0.36719 -0.66797,0.48438 -1.1016,0.35156 -0.33594,-0.03125 -0.68359,-0.16406 -1.0508,-0.39844 -0.46875,-0.19922 -0.39844,-0.5 0.19922,-0.898441 0.60156,-0.43359 1.5312,-1.0508 2.8008,-1.851599 0.16406,-0.06641 0.28125,-0.14844 0.35156,-0.25 0.16797,-0.13281 0.19922,-0.28516 0.10156,-0.44922 -0.13281,-0.23438 -0.28125,-0.33594 -0.44922,-0.30078 -0.03516,0 -0.21875,0.10156 -0.55078,0.30078 -0.96875,0.66406 -1.9844,1.3984 -3.0508,2.1992 -0.26563,0.30078 -0.53125,0.48438 -0.80078,0.55078 -0.23438004,0.03125 -0.55078004,-0.01563 -0.94922004,-0.14844 -0.30078,-0.26562 -0.43359,-0.46875 -0.39844,-0.60156 0.03125,-0.10156 0.14844,-0.23438 0.35156,-0.39844 0.60156,-0.46875 2.14840004,-1.6172 4.64840004,-3.4492 0.19922,-0.06641 0.33203,-0.11719 0.39844,-0.14844 0.19922,-0.16406 0.23437,-0.33594 0.10156,-0.5 -0.10156,-0.26562 -0.26562,-0.36719 -0.5,-0.30078 -0.13281,0 -0.30078,0.10156 -0.5,0.30078 -1.2656,0.86719 -2.3359,1.6641 -3.1992,2.3984 -0.83594004,0.73438 -1.44920004,1.1641 -1.85160004,1.3008 -0.73437996,0.26562 -1.46879996,0.01563 -2.19919996,-0.75 0.56641,-0.80078 1.4648,-1.582 2.69919996,-2.3516 1.53120004,-1.0312 2.50000004,-1.6992 2.89840004,-2 0.30078,-0.33203 0.48438,-0.55078 0.55078,-0.64844 0.23437,-0.23438 0.23437,-0.43359 0,-0.60156 -0.19922,-0.30078 -0.39844,-0.33203 -0.60156,-0.10156 -0.13281,0.10156 -0.31641,0.28125 -0.55078,0.55078 -0.53516,0.39844 -1.30080004,1.0352 -2.30080004,1.8984 -0.99999996,0.69922 -1.88279996,1.2656 -2.64839996,1.6992 -0.13281,0.06641 -0.38281,0.26562 -0.75,0.60156 -0.23438,0.23438 -0.46875,0.10156 -0.69922,-0.39844 -0.30078,-0.53125 -0.48438,-0.89844 -0.55078,-1.1016 -0.066406,-0.53125 0.14844,-0.94922 0.64844,-1.25 0.46875,-0.36719 1.418,-1.2188 2.8516,-2.5508 1.16409996,-1.168 2.23439996,-1.9688 3.1992,-2.3984 -0.53516,-0.13281 -1.05080004,-0.08203 -1.55080004,0.14844 -0.43359,0.23438 -1.71879996,1.25 -3.85159996,3.0508 0.83203,-2.3984 1.9492,-4.1641 3.35159996,-5.3008 0.23438,-0.26562 0.31641,-0.53516 0.25,-0.80078 l -0.050781,-0.64844 c 0.13281,-0.63281 0.60156,-1.6016005 1.39840004,-2.8984005 0.69922,-1.0664 1.5664,-2.7656 2.6016,-5.1016 1.0664,-2.2344 1.9492,-3.8984 2.6484,-5 0.83203,-1.5664 1.4688,-2.6992 1.8984,-3.3984 0.81641,-1.4766 1.6172001,-2.5938 2.4141001,-3.3594 z m 1.8008,5.6016 c -0.03125,0.86719 0.33203,1.6836 1.1016,2.4492 0.80078,0.80078 1.6641,1.1992 2.6016,1.1992 0.86719,0.03125 1.5664,-0.19922 2.1016,-0.69922 0.66797,-0.5 1.0156,-1.1484 1.0508,-1.9492 0.03125,-1 -0.35156,-1.8164 -1.1484,-2.4492 -0.76562,-0.66797 -1.7656,-1 -3,-1 -1.8047,0 -2.707,0.81641 -2.707,2.4492 z m 6.0508,0.80078 c -0.19922,0.5 -0.55078,0.91406 -1.0508,1.25 -0.46875,0.30078 -0.88281,0.41406 -1.25,0.35156 -1.3672,-0.26562 -2.1484,-0.96875 -2.3516,-2.1016 -0.13281,-1 0.36719,-1.4336 1.5,-1.3008 0.66406,0 1.3828,0.23438 2.1484,0.69922 0.76953,0.40234 1.1055,0.76562 1.0039,1.1016 z m 5.3008,41.1479995 c 0.13281,-0.06641 0.35156,-0.06641 0.64844,0 1.2344,0.398441 2.0508,0.66797 2.4492,0.800781 0.89844,0.199219 1.7344,0.33594 2.5,0.39844 0.13281,0 0.26562,0.08594 0.39844,0.25 0.06641,0.10156 0.14844,0.30078 0.25,0.60156 0.10156,0.56641 0.76562,3.1016 2,7.6016 -2.9336,0.03125 -4.9492,-1.0156 -6.0508,-3.1484 -1.0664,-2.332 -1.8164,-4.1992 -2.25,-5.6016 -0.12891,-0.46875 -0.11328,-0.76953 0.05469,-0.90234 z m 10.398,2.5 c 1.5312,0.76562 2.3672,1.550801 2.5,2.351601 0.16797,1.0664 0.55078,2.6172 1.1484,4.648399 0.10156,0.5 0.05078,0.76562 -0.14844,0.800781 -0.53125,0.13281 -0.93359,0.117189 -1.1992,-0.05078 -0.53125,-0.464839 -0.96875,-0.765619 -1.3008,-0.898439 -0.56641,-0.36719 -1.1328,-0.5 -1.6992,-0.39844 -0.10156,0 -0.18359,-0.10156 -0.25,-0.30078 -0.60156,-1.5 -1,-2.6484 -1.1992,-3.4492 -0.43359,-1.3008 -0.64844,-2.4688 -0.64844,-3.5 0.73438,0.10156 1.3008,0.14844 1.6992,0.14844 h 0.14844 c 0.10156,0.16406 0.41797,0.38281 0.94922,0.64844 z m 4.1016,2.699201 c 0.5,0.30078 0.83203,0.683589 1,1.148399 0.23438,0.398441 0.69922,1.816401 1.3984,4.25 -0.73438,-0.06641 -1.2344,-0.433589 -1.5,-1.1016 -0.16797,-0.460939 -0.46484,-1.894499 -0.89844,-4.296899 z m 3.5508,2.25 c 1.4688,0.63281 2.2188,1.1836 2.25,1.648399 0.06641,0.332031 -0.53125,1.101601 -1.8008,2.3008 -0.23437,-0.60156 -0.38281,-1.25 -0.44922,-1.9492 -0.03516,-0.33203 -0.03516,-1 0,-2 z"
     fill-rule="evenodd"
     id="path1" />
  <text
     x="-9.972867"
     y="99.177444"
     font-size="5px"
     font-weight="bold"
     font-family="'Arbeit Regular', Helvetica, Arial-Unicode, Arial, Sans-serif"
     fill="#000000"
     id="text1">Created by Saeful Muslim</text>
  <text
     x="-9.972867"
     y="104.17744"
     font-size="5px"
     font-weight="bold"
     font-family="'Arbeit Regular', Helvetica, Arial-Unicode, Arial, Sans-serif"
     fill="#000000"
     id="text2">from Noun Project</text>
</svg>
