<?xml version="1.0" encoding="UTF-8" standalone="no"?>
<svg
   viewBox="0 0 38.000065 56"
   x="0px"
   y="0px"
   version="1.1"
   id="svg2"
   sodipodi:docname="noun-vote-6099049.svg"
   width="38.000065"
   height="56"
   inkscape:version="1.3.2 (091e20e, 2023-11-25)"
   xmlns:inkscape="http://www.inkscape.org/namespaces/inkscape"
   xmlns:sodipodi="http://sodipodi.sourceforge.net/DTD/sodipodi-0.dtd"
   xmlns="http://www.w3.org/2000/svg"
   xmlns:svg="http://www.w3.org/2000/svg">
  <defs
     id="defs2" />
  <sodipodi:namedview
     id="namedview2"
     pagecolor="#ffffff"
     bordercolor="#000000"
     borderopacity="0.25"
     inkscape:showpageshadow="2"
     inkscape:pageopacity="0.0"
     inkscape:pagecheckerboard="0"
     inkscape:deskcolor="#d1d1d1"
     inkscape:zoom="2.95"
     inkscape:cx="19.152542"
     inkscape:cy="35.932203"
     inkscape:window-width="1312"
     inkscape:window-height="449"
     inkscape:window-x="0"
     inkscape:window-y="37"
     inkscape:window-maximized="0"
     inkscape:current-layer="svg2" />
  <title
     id="title1">1</title>
  <g
     id="g1"
     transform="translate(-12.999968,-3.9999997)">
    <path
       d="M 32,4 A 18.99658,18.99658 0 0 0 28,41.568 V 57 a 3.00328,3.00328 0 0 0 3,3 h 2 a 3.00328,3.00328 0 0 0 3,-3 V 41.568 A 18.99658,18.99658 0 0 0 32,4 Z m 2,53 a 1.00068,1.00068 0 0 1 -1,1 H 31 A 1.00068,1.00068 0 0 1 30,57 V 41.89252 a 18.66135,18.66135 0 0 0 4,0 z M 32,40 A 17,17 0 1 1 49,23 17.019,17.019 0 0 1 32,40 Z m 3.55566,-25.48828 h -0.02051 a 5.95517,5.95517 0 0 0 -3.51953,1.13965 5.95685,5.95685 0 0 0 -3.53125,-1.16309 H 28.46386 A 5.99937,5.99937 0 0 0 24.208,24.7168 l 7.04785,7.09473 a 0.99965,0.99965 0 0 0 1.41406,0.0039 l 7.09473,-7.04785 a 5.99954,5.99954 0 0 0 -4.209,-10.25586 z m 2.79883,8.83789 -6.38477,6.34277 -6.34372,-6.38574 a 4,4 0 0 1 2.83789,-6.81836 h 0.01367 a 3.98,3.98 0 0 1 2.8252,1.18164 1.00052,1.00052 0 0 0 1.41406,0.0039 3.97187,3.97187 0 0 1 2.81836,-1.16211 h 0.01367 a 4,4 0 0 1 2.80566,6.83789 z"
       id="path1" />
  </g>
  <text
     x="-12.999969"
     y="75"
     fill="#000000"
     font-size="5px"
     font-weight="bold"
     font-family="'Helvetica Neue', Helvetica, Arial-Unicode, Arial, Sans-serif"
     id="text1">Created by mim studio</text>
  <text
     x="-12.999969"
     y="80"
     fill="#000000"
     font-size="5px"
     font-weight="bold"
     font-family="'Helvetica Neue', Helvetica, Arial-Unicode, Arial, Sans-serif"
     id="text2">from the Noun Project</text>
</svg>
